<?xml version="1.0" encoding="utf-8"?>
<!-- Generator: Adobe Illustrator 16.0.2, SVG Export Plug-In . SVG Version: 6.00 Build 0)  -->
<!DOCTYPE svg PUBLIC "-//W3C//DTD SVG 1.1//EN" "http://www.w3.org/Graphics/SVG/1.1/DTD/svg11.dtd">
<svg version="1.1"
	 id="svg10067" xmlns:inkscape="http://www.inkscape.org/namespaces/inkscape" xmlns:dc="http://purl.org/dc/elements/1.1/" xmlns:sodipodi="http://sodipodi.sourceforge.net/DTD/sodipodi-0.dtd" xmlns:cc="http://creativecommons.org/ns#" xmlns:rdf="http://www.w3.org/1999/02/22-rdf-syntax-ns#" xmlns:svg="http://www.w3.org/2000/svg" inkscape:version="0.48.2 r9819" sodipodi:docname="03.design_system_map.svg" inkscape:export-filename="../03.design_system_map.png" inkscape:export-xdpi="200" inkscape:export-ydpi="200"
	 xmlns="http://www.w3.org/2000/svg" xmlns:xlink="http://www.w3.org/1999/xlink" x="0px" y="0px" width="1488.188px"
	 height="1052.361px" viewBox="0 0 1488.188 1052.361" enable-background="new 0 0 1488.188 1052.361" xml:space="preserve">
<sodipodi:namedview  units="mm" bordercolor="#666666" showgrid="true" borderopacity="1.0" pagecolor="#ffffff" showguides="false" inkscape:zoom="0.45991771" inkscape:cx="744.09448" inkscape:cy="526.18109" id="base" inkscape:window-width="1440" inkscape:current-layer="layer1" inkscape:pageopacity="1" inkscape:pageshadow="2" inkscape:document-units="mm" inkscape:window-height="795" inkscape:window-x="0" inkscape:window-y="0" inkscape:window-maximized="1" inkscape:guide-bbox="true">
	<sodipodi:guide  orientation="0,1" position="478.34646,974.40945" id="guide24376"></sodipodi:guide>
	<sodipodi:guide  orientation="1,0" position="35.433071,938.97638" id="guide24416"></sodipodi:guide>
	<sodipodi:guide  orientation="1,0" position="1452.7559,921.25984" id="guide24418"></sodipodi:guide>
	<sodipodi:guide  orientation="0,1" position="974.40945,106.29921" id="guide24420"></sodipodi:guide>
	<sodipodi:guide  orientation="0,1" position="389.76378,938.97638" id="guide24422"></sodipodi:guide>
	<sodipodi:guide  orientation="0,1" position="701.5748,1009.8425" id="guide24424"></sodipodi:guide>
	<sodipodi:guide  orientation="0,1" position="230.31496,921.25984" id="guide25257"></sodipodi:guide>
</sodipodi:namedview>
<a id="a24212" xlink:href="http://creativecommons.org/licenses/by-sa/3.0/"  transform="matrix(0.56208624,0,0,0.56208624,1028.2309,500.82271)" xlink:title="CC BY-SA">
	<text transform="matrix(1.7791 0 0 1.7791 -406.8828 834.9493)" font-family="'TitilliumText25L-250wt'" font-size="9">This work is licensed under the Creative Commons Attribution-Share Alike 3.0 Unported License.</text>
	<text transform="matrix(1.7791 0 0 1.7791 255.3025 834.9493)" font-family="'TitilliumText25L-250wt'" font-size="10"> </text>
	<text transform="matrix(1.7791 0 0 1.7791 -406.8828 854.9623)" font-family="'TitilliumText25L-250wt'" font-size="9">To view a copy of this license, visit http://creativecommons.org/licenses/by-sa/3.0/</text>
	<text transform="matrix(1.7791 0 0 1.7791 178.4161 854.9623)" font-family="'TitilliumText25L-250wt'" font-size="10"> </text>
	<text transform="matrix(1.7791 0 0 1.7791 -406.8828 874.9771)" font-family="'TitilliumText25L-250wt'" font-size="9">or send a letter to Creative Commons, 171 Second Street, Suite 300, San Francisco, California, 94105, USA.</text>
</a>
<g id="g25400" transform="matrix(0.83432244,0,0,0.83432244,242.1812,154.35087)">
	<g id="g9971" transform="matrix(0.7026078,0,0,-0.7026078,-2047.1135,1073.3221)">
		<g>
			<defs>
				<rect id="SVGID_1_" x="4923.748" y="96.97" width="45.846" height="45.847"/>
			</defs>
			<clipPath id="SVGID_2_">
				<use xlink:href="#SVGID_1_"  overflow="visible"/>
			</clipPath>
			<g id="g9973" clip-path="url(#SVGID_2_)">
				<g id="g9975" transform="translate(4946.6187,152.9518)">
					<path id="path9977" inkscape:connector-curvature="0" d="M0.001-0.001c9.146,0,16.859-3.14,23.14-9.419
						c6.317-6.319,9.476-14.032,9.476-23.14c0-9.149-3.099-16.764-9.302-22.85c-6.59-6.474-14.36-9.709-23.313-9.709
						c-8.799,0-16.436,3.197-22.906,9.594c-6.397,6.394-9.596,14.049-9.596,22.965c0,8.914,3.199,16.628,9.596,23.14
						C-16.628-3.141-8.992-0.001,0.001-0.001 M0.117-5.873c-7.403,0-13.664-2.597-18.781-7.791
						c-5.311-5.426-7.963-11.725-7.963-18.895c0-7.21,2.632-13.452,7.906-18.722c5.271-5.273,11.551-7.906,18.838-7.906
						c7.247,0,13.564,2.654,18.952,7.965c5.118,4.921,7.677,11.143,7.677,18.663c0,7.403-2.599,13.702-7.79,18.895
						C13.758-8.47,7.481-5.873,0.117-5.873 M8.837-24.48v-13.314H5.115v-15.813H-5v15.813h-3.722v13.314
						c0,0.583,0.203,1.076,0.613,1.484c0.406,0.406,0.9,0.61,1.483,0.61H6.744c0.543,0,1.026-0.203,1.453-0.61
						C8.624-23.403,8.837-23.896,8.837-24.48 M-4.477-16.105c0,3.06,1.513,4.593,4.535,4.593c3.025,0,4.535-1.533,4.535-4.593
						c0-3.024-1.509-4.536-4.535-4.536C-2.965-20.641-4.477-19.129-4.477-16.105"/>
				</g>
				<g id="g9979" transform="translate(4896.9019,80.7901)">
					<path id="path9981" inkscape:connector-curvature="0" fill="none" stroke="#000000" stroke-width="0.592" d="M0-0.001h-31.996
						 M10.665-10.665v-31.996 M0,78.21h-31.996 M10.665,88.874v31.996 M99.538,78.21h31.996 M88.877,88.874v31.996 M99.538-0.001
						h31.996 M88.877-10.665v-31.996"/>
				</g>
			</g>
		</g>
	</g>
	<g id="g9983" transform="matrix(0.7026078,0,0,-0.7026078,-2047.1135,1073.3221)">
		<g>
			<defs>
				<rect id="SVGID_3_" x="4577.391" y="96.97" width="45.846" height="45.847"/>
			</defs>
			<clipPath id="SVGID_4_">
				<use xlink:href="#SVGID_3_"  overflow="visible"/>
			</clipPath>
			<g id="g9985" clip-path="url(#SVGID_4_)">
				<g id="g9987" transform="translate(4600.2598,152.9518)">
					<path id="path9989" inkscape:connector-curvature="0" d="M-0.001-0.001c9.109,0,16.862-3.179,23.256-9.536
						c3.062-3.062,5.388-6.56,6.977-10.495c1.589-3.933,2.386-8.11,2.386-12.528c0-4.458-0.786-8.634-2.356-12.529
						c-1.569-3.897-3.888-7.337-6.947-10.32c-3.179-3.14-6.784-5.544-10.815-7.208c-4.031-1.668-8.196-2.501-12.501-2.501
						c-4.301,0-8.42,0.823-12.354,2.471c-3.935,1.646-7.46,4.03-10.582,7.152c-3.122,3.119-5.494,6.637-7.12,10.552
						c-1.629,3.915-2.442,8.043-2.442,12.384c0,4.301,0.823,8.44,2.472,12.413c1.646,3.973,4.038,7.528,7.177,10.669
						C-16.647-3.161-9.03-0.001-0.001-0.001 M0.116-5.873c-7.44,0-13.7-2.597-18.778-7.791c-2.559-2.597-4.525-5.514-5.901-8.751
						c-1.376-3.235-2.066-6.617-2.066-10.144c0-3.49,0.69-6.852,2.066-10.087c1.376-3.237,3.342-6.126,5.901-8.663
						c2.559-2.541,5.444-4.478,8.663-5.814c3.215-1.338,6.587-2.006,10.115-2.006c3.489,0,6.87,0.678,10.146,2.034
						s6.23,3.314,8.866,5.872c5.078,4.961,7.62,11.182,7.62,18.663c0,3.605-0.663,7.015-1.979,10.232
						c-1.316,3.217-3.235,6.084-5.754,8.606C13.78-8.49,7.479-5.873,0.116-5.873 M-0.291-27.153l-4.361-2.266
						c-0.463,0.968-1.036,1.646-1.716,2.034c-0.676,0.386-1.306,0.581-1.889,0.581c-2.905,0-4.358-1.919-4.358-5.756
						c0-1.744,0.366-3.14,1.103-4.186c0.736-1.048,1.823-1.569,3.255-1.569c1.899,0,3.239,0.93,4.015,2.79l4.012-2.036
						c-0.853-1.589-2.036-2.839-3.548-3.75c-1.513-0.911-3.178-1.366-4.998-1.366c-2.909,0-5.254,0.891-7.037,2.674
						c-1.782,1.784-2.675,4.265-2.675,7.443c0,3.1,0.903,5.561,2.705,7.383c1.802,1.823,4.078,2.732,6.83,2.732
						C-4.922-22.444-2.033-24.013-0.291-27.153 M18.488-27.153l-4.301-2.266c-0.463,0.968-1.036,1.646-1.716,2.034
						c-0.676,0.386-1.326,0.581-1.946,0.581c-2.909,0-4.361-1.919-4.361-5.756c0-1.744,0.37-3.14,1.103-4.186
						c0.736-1.048,1.823-1.569,3.259-1.569c1.899,0,3.235,0.93,4.012,2.79l4.068-2.036c-0.893-1.589-2.092-2.839-3.605-3.75
						c-1.509-0.911-3.159-1.366-4.941-1.366c-2.945,0-5.301,0.891-7.063,2.674c-1.763,1.784-2.646,4.265-2.646,7.443
						c0,3.1,0.903,5.561,2.702,7.383c1.802,1.823,4.081,2.732,6.834,2.732C13.916-22.444,16.785-24.013,18.488-27.153"/>
				</g>
				<g id="g9991" transform="translate(4550.543,80.7901)">
					<path id="path9993" inkscape:connector-curvature="0" fill="none" stroke="#000000" stroke-width="0.592" d="M0.002-0.001
						h-31.996 M10.667-10.665v-31.996 M0.002,78.21h-31.996 M10.667,88.874v31.996 M99.54,78.21h31.996 M88.875,88.874v31.996
						 M99.54-0.001h31.996 M88.875-10.665v-31.996"/>
				</g>
			</g>
		</g>
	</g>
	<g id="g9995" transform="matrix(0.7026078,0,0,-0.7026078,-2047.1135,1073.3221)">
		<g>
			<defs>
				<rect id="SVGID_5_" x="4745.999" y="96.97" width="45.848" height="45.847"/>
			</defs>
			<clipPath id="SVGID_6_">
				<use xlink:href="#SVGID_5_"  overflow="visible"/>
			</clipPath>
			<g id="g9997" clip-path="url(#SVGID_6_)">
				<g id="g9999" transform="translate(4768.8687,152.8934)">
					<path id="path10001" inkscape:connector-curvature="0" d="M0.001,0c9.106,0,16.819-3.159,23.14-9.477
						c6.317-6.279,9.476-13.974,9.476-23.081c0-9.109-3.099-16.744-9.302-22.908c-6.55-6.434-14.32-9.651-23.313-9.651
						c-8.799,0-16.436,3.197-22.906,9.592c-6.397,6.395-9.596,14.05-9.596,22.966c0,8.876,3.199,16.569,9.596,23.081
						C-16.588-3.159-8.955,0,0.001,0 M0.118-5.873c-7.407,0-13.664-2.615-18.781-7.848c-5.311-5.389-7.963-11.668-7.963-18.838
						c0-7.248,2.632-13.489,7.906-18.722c5.271-5.273,11.551-7.906,18.838-7.906c7.247,0,13.564,2.654,18.952,7.965
						c5.118,4.961,7.677,11.183,7.677,18.663c0,7.442-2.599,13.722-7.79,18.838C13.798-8.488,7.518-5.873,0.118-5.873
						 M-14.419-27.966c0.62,3.992,2.229,7.083,4.828,9.274c2.596,2.189,5.754,3.285,9.476,3.285c5.114,0,9.186-1.649,12.208-4.943
						c3.025-3.295,4.535-7.52,4.535-12.674c0-5.001-1.569-9.158-4.708-12.471c-3.139-3.315-7.21-4.971-12.211-4.971
						c-3.682,0-6.86,1.104-9.532,3.314c-2.676,2.209-4.285,5.349-4.828,9.419h8.2c0.193-3.955,2.575-5.931,7.15-5.931
						c2.286,0,4.128,0.988,5.524,2.965c1.396,1.977,2.092,4.613,2.092,7.906c0,3.45-0.64,6.076-1.919,7.878
						c-1.279,1.803-3.119,2.704-5.524,2.704c-4.338,0-6.78-1.917-7.323-5.756h2.382l-6.454-6.454l-6.454,6.454H-14.419z"/>
				</g>
				<g id="g10003" transform="translate(4719.1519,80.7901)">
					<path id="path10005" inkscape:connector-curvature="0" fill="none" stroke="#000000" stroke-width="0.592" d="M0-0.001h-31.996
						 M10.665-10.665v-31.996 M0,78.21h-31.996 M10.665,88.874v31.996 M99.539,78.21h31.996 M88.877,88.874v31.996 M99.539-0.001
						h31.996 M88.877-10.665v-31.996"/>
				</g>
			</g>
		</g>
	</g>
	<g id="g10007" transform="matrix(0.7026078,0,0,-0.7026078,-2047.1135,1073.3221)">
		<g>
			<defs>
				<rect id="SVGID_7_" x="4830.304" y="96.97" width="45.846" height="45.847"/>
			</defs>
			<clipPath id="SVGID_8_">
				<use xlink:href="#SVGID_7_"  overflow="visible"/>
			</clipPath>
			<g id="g10009" clip-path="url(#SVGID_8_)">
				<g id="g10011" transform="translate(4853.1729,152.8934)">
					<path id="path10013" inkscape:connector-curvature="0" d="M0.002,0c9.106,0,16.819-3.159,23.14-9.477
						c6.317-6.279,9.476-13.974,9.476-23.081c0-9.109-3.102-16.744-9.302-22.908c-6.55-6.434-14.323-9.651-23.313-9.651
						c-8.803,0-16.436,3.197-22.91,9.592c-6.394,6.395-9.592,14.05-9.592,22.966c0,8.876,3.198,16.569,9.592,23.081
						C-16.59-3.159-8.954,0,0.002,0 M0.116-5.873c-7.403,0-13.661-2.615-18.778-7.848c-5.311-5.389-7.963-11.668-7.963-18.838
						c0-7.248,2.632-13.489,7.903-18.722c5.271-5.273,11.552-7.906,18.838-7.906c7.25,0,13.567,2.654,18.955,7.965
						c5.118,4.961,7.677,11.183,7.677,18.663c0,7.442-2.599,13.722-7.793,18.838C13.799-8.488,7.519-5.873,0.116-5.873
						 M21.339-33.141l0.64-0.292v-9.186l-0.583-0.292l-7.906-3.372l-0.35-0.115l-0.406,0.115l-17.036,7.035l-0.58,0.233l-8.43-3.488
						l-8.316,3.605v8.371l7.793,3.257l-0.06,0.058v9.186l8.836,3.895l19.944-8.256v-8.081L21.339-33.141z M12.094-43.839v5.756
						h-0.057v0.233l-14.943,6.106v-5.931l14.943-6.164v0.058L12.094-43.839z M13.083-36.281l5.231,2.152l-4.825,2.034l-5.118-2.151
						L13.083-36.281z M19.943-41.28v5.639l-5.814-2.442v-5.697L19.943-41.28z"/>
				</g>
				<g id="g10015" transform="translate(4803.4561,80.7901)">
					<path id="path10017" inkscape:connector-curvature="0" fill="none" stroke="#000000" stroke-width="0.592" d="M0.001-0.001
						h-31.996 M10.667-10.665v-31.996 M0.001,78.21h-31.996 M10.667,88.874v31.996 M99.54,78.21h31.995 M88.875,88.874v31.996
						 M99.54-0.001h31.995 M88.875-10.665v-31.996"/>
				</g>
			</g>
		</g>
	</g>
	<g id="g10019" transform="matrix(0.7026078,0,0,-0.7026078,-2047.1135,1073.3221)">
		<g>
			<defs>
				<rect id="SVGID_9_" x="4661.696" y="96.97" width="45.846" height="45.847"/>
			</defs>
			<clipPath id="SVGID_10_">
				<use xlink:href="#SVGID_9_"  overflow="visible"/>
			</clipPath>
			<g id="g10021" clip-path="url(#SVGID_10_)">
				<g id="g10023" transform="translate(4684.5645,152.8934)">
					<path id="path10025" inkscape:connector-curvature="0" d="M0,0c9.109,0,16.822-3.159,23.14-9.477
						c6.317-6.279,9.479-13.974,9.479-23.081c0-9.109-3.102-16.744-9.302-22.908C16.766-61.901,8.993-65.118,0-65.118
						c-8.799,0-16.436,3.197-22.906,9.592c-6.397,6.395-9.596,14.05-9.596,22.966c0,8.876,3.199,16.569,9.596,23.081
						C-16.589-3.159-8.953,0,0,0 M0.116-5.873c-7.403,0-13.664-2.615-18.778-7.848c-5.314-5.389-7.966-11.668-7.966-18.838
						c0-7.248,2.635-13.489,7.906-18.722c5.271-5.273,11.551-7.906,18.838-7.906c7.247,0,13.567,2.654,18.955,7.965
						c5.118,4.961,7.673,11.183,7.673,18.663c0,7.442-2.595,13.722-7.79,18.838C13.797-8.488,7.52-5.873,0.116-5.873 M13.374-23.257
						c0.503,0,0.93-0.173,1.276-0.523c0.35-0.348,0.526-0.776,0.526-1.279v-23.954c0-0.505-0.177-0.93-0.526-1.278
						c-0.346-0.35-0.773-0.525-1.276-0.525H-4.358c-0.506,0-0.933,0.175-1.283,0.525c-0.347,0.348-0.523,0.773-0.523,1.278v7.093
						h-7.09c-0.506,0-0.933,0.175-1.279,0.523c-0.35,0.35-0.526,0.775-0.526,1.279v23.954c0,0.465,0.157,0.861,0.467,1.191
						c0.31,0.33,0.696,0.533,1.163,0.61h0.177H4.478c0.503,0,0.93-0.173,1.279-0.523c0.346-0.348,0.523-0.775,0.523-1.278v-7.093
						H13.374z M-11.512-38.373h5.348v13.314c0,0.465,0.157,0.863,0.467,1.191c0.31,0.33,0.676,0.533,1.106,0.611h0.233h7.09v5.291
						h-14.244V-38.373z M11.628-26.803H-2.616v-20.407h14.244V-26.803z"/>
				</g>
				<g id="g10027" transform="translate(4634.8477,80.7901)">
					<path id="path10029" inkscape:connector-curvature="0" fill="none" stroke="#000000" stroke-width="0.592" d="M-0.001-0.001
						h-31.992 M10.664-10.665v-31.996 M-0.001,78.21h-31.992 M10.664,88.874v31.996 M99.541,78.21h31.996 M88.876,88.874v31.996
						 M99.541-0.001h31.996 M88.876-10.665v-31.996"/>
				</g>
			</g>
		</g>
	</g>
</g>
<g id="text2993" transform="translate(-54.489215,-280.29548)" inkscape:export-filename="/Users/massimomenichinelli/Dropbox/openp2pdesign.org/2013/Cava dei Tirreni/toolkit/logo.png" inkscape:export-xdpi="100.01622" inkscape:export-ydpi="100.01622">
	<path id="path2998" inkscape:connector-curvature="0" d="M102.586,358.348c-1.68,0-3.264-0.312-4.752-0.936
		c-1.44-0.624-2.712-1.488-3.816-2.592c-1.104-1.104-1.968-2.376-2.592-3.816c-0.624-1.488-0.936-3.072-0.936-4.752v-24.48
		c0-1.68,0.312-3.239,0.936-4.68c0.624-1.488,1.488-2.784,2.592-3.888c1.104-1.104,2.376-1.968,3.816-2.593
		c1.488-0.623,3.072-0.936,4.752-0.936c1.68,0,3.24,0.313,4.68,0.936c1.488,0.625,2.784,1.488,3.888,2.593
		c1.104,1.104,1.968,2.399,2.592,3.888c0.624,1.44,0.936,3,0.936,4.68v24.48c0,1.68-0.312,3.264-0.936,4.752
		c-0.624,1.439-1.488,2.712-2.592,3.816c-1.104,1.104-2.4,1.968-3.888,2.592C105.825,358.036,104.265,358.348,102.586,358.348
		 M102.586,316.588c-1.44,0-2.664,0.504-3.672,1.512c-1.008,1.008-1.512,2.232-1.512,3.672v24.48c0,1.439,0.504,2.664,1.512,3.672
		c1.008,1.008,2.232,1.512,3.672,1.512c1.44,0,2.664-0.504,3.672-1.512c1.008-1.008,1.512-2.232,1.512-3.672v-24.48
		c0-1.439-0.504-2.664-1.512-3.672C105.249,317.092,104.025,316.588,102.586,316.588"/>
	<path id="path3000" inkscape:connector-curvature="0" d="M124.622,372.532c-0.912,0-1.68-0.313-2.304-0.937
		s-0.936-1.392-0.936-2.304V326.38c0-0.912,0.312-1.68,0.936-2.304s1.392-0.937,2.304-0.937h7.2c1.44,0,2.784,0.288,4.032,0.864
		c1.296,0.528,2.4,1.272,3.312,2.232c0.96,0.911,1.704,2.016,2.232,3.312c0.576,1.248,0.864,2.592,0.864,4.032v13.824
		c0,1.439-0.288,2.808-0.864,4.104c-0.528,1.248-1.272,2.353-2.232,3.313c-0.912,0.911-2.016,1.632-3.312,2.159
		c-1.248,0.576-2.592,0.864-4.032,0.864h-3.96v11.448c0,0.912-0.312,1.68-0.936,2.304S125.534,372.532,124.622,372.532
		 M135.782,333.58c0-1.104-0.384-2.04-1.152-2.809c-0.768-0.768-1.704-1.151-2.808-1.151h-3.96v21.744h3.96
		c1.104,0,2.04-0.385,2.808-1.152s1.152-1.704,1.152-2.808V333.58"/>
	<path id="path3002" inkscape:connector-curvature="0" d="M154.982,357.34c-2.016-0.816-3.6-2.088-4.752-3.816
		c-1.152-1.728-1.728-3.672-1.728-5.832v-14.399c0-1.44,0.264-2.784,0.792-4.032c0.576-1.296,1.32-2.399,2.232-3.312
		c0.96-0.96,2.064-1.704,3.312-2.232c1.296-0.576,2.664-0.864,4.104-0.864c1.44,0,2.784,0.288,4.032,0.864
		c1.296,0.528,2.4,1.272,3.312,2.232c0.96,0.911,1.704,2.016,2.232,3.312c0.576,1.248,0.864,2.592,0.864,4.032v7.2
		c0,0.912-0.312,1.68-0.936,2.304s-1.392,0.936-2.304,0.936h-11.16v3.96c0,0.816,0.216,1.561,0.648,2.232
		c0.432,0.624,1.032,1.104,1.8,1.44c0.768,0.288,1.536,0.359,2.304,0.216c0.768-0.145,1.44-0.504,2.016-1.08
		c0.624-0.672,1.368-1.008,2.232-1.008c0.912,0,1.704,0.336,2.376,1.008c0.624,0.672,0.936,1.439,0.936,2.304
		s-0.312,1.632-0.936,2.304c-1.536,1.488-3.336,2.425-5.4,2.809C158.942,358.348,156.95,358.156,154.982,357.34 M158.942,329.332
		c-1.104,0-2.04,0.384-2.808,1.151c-0.768,0.769-1.152,1.704-1.152,2.809v3.96h7.92v-3.96c0-1.104-0.384-2.04-1.152-2.809
		C160.982,329.716,160.046,329.332,158.942,329.332"/>
	<path id="path3004" inkscape:connector-curvature="0" d="M179.044,358.132c-0.912,0-1.68-0.312-2.304-0.936
		s-0.936-1.393-0.936-2.305V326.38c0-0.912,0.312-1.68,0.936-2.304s1.392-0.937,2.304-0.937h7.2c1.44,0,2.784,0.288,4.032,0.864
		c1.296,0.528,2.4,1.272,3.312,2.232c0.96,0.911,1.704,2.016,2.232,3.312c0.576,1.248,0.864,2.592,0.864,4.032v21.312
		c0,0.912-0.336,1.681-1.008,2.305c-0.624,0.624-1.368,0.936-2.232,0.936c-0.912,0-1.68-0.312-2.304-0.936s-0.936-1.393-0.936-2.305
		V333.58c0-1.104-0.384-2.04-1.152-2.809c-0.768-0.768-1.704-1.151-2.808-1.151h-3.96v25.271c0,0.912-0.336,1.681-1.008,2.305
		C180.652,357.82,179.908,358.132,179.044,358.132"/>
	<path id="path3006" inkscape:connector-curvature="0" d="M221.09,358.348c-0.96,0-1.776-0.336-2.448-1.008
		s-1.008-1.488-1.008-2.448v-41.76c0-0.816,0.24-1.536,0.72-2.16s1.128-1.032,1.944-1.224c0.816-0.192,1.584-0.097,2.304,0.288
		c0.72,0.336,1.248,0.888,1.584,1.655c0.96,2.112,1.944,4.2,2.952,6.265c0.816,1.824,1.728,3.768,2.736,5.832
		c1.008,2.016,1.92,3.912,2.736,5.688c0.816-1.775,1.704-3.672,2.664-5.688c1.008-2.064,1.92-4.008,2.736-5.832
		c0.96-2.064,1.944-4.152,2.952-6.265c0.384-0.768,0.912-1.319,1.584-1.655c0.72-0.384,1.488-0.48,2.304-0.288
		c0.816,0.191,1.464,0.6,1.944,1.224c0.528,0.624,0.792,1.344,0.792,2.16v41.76c0,0.96-0.336,1.776-1.008,2.448
		c-0.672,0.672-1.488,1.008-2.448,1.008s-1.776-0.336-2.448-1.008c-0.672-0.672-1.008-1.488-1.008-2.448v-26.279
		c-0.624,1.296-1.224,2.567-1.8,3.815s-1.104,2.353-1.584,3.313c-0.528,1.151-1.056,2.256-1.584,3.312
		c-0.288,0.624-0.72,1.128-1.296,1.512c-0.528,0.337-1.128,0.505-1.8,0.505c-1.488,0-2.544-0.673-3.168-2.017
		c-0.528-1.056-1.056-2.16-1.584-3.312c-0.48-0.96-1.008-2.064-1.584-3.313s-1.152-2.52-1.728-3.815v26.279
		c0,0.96-0.336,1.776-1.008,2.448S222.05,358.348,221.09,358.348"/>
	<path id="path3008" inkscape:connector-curvature="0" d="M260.873,357.34c-2.016-0.816-3.6-2.088-4.752-3.816
		c-1.152-1.728-1.728-3.672-1.728-5.832v-14.399c0-1.44,0.264-2.784,0.792-4.032c0.576-1.296,1.32-2.399,2.232-3.312
		c0.96-0.96,2.064-1.704,3.312-2.232c1.296-0.576,2.664-0.864,4.104-0.864c1.44,0,2.784,0.288,4.032,0.864
		c1.296,0.528,2.4,1.272,3.312,2.232c0.96,0.911,1.704,2.016,2.232,3.312c0.576,1.248,0.864,2.592,0.864,4.032v7.2
		c0,0.912-0.312,1.68-0.936,2.304s-1.392,0.936-2.304,0.936h-11.16v3.96c0,0.816,0.216,1.561,0.648,2.232
		c0.432,0.624,1.032,1.104,1.8,1.44c0.768,0.288,1.536,0.359,2.304,0.216c0.768-0.145,1.44-0.504,2.016-1.08
		c0.624-0.672,1.368-1.008,2.232-1.008c0.912,0,1.704,0.336,2.376,1.008c0.624,0.672,0.936,1.439,0.936,2.304
		s-0.312,1.632-0.936,2.304c-1.536,1.488-3.336,2.425-5.4,2.809C264.833,358.348,262.841,358.156,260.873,357.34 M264.833,329.332
		c-1.104,0-2.04,0.384-2.808,1.151c-0.768,0.769-1.152,1.704-1.152,2.809v3.96h7.92v-3.96c0-1.104-0.384-2.04-1.152-2.809
		C266.873,329.716,265.937,329.332,264.833,329.332"/>
	<path id="path3010" inkscape:connector-curvature="0" d="M281.766,329.62c-0.912,0-1.68-0.313-2.304-0.937
		s-0.936-1.392-0.936-2.304s0.312-1.68,0.936-2.304s1.392-0.937,2.304-0.937h2.52v-11.448c0-0.911,0.312-1.68,0.936-2.304
		s1.392-0.936,2.304-0.936c0.912,0,1.68,0.312,2.304,0.936s0.936,1.393,0.936,2.304v11.448h3.96c0.912,0,1.68,0.313,2.304,0.937
		s0.936,1.392,0.936,2.304s-0.312,1.68-0.936,2.304s-1.392,0.937-2.304,0.937h-3.96v18.071c0,1.104,0.384,2.04,1.152,2.809
		c0.768,0.768,1.704,1.152,2.808,1.152c0.912,0,1.68,0.312,2.304,0.936s0.936,1.392,0.936,2.304s-0.312,1.681-0.936,2.305
		s-1.392,0.936-2.304,0.936c-1.44,0-2.808-0.288-4.104-0.864c-1.248-0.527-2.352-1.248-3.312-2.16
		c-0.912-0.96-1.656-2.063-2.232-3.312c-0.528-1.296-0.792-2.664-0.792-4.104V329.62H281.766L281.766,329.62"/>
	<path id="path3012" inkscape:connector-curvature="0" d="M314.589,336.964v-3.816c0-0.768-0.216-1.464-0.648-2.088
		c-0.432-0.672-1.008-1.151-1.728-1.439c-0.72-0.288-1.464-0.36-2.232-0.216c-0.768,0.144-1.416,0.504-1.944,1.079
		c-0.624,0.624-1.392,0.937-2.304,0.937c-0.864,0-1.608-0.313-2.232-0.937c-0.672-0.672-1.008-1.439-1.008-2.304
		s0.336-1.632,1.008-2.304c1.488-1.488,3.24-2.424,5.256-2.809c2.016-0.432,3.984-0.239,5.904,0.576
		c1.968,0.816,3.528,2.088,4.68,3.816c1.152,1.68,1.728,3.576,1.728,5.688v21.456c0,0.912-0.312,1.681-0.936,2.305
		s-1.392,0.936-2.304,0.936h-7.2c-1.44,0-2.808-0.288-4.104-0.864c-1.248-0.527-2.352-1.248-3.312-2.16
		c-0.912-0.96-1.656-2.063-2.232-3.312c-0.528-1.296-0.792-2.664-0.792-4.104c0-1.439,0.264-2.783,0.792-4.031
		c0.576-1.296,1.32-2.4,2.232-3.313c0.96-0.96,2.064-1.704,3.312-2.231c1.296-0.576,2.664-0.864,4.104-0.864H314.589
		 M310.629,343.443c-1.104,0-2.04,0.385-2.808,1.152s-1.152,1.704-1.152,2.808c0,1.104,0.384,2.04,1.152,2.809
		c0.768,0.768,1.704,1.152,2.808,1.152h3.96v-7.921H310.629"/>
	<path id="path3014" inkscape:connector-curvature="0" d="M340.262,309.964c1.68,0,3.24,0.313,4.68,0.936
		c1.488,0.624,2.784,1.488,3.888,2.593c1.104,1.104,1.968,2.399,2.592,3.888c0.624,1.44,0.936,3,0.936,4.68v23.904
		c0,1.68-0.312,3.264-0.936,4.752c-0.624,1.44-1.488,2.712-2.592,3.816c-1.104,1.104-2.4,1.968-3.888,2.592
		c-1.44,0.624-3,0.936-4.68,0.936h-8.64c-0.96,0-1.776-0.336-2.448-1.008s-1.008-1.488-1.008-2.448V313.42
		c0-0.96,0.336-1.776,1.008-2.448s1.488-1.008,2.448-1.008H340.262 M345.446,322.06c0-1.439-0.504-2.664-1.512-3.672
		c-1.008-1.008-2.232-1.512-3.672-1.512h-5.184v34.271h5.184c1.44,0,2.664-0.504,3.672-1.512c1.008-1.008,1.512-2.231,1.512-3.672
		V322.06"/>
	<path id="path3016" inkscape:connector-curvature="0" d="M364.795,357.34c-2.017-0.816-3.601-2.088-4.752-3.816
		c-1.152-1.728-1.729-3.672-1.729-5.832v-14.399c0-1.44,0.264-2.784,0.792-4.032c0.576-1.296,1.32-2.399,2.232-3.312
		c0.96-0.96,2.063-1.704,3.312-2.232c1.296-0.576,2.664-0.864,4.104-0.864c1.439,0,2.784,0.288,4.032,0.864
		c1.296,0.528,2.399,1.272,3.312,2.232c0.96,0.911,1.704,2.016,2.232,3.312c0.575,1.248,0.863,2.592,0.863,4.032v7.2
		c0,0.912-0.312,1.68-0.936,2.304s-1.393,0.936-2.304,0.936h-11.16v3.96c0,0.816,0.216,1.561,0.647,2.232
		c0.433,0.624,1.032,1.104,1.8,1.44c0.769,0.288,1.536,0.359,2.305,0.216c0.768-0.145,1.439-0.504,2.016-1.08
		c0.624-0.672,1.368-1.008,2.232-1.008c0.912,0,1.704,0.336,2.376,1.008c0.624,0.672,0.936,1.439,0.936,2.304
		s-0.312,1.632-0.936,2.304c-1.536,1.488-3.336,2.425-5.4,2.809C368.755,358.348,366.763,358.156,364.795,357.34 M368.755,329.332
		c-1.104,0-2.04,0.384-2.809,1.151c-0.768,0.769-1.151,1.704-1.151,2.809v3.96h7.92v-3.96c0-1.104-0.385-2.04-1.152-2.809
		C370.795,329.716,369.858,329.332,368.755,329.332"/>
	<path id="path3018" inkscape:connector-curvature="0" d="M395.408,350.716c0.864-0.72,1.248-1.656,1.152-2.808
		c-0.097-1.2-0.576-2.088-1.44-2.664l-6.768-4.681c-1.2-0.863-2.16-1.92-2.881-3.168c-0.72-1.296-1.128-2.688-1.224-4.176
		s0.12-2.904,0.648-4.248c0.575-1.392,1.416-2.592,2.52-3.6c1.104-0.96,2.353-1.656,3.744-2.088c1.392-0.433,2.832-0.528,4.32-0.288
		c1.439,0.24,2.76,0.768,3.96,1.584c1.199,0.815,2.184,1.872,2.952,3.168c0.432,0.768,0.527,1.584,0.287,2.448
		c-0.191,0.863-0.695,1.512-1.512,1.943c-0.768,0.433-1.584,0.552-2.448,0.36c-0.863-0.24-1.512-0.744-1.943-1.512
		c-0.528-0.912-1.296-1.44-2.305-1.584c-0.96-0.192-1.848,0.071-2.663,0.792c-0.816,0.672-1.177,1.535-1.08,2.592
		c0.096,1.008,0.552,1.824,1.367,2.447l6.696,4.681c1.248,0.912,2.232,2.016,2.952,3.312c0.768,1.296,1.2,2.712,1.296,4.248
		s-0.144,3-0.72,4.393c-0.528,1.392-1.368,2.615-2.521,3.672c-1.104,1.008-2.376,1.728-3.815,2.16
		c-1.44,0.432-2.929,0.527-4.464,0.288c-1.536-0.24-2.929-0.769-4.177-1.585c-1.199-0.863-2.184-1.968-2.951-3.312
		c-0.433-0.768-0.553-1.584-0.36-2.448c0.24-0.863,0.744-1.512,1.512-1.943c0.816-0.433,1.656-0.528,2.521-0.288
		c0.863,0.191,1.512,0.672,1.943,1.439c0.528,1.008,1.368,1.584,2.521,1.729C393.584,351.771,394.544,351.483,395.408,350.716"/>
	<path id="path3020" inkscape:connector-curvature="0" d="M412.482,319.252c-1.104,0-2.04-0.384-2.809-1.152
		c-0.768-0.768-1.151-1.704-1.151-2.808c0-1.104,0.384-2.04,1.151-2.809c0.769-0.768,1.704-1.151,2.809-1.151
		c1.104,0,2.04,0.384,2.808,1.151c0.768,0.769,1.152,1.704,1.152,2.809c0,1.104-0.385,2.04-1.152,2.808
		C414.522,318.868,413.585,319.252,412.482,319.252 M415.721,354.892c0,0.912-0.312,1.681-0.936,2.305s-1.392,0.936-2.304,0.936
		s-1.681-0.312-2.305-0.936s-0.936-1.393-0.936-2.305v-28.8c0-0.912,0.312-1.68,0.936-2.304s1.393-0.937,2.305-0.937
		s1.68,0.313,2.304,0.937s0.936,1.392,0.936,2.304V354.892"/>
	<path id="path3022" inkscape:connector-curvature="0" d="M433.161,357.844c-1.44,0-2.809-0.288-4.104-0.864
		c-1.248-0.527-2.352-1.248-3.312-2.159c-0.912-0.961-1.656-2.064-2.232-3.313c-0.528-1.296-0.792-2.664-0.792-4.104V333.58
		c0-1.44,0.264-2.784,0.792-4.032c0.576-1.296,1.32-2.4,2.232-3.313c0.96-0.96,2.063-1.703,3.312-2.231
		c1.296-0.576,2.664-0.864,4.104-0.864h7.2c0.911,0,1.68,0.313,2.304,0.937s0.936,1.392,0.936,2.304v35.712
		c0,2.16-0.576,4.104-1.728,5.832c-1.152,1.728-2.712,3-4.68,3.816c-2.017,0.815-4.057,1.008-6.12,0.575
		c-2.017-0.384-3.769-1.319-5.257-2.808c-0.672-0.672-1.008-1.44-1.008-2.304c0-0.864,0.336-1.632,1.008-2.305
		c0.624-0.672,1.368-1.008,2.232-1.008c0.912,0,1.68,0.336,2.304,1.008c0.576,0.576,1.248,0.937,2.017,1.08
		c0.815,0.145,1.584,0.072,2.304-0.216c0.768-0.336,1.368-0.84,1.8-1.512c0.432-0.624,0.648-1.344,0.648-2.16v-4.248H433.161
		 M433.161,329.62c-1.104,0-2.04,0.384-2.809,1.151c-0.768,0.769-1.151,1.704-1.151,2.809v13.824c0,1.104,0.384,2.039,1.151,2.808
		c0.769,0.768,1.704,1.152,2.809,1.152h3.96V329.62H433.161"/>
	<path id="path3024" inkscape:connector-curvature="0" d="M454.388,358.132c-0.912,0-1.681-0.312-2.305-0.936
		s-0.936-1.393-0.936-2.305V326.38c0-0.912,0.312-1.68,0.936-2.304s1.393-0.937,2.305-0.937h7.199c1.44,0,2.784,0.288,4.032,0.864
		c1.296,0.528,2.4,1.272,3.313,2.232c0.96,0.911,1.704,2.016,2.231,3.312c0.576,1.248,0.864,2.592,0.864,4.032v21.312
		c0,0.912-0.336,1.681-1.008,2.305c-0.624,0.624-1.368,0.936-2.232,0.936c-0.912,0-1.68-0.312-2.304-0.936s-0.936-1.393-0.936-2.305
		V333.58c0-1.104-0.385-2.04-1.152-2.809c-0.769-0.768-1.704-1.151-2.808-1.151h-3.961v25.271c0,0.912-0.336,1.681-1.008,2.305
		C455.995,357.82,455.251,358.132,454.388,358.132"/>
</g>
<text transform="matrix(1 0 0 1 494.0226 77.9526)" font-family="'TitilliumText25L-600wt'" font-size="40">System Map</text>
<text transform="matrix(1 0 0 1 425.1964 77.9526)" font-family="'TitilliumText25L-600wt'" font-size="20">0.1</text>
<rect id="rect25259" x="29.041" y="113.386" fill="#F6F6F6" stroke="#000000" stroke-width="1.7908" stroke-linejoin="round" width="1417.323" height="832.677"/>
<text transform="matrix(1 0 0 1 35.4323 1008.9291)" font-family="'TitilliumText25L-600wt'" font-size="14">Designed by:</text>
<text transform="matrix(1 0 0 1 36.7623 973.4955)" font-family="'TitilliumText25L-600wt'" font-size="14">Project:</text>
<text transform="matrix(1 0 0 1 407.4801 973.4955)" font-family="'TitilliumText25L-600wt'" font-size="14">Link:</text>
<text transform="matrix(1 0 0 1 406.6769 1008.9291)" font-family="'TitilliumText25L-600wt'" font-size="14">Designed for:</text>
<path id="path25277" inkscape:connector-curvature="0" sodipodi:nodetypes="cc" fill="none" stroke="#CFCFCF" stroke-width="1.4127" stroke-dasharray="1.4127,4.238" d="
	M90.619,973.496c246.404,0,299.145,0,299.145,0"/>
<path id="path25279" inkscape:connector-curvature="0" sodipodi:nodetypes="cc" fill="none" stroke="#CFCFCF" stroke-width="1.5027" stroke-dasharray="1.5027,4.508" d="
	M442.865,973.496c298.713,0,318.946,0,318.946,0"/>
<path id="path25281" inkscape:connector-curvature="0" sodipodi:nodetypes="cc" fill="none" stroke="#CFCFCF" stroke-width="1.3717" stroke-dasharray="1.3717,4.1152" d="
	M121.692,1008.929c232.333,0,268.072,0,268.072,0"/>
<path id="path25301" inkscape:connector-curvature="0" sodipodi:nodetypes="cc" fill="none" stroke="#CFCFCF" stroke-width="1.3717" stroke-dasharray="1.3717,4.1152" d="
	M495.239,1008.929c232.333,0,267.929,0,267.929,0"/>
<a id="layer1" xlink:href="http://creativecommons.org/licenses/by-sa/3.0/"  transform="translate(0,2.988066e-5)" xlink:title="CC BY-SA" inkscape:label="Layout" inkscape:groupmode="layer">
	
		<a id="a3150" xlink:href="http://www.mepss.nl/index.php?p=tool&amp;l4=W21"  xlink:title="http://www.mepss.nl/index.php?p=tool&amp;l4=W21">
		<text transform="matrix(1.7791 0 0 1.7791 -250.1769 834.9479)" font-family="'TitilliumText25L-250wt'" font-size="9">Original development of the System Map: http://www.mepss.nl/index.php?p=tool&amp;l4=W21</text>
	</a>
	<text transform="matrix(1.7791 0 0 1.7791 189.6051 -468.0651)" font-family="'TitilliumText25L-800wt'" font-size="15">Boundaries of the Activity</text>
</a>
<rect id="rect3155" x="270.512" y="240.786" fill="#FFFFFF" stroke="#000000" stroke-width="7.0866" width="1041.842" height="457.246"/>
<g id="layer2" inkscape:label="Editable text" inkscape:groupmode="layer">
	<text transform="matrix(1 0 0 1 119.6705 1008.9291)" enable-background="new    "><tspan x="0" y="0" font-family="'TitilliumText25L-250wt'" font-size="14">Chao Zhuang</tspan><tspan x="79.491" y="0" font-family="'AdobeSongStd-Light-GBpc-EUC-H'" font-size="14">,</tspan><tspan x="82.822" y="0" font-family="'TitilliumText25L-250wt'" font-size="14">Tomi Koponen, </tspan><tspan x="0" y="16.8" font-family="'TitilliumText25L-250wt'" font-size="14">Katariina Kunnaton, Andreas Ahlbäck</tspan></text>
	<text transform="matrix(1 0 0 1 88.5826 973.4955)" font-family="'TitilliumText25L-250wt'" font-size="14">Why is Chemistry _______?</text>
	<text transform="matrix(1 0 0 1 440.8927 973.4955)" font-family="'TitilliumText25L-250wt'" font-size="14">http://www.google.com</text>
	<text transform="matrix(1 0 0 1 493.8112 1008.9291)" font-family="'TitilliumText25L-250wt'" font-size="14">Organization</text>
</g>
<g>
	
		<rect id="rect5744" x="-406.017" y="699.703" opacity="0.5" fill="#FFFFFF" stroke="#797979" stroke-width="4.0422" stroke-dasharray="4.0422,8.0843" enable-background="new    " width="363.794" height="215.582"/>
	<path id="path4266" stroke="#000000" d="M-317.093,787.345l-18.39,10.63v-21.26L-317.093,787.345z"/>
	<path id="path4112" inkscape:connector-curvature="0" stroke="#000000" d="M-329.359,787.345"/>
	<path id="path4266_1_" fill="#828282" d="M-317.093,865.927l-18.39,10.63v-21.26L-317.093,865.927z"/>
	<path id="path4932" inkscape:connector-curvature="0" opacity="0.5" stroke="#000000" enable-background="new    " d="
		M-329.359,865.927"/>
	<text transform="matrix(1 0 0 1 -384.599 732.3823)" font-family="'TitilliumText25L-800wt'" font-size="11">Material flow</text>
	<path id="path4203" stroke="#000000" d="M-198.536,781.298l-5.011,5.012l5.011,5.011l5.011-5.011L-198.536,781.298z"/>
	<path id="path4934" inkscape:connector-curvature="0" stroke="#000000" d="M-198.536,786.31"/>
	<path id="path4203_1_" fill="#828282" d="M-198.536,859.881l-5.011,5.011l5.011,5.012l5.011-5.012L-198.536,859.881z"/>
	<path id="path4936" inkscape:connector-curvature="0" opacity="0.5" stroke="#000000" enable-background="new    " d="
		M-198.536,864.892"/>
	<text transform="matrix(1 0 0 1 -263.4955 732.3823)" font-family="'TitilliumText25L-800wt'" font-size="11">Information flow</text>
	<path id="path4185" stroke="#000000" d="M-64.569,786.238c0,2.934-2.381,5.314-5.314,5.314s-5.315-2.381-5.315-5.314
		s2.382-5.315,5.315-5.315S-64.569,783.304-64.569,786.238z"/>
	<path id="path4938" inkscape:connector-curvature="0" stroke="#000000" d="M-69.777,786.238"/>
	<path id="path4185_1_" fill="#828282" d="M-64.569,864.82c0,2.935-2.381,5.315-5.314,5.315s-5.315-2.381-5.315-5.315
		c0-2.934,2.382-5.314,5.315-5.314S-64.569,861.886-64.569,864.82z"/>
	<path id="path4940" inkscape:connector-curvature="0" opacity="0.5" stroke="#000000" enable-background="new    " d="
		M-69.777,864.82"/>
	<text transform="matrix(1 0 0 1 -128.3217 732.3823)" font-family="'TitilliumText25L-800wt'" font-size="11">Financial flow</text>
	<text transform="matrix(1 0 0 1 -372.8412 810.3823)" font-family="'TitilliumText25L-400wt'" font-size="10">Core flow</text>
	<text transform="matrix(1 0 0 1 -243.4877 810.3823)" font-family="'TitilliumText25L-400wt'" font-size="10">Core flow</text>
	<text transform="matrix(1 0 0 1 -114.9633 810.3823)" font-family="'TitilliumText25L-400wt'" font-size="10">Core flow</text>
	<text transform="matrix(1 0 0 1 -387.85 890.3823)" font-family="'TitilliumText25L-400wt'" font-size="10">Back-office flow</text>
	<text transform="matrix(1 0 0 1 -258.4974 890.3823)" font-family="'TitilliumText25L-400wt'" font-size="10">Back-office flow</text>
	<text transform="matrix(1 0 0 1 -129.973 890.3823)" font-family="'TitilliumText25L-400wt'" font-size="10">Back-office flow</text>
	<polyline fill="none" stroke="#000000" stroke-width="9" stroke-miterlimit="10" points="-365.972,758.744 -365.972,787.345 
		-329.359,787.345 	"/>
	<g>
		<g>
			
				<line fill="none" stroke="#000000" stroke-width="2" stroke-miterlimit="10" x1="-235.148" y1="757.708" x2="-235.148" y2="758.708"/>
			
				<line fill="none" stroke="#000000" stroke-width="2" stroke-miterlimit="10" stroke-dasharray="2.0463,2.0463" x1="-235.148" y1="760.754" x2="-235.148" y2="784.287"/>
			<polyline fill="none" stroke="#000000" stroke-width="2" stroke-miterlimit="10" points="-235.148,785.31 -235.148,786.31 
				-234.148,786.31 			"/>
			
				<line fill="none" stroke="#000000" stroke-width="2" stroke-miterlimit="10" stroke-dasharray="2.036,2.036" x1="-232.112" y1="786.31" x2="-200.554" y2="786.31"/>
			
				<line fill="none" stroke="#000000" stroke-width="2" stroke-miterlimit="10" x1="-199.536" y1="786.31" x2="-198.536" y2="786.31"/>
		</g>
	</g>
	
		<polyline fill="none" stroke="#000000" stroke-width="2" stroke-linecap="round" stroke-linejoin="round" stroke-miterlimit="10" points="
		-106.496,757.708 -106.496,786.31 -69.884,786.31 	"/>
	<path id="path4203_2_" stroke="#000000" d="M311.921,853.433l0.001,7.087h7.086l0-7.086L311.921,853.433z"/>
	<path id="path4934_1_" inkscape:connector-curvature="0" stroke="#000000" d="M315.464,856.977"/>
	<text transform="matrix(1 0 0 1 250.504 803.0493)" font-family="'TitilliumText25L-800wt'" font-size="11">Information flow</text>
	<path id="path4185_2_" fill="#EF0039" d="M449.431,856.905c0,2.934-2.381,5.314-5.314,5.314s-5.315-2.381-5.315-5.314
		s2.382-5.315,5.315-5.315S449.431,853.971,449.431,856.905z"/>
	<path id="path4938_1_" inkscape:connector-curvature="0" stroke="#000000" d="M444.223,856.905"/>
	<text transform="matrix(1 0 0 1 385.6779 803.0493)" font-family="'TitilliumText25L-800wt'" font-size="11">Financial flow</text>
	<text transform="matrix(1 0 0 1 270.5118 881.0493)" font-family="'TitilliumText25L-400wt'" font-size="10">Core flow</text>
	<text transform="matrix(1 0 0 1 399.0367 881.0493)" font-family="'TitilliumText25L-400wt'" font-size="10">Core flow</text>
	<polyline fill="none" stroke="#000000" stroke-width="2" stroke-miterlimit="10" points="278.852,828.375 278.852,856.977 
		315.464,856.977 	"/>
	
		<polyline fill="none" stroke="#EF0039" stroke-width="2" stroke-linecap="round" stroke-linejoin="round" stroke-miterlimit="10" points="
		407.504,828.375 407.504,856.977 444.116,856.977 	"/>
	<polyline fill="none" stroke="#828282" stroke-width="9" stroke-miterlimit="10" points="-365.972,837.326 -365.972,865.927 
		-329.359,865.927 	"/>
	<g>
		<g>
			
				<line fill="none" stroke="#828282" stroke-width="2" stroke-miterlimit="10" x1="-235.148" y1="836.29" x2="-235.148" y2="837.29"/>
			
				<line fill="none" stroke="#828282" stroke-width="2" stroke-miterlimit="10" stroke-dasharray="2.0463,2.0463" x1="-235.148" y1="839.336" x2="-235.148" y2="862.869"/>
			<polyline fill="none" stroke="#828282" stroke-width="2" stroke-miterlimit="10" points="-235.148,863.892 -235.148,864.892 
				-234.148,864.892 			"/>
			
				<line fill="none" stroke="#828282" stroke-width="2" stroke-miterlimit="10" stroke-dasharray="2.036,2.036" x1="-232.112" y1="864.892" x2="-200.554" y2="864.892"/>
			
				<line fill="none" stroke="#828282" stroke-width="2" stroke-miterlimit="10" x1="-199.536" y1="864.892" x2="-198.536" y2="864.892"/>
		</g>
	</g>
	
		<polyline fill="none" stroke="#828282" stroke-width="2" stroke-linecap="round" stroke-linejoin="round" stroke-miterlimit="10" points="
		-106.496,836.29 -106.496,864.892 -69.884,864.892 	"/>
</g>
<g>
	<g>
		<rect x="528.975" y="623.599" width="80.977" height="39.477"/>
		<polyline points="528.975,623.599 569.464,609.428 609.952,623.599 		"/>
	</g>
	<g>
		<text transform="matrix(1 0 0 1 544.4347 648.0502)" fill="#FFFFFF" font-family="'TitilliumText25L-800wt'" font-size="12.1467">University</text>
	</g>
</g>
<g>
	<g>
		<rect x="661.337" y="630.313" width="48.908" height="32.763"/>
		<polyline points="661.337,630.313 685.791,621.153 710.245,630.313 		"/>
	</g>
	<g>
		<text transform="matrix(1 0 0 1 668.5065 647.9321)" fill="#FFFFFF" font-family="'TitilliumText25L-800wt'" font-size="12.1467">School</text>
	</g>
</g>
<g>
	<text transform="matrix(1 0 0 1 1258.0143 182.4584)"><tspan x="0" y="0" font-family="'TitilliumText25L-800wt'" font-size="16.1747">Government </tspan><tspan x="0" y="19.41" font-family="'TitilliumText25L-800wt'" font-size="16.1747">Departments</tspan></text>
</g>
<g>
	<g>
		<text transform="matrix(1 0 0 1 1040.4615 635.1889)" font-family="'TitilliumText25L-800wt'" font-size="12.1467">Professionals</text>
	</g>
	<g>
		<g>
			<path fill="#686868" d="M1081.547,616.029c-2.309,0-4.18,1.871-4.18,4.18h8.359
				C1085.727,617.9,1083.856,616.029,1081.547,616.029z"/>
			<circle fill="#686868" cx="1081.638" cy="612.92" r="2.661"/>
		</g>
		<g>
			<path d="M1073.241,615.769c-3.461,0-6.27,2.807-6.27,6.269h12.537C1079.508,618.576,1076.702,615.769,1073.241,615.769z"/>
			<circle cx="1073.377" cy="611.106" r="3.991"/>
		</g>
	</g>
</g>
<g>
	<g>
		<text transform="matrix(1 0 0 1 1160.0768 557.6703)" font-family="'TitilliumText25L-800wt'" font-size="12.1467">Voluntary</text>
	</g>
	<g>
		<g>
			<path fill="#686868" d="M1189.163,538.51c-2.309,0-4.18,1.871-4.18,4.18h8.359C1193.342,540.381,1191.471,538.51,1189.163,538.51
				z"/>
			<circle fill="#686868" cx="1189.254" cy="535.402" r="2.661"/>
		</g>
		<g>
			<path d="M1180.856,538.25c-3.461,0-6.27,2.807-6.27,6.269h12.537C1187.124,541.057,1184.317,538.25,1180.856,538.25z"/>
			<circle cx="1180.992" cy="533.587" r="3.991"/>
		</g>
	</g>
</g>
<g>
	<g>
		<text transform="matrix(1 0 0 1 866.0944 203.644)" font-family="'TitilliumText25L-800wt'" font-size="12.1467">General Public</text>
	</g>
	<g>
		<g>
			<path fill="#686868" d="M912.02,179.029c-2.309,0-4.18,1.871-4.18,4.18h8.359C916.2,180.9,914.327,179.029,912.02,179.029z"/>
			<circle fill="#686868" cx="912.111" cy="175.92" r="2.661"/>
		</g>
		<g>
			<path fill="#686868" d="M895.678,179.029c-2.309,0-4.18,1.871-4.18,4.18h8.359C899.858,180.9,897.985,179.029,895.678,179.029z"
				/>
			<circle fill="#686868" cx="895.769" cy="175.92" r="2.661"/>
		</g>
		<g>
			<path d="M903.712,178.769c-3.461,0-6.268,2.807-6.268,6.269h12.535C909.979,181.576,907.172,178.769,903.712,178.769z"/>
			<circle cx="903.849" cy="174.106" r="3.991"/>
		</g>
	</g>
</g>
<g>
	<g>
		<text transform="matrix(1 0 0 1 652.4508 266.2783)"><tspan x="0" y="0" font-family="'TitilliumText25L-800wt'" font-size="12.1467">CHEMICAL INDUSTRY </tspan><tspan x="0" y="14.576" font-family="'TitilliumText25L-800wt'" font-size="12.1467">FEDERATION OF FINLAND</tspan></text>
	</g>
	<text transform="matrix(1 0 0 1 603.1022 280.8173)" font-family="'TitilliumText25L-800wt'" font-size="33.1273">CIF</text>
	<polygon points="567.454,257.704 567.454,281.872 572.361,281.872 572.361,269.788 577.44,269.788 577.44,281.872 591.901,281.872 
		591.901,257.704 	"/>
</g>
<g>
	<polygon opacity="0.8" fill="#828282" points="215.678,307.641 202.918,318.641 190.157,307.641 177.397,318.641 164.636,307.641 
		151.876,318.641 151.876,293.413 141.755,293.413 141.755,318.641 141.755,349.295 151.876,349.295 228.439,349.295 
		228.439,318.641 	"/>
	<polygon points="194.483,322.295 178.472,336.098 162.46,322.295 146.449,336.098 130.437,322.295 114.425,336.098 
		114.425,304.443 101.727,304.443 101.727,336.098 101.727,374.563 114.425,374.563 210.495,374.563 210.495,336.098 	"/>
	<g>
		<text transform="matrix(1 0 0 1 112.5563 367.1479)" fill="#FFFFFF" font-family="'TitilliumText25L-800wt'" font-size="12.1467">Other Industries</text>
	</g>
</g>
<g>
	<polygon points="1232.006,182.738 1216.598,182.738 1232.006,171.677 1247.411,182.738 	"/>
	<rect x="1220.745" y="184.517" width="2.965" height="12.377"/>
	<rect x="1227.196" y="184.517" width="2.963" height="12.377"/>
	<rect x="1233.649" y="184.517" width="2.963" height="12.377"/>
	<rect x="1217.747" y="198.706" width="28.512" height="2.963"/>
	<rect x="1240.102" y="184.517" width="2.963" height="12.377"/>
</g>
<g>
	<text transform="matrix(1 0 0 1 542.4962 589.6967)"><tspan x="0" y="0" font-family="'TitilliumText25L-800wt'" font-size="12.1467">University</tspan><tspan x="5.952" y="14.576" font-family="'TitilliumText25L-800wt'" font-size="12.1467">Student</tspan></text>
	<g>
		<g>
			<g>
				<g>
					<path fill="#686868" d="M574.662,570.689c-2.309,0-4.18,1.871-4.18,4.18h8.359C578.842,572.56,576.97,570.689,574.662,570.689z
						"/>
				</g>
				<g>
					<circle fill="#686868" cx="574.753" cy="567.581" r="2.661"/>
				</g>
			</g>
			<g>
				<g>
					<path d="M566.355,570.429c-3.461,0-6.269,2.807-6.269,6.27h12.536C572.622,573.236,569.815,570.429,566.355,570.429z"/>
				</g>
				<g>
					<circle cx="566.491" cy="565.767" r="3.991"/>
				</g>
			</g>
		</g>
		<g>
			<rect x="560.469" y="564.171" width="8.73" height="1.104"/>
		</g>
		<g>
			<rect x="573.05" y="566.414" fill="#686868" width="5.792" height="0.553"/>
		</g>
	</g>
</g>
<g>
	<text transform="matrix(1 0 0 1 664.5265 591.5082)" font-family="'TitilliumText25L-800wt'" font-size="12.1467">Children</text>
	<g>
		<g>
			<g>
				<g>
					<path fill="#686868" d="M691.05,574.219c-1.721,0-3.114,1.393-3.114,3.114h6.227
						C694.162,575.612,692.769,574.219,691.05,574.219z"/>
				</g>
				<g>
					<circle fill="#686868" cx="691.117" cy="571.903" r="1.983"/>
				</g>
			</g>
			<g>
				<g>
					<path d="M684.86,574.025c-2.578,0-4.669,2.092-4.669,4.669h9.338C689.529,576.117,687.439,574.025,684.86,574.025z"/>
				</g>
				<g>
					<circle cx="684.963" cy="570.552" r="2.973"/>
				</g>
			</g>
		</g>
		<g>
			<rect x="680.478" y="569.364" width="6.503" height="0.822"/>
		</g>
		<g>
			<rect x="689.848" y="571.034" fill="#686868" width="4.314" height="0.411"/>
		</g>
	</g>
</g>
<rect x="1070.682" y="586.831" width="8.098" height="8.098"/>
<rect x="1070.682" y="644.001" width="8.098" height="8.098"/>
<rect x="1180.934" y="566.64" width="8.098" height="8.098"/>
<rect x="1180.934" y="510.746" width="8.098" height="8.098"/>
<rect x="381.902" y="674.633" width="8.098" height="8.098"/>
<rect x="381.902" y="566.64" width="8.098" height="8.098"/>
<rect x="156.111" y="386.615" width="8.098" height="8.098"/>
<path fill="#EF0039" d="M564.835,543.634c0,2.625-2.127,4.753-4.752,4.753l0,0c-2.625,0-4.752-2.128-4.752-4.753l0,0
	c0-2.624,2.128-4.752,4.752-4.752l0,0C562.707,538.882,564.835,541.01,564.835,543.634L564.835,543.634z"/>
<path fill="#EF0039" d="M564.835,678.681c0,2.625-2.127,4.753-4.752,4.753l0,0c-2.625,0-4.752-2.128-4.752-4.753l0,0
	c0-2.624,2.128-4.752,4.752-4.752l0,0C562.707,673.929,564.835,676.057,564.835,678.681L564.835,678.681z"/>
<rect x="571.897" y="539.586" width="8.098" height="8.097"/>
<path fill="#EF0039" d="M688.889,530.88c0,2.625-2.127,4.753-4.752,4.753l0,0c-2.625,0-4.752-2.128-4.752-4.753l0,0
	c0-2.624,2.128-4.752,4.752-4.752l0,0C686.762,526.128,688.889,528.256,688.889,530.88L688.889,530.88z"/>
<path fill="#EF0039" d="M730.44,663.076c0,2.625-2.127,4.753-4.752,4.753l0,0c-2.625,0-4.752-2.128-4.752-4.753l0,0
	c0-2.624,2.128-4.752,4.752-4.752l0,0C728.312,658.324,730.44,660.452,730.44,663.076L730.44,663.076z"/>
<path fill="#EF0039" d="M1079.483,574.869c0,2.625-2.127,4.753-4.752,4.753l0,0c-2.625,0-4.752-2.128-4.752-4.753l0,0
	c0-2.624,2.127-4.752,4.752-4.752l0,0C1077.356,570.117,1079.483,572.245,1079.483,574.869L1079.483,574.869z"/>
<path fill="#EF0039" d="M1236.755,219.229c0,2.625-2.127,4.753-4.752,4.753l0,0c-2.625,0-4.752-2.128-4.752-4.753l0,0
	c0-2.624,2.127-4.752,4.752-4.752l0,0C1234.628,214.477,1236.755,216.605,1236.755,219.229L1236.755,219.229z"/>
<path fill="#EF0039" d="M686.742,298.707c0,2.625-2.127,4.753-4.752,4.753l0,0c-2.625,0-4.753-2.128-4.753-4.753l0,0
	c0-2.624,2.128-4.752,4.753-4.752l0,0C684.615,293.956,686.742,296.083,686.742,298.707L686.742,298.707z"/>
<path fill="#EF0039" d="M373.677,570.689c0,2.625-2.127,4.753-4.752,4.753l0,0c-2.625,0-4.753-2.128-4.753-4.753l0,0
	c0-2.624,2.128-4.752,4.753-4.752l0,0C371.55,565.937,373.677,568.065,373.677,570.689L373.677,570.689z"/>
<rect x="679.68" y="540.29" width="8.098" height="8.097"/>
<g>
	<rect x="716.886" y="354.231" fill="#FFE000" stroke="#FF9D00" stroke-width="3" width="365" height="131.963"/>
	<g>
		<g>
			<text transform="matrix(1 0 0 1 859.6334 379.2597)"><tspan x="0" y="0" font-family="'TitilliumText25L-800wt'" font-size="14.0485">Enhance Chemistry</tspan><tspan x="0" y="16.858" font-family="'TitilliumText25L-800wt'" font-size="14.0485">Project</tspan></text>
		</g>
		<g>
			<text transform="matrix(1 0 0 1 760.985 449.6288)"><tspan x="0" y="0" font-family="'TitilliumText25L-800wt'" font-size="12.1467">Entertainment</tspan><tspan x="0" y="14.576" font-family="'TitilliumText25L-800wt'" font-size="12.1467">Development</tspan></text>
		</g>
		<g>
			<text transform="matrix(1 0 0 1 883.9264 449.6288)"><tspan x="0" y="0" font-family="'TitilliumText25L-800wt'" font-size="12.1467">Print Media</tspan><tspan x="0" y="14.576" font-family="'TitilliumText25L-800wt'" font-size="12.1467">Development</tspan></text>
		</g>
		<g>
			<text transform="matrix(1 0 0 1 1006.4957 449.6288)"><tspan x="0" y="0" font-family="'TitilliumText25L-800wt'" font-size="12.1467">New Ideas</tspan><tspan x="0" y="14.576" font-family="'TitilliumText25L-800wt'" font-size="12.1467">Generation</tspan></text>
		</g>
		<g>
			<rect x="828.154" y="371.371" width="6.726" height="6.725"/>
			<rect x="836.296" y="371.371" width="6.727" height="6.725"/>
			<rect x="844.438" y="371.371" width="6.725" height="6.725"/>
			<rect x="828.154" y="379.336" width="6.726" height="6.726"/>
			<rect x="836.296" y="379.336" width="6.727" height="6.726"/>
			<rect x="844.438" y="379.336" width="6.725" height="6.726"/>
			<rect x="828.154" y="387.301" width="6.726" height="6.725"/>
			<rect x="836.296" y="387.301" width="6.727" height="6.725"/>
			<rect x="844.438" y="387.301" width="6.725" height="6.725"/>
		</g>
		<polyline fill="none" stroke="#000000" stroke-width="2" stroke-miterlimit="10" stroke-dasharray="2" points="787.118,434.693 
			915.21,407.3 915.21,433.908 		"/>
		
			<line fill="none" stroke="#000000" stroke-width="2" stroke-miterlimit="10" stroke-dasharray="2" x1="1048.887" y1="434.693" x2="915.21" y2="407.3"/>
		<circle cx="745.708" cy="452.942" r="8.005"/>
		<circle cx="872.143" cy="452.942" r="8.006"/>
		<circle cx="993.611" cy="452.942" r="8.005"/>
		<text transform="matrix(1 0 0 1 742.4894 456.8061)" fill="#FFE000" font-family="'TitilliumText25L-800wt'" font-size="12.1467">1</text>
		<text transform="matrix(1 0 0 1 868.9254 456.8061)" fill="#FFE000" font-family="'TitilliumText25L-800wt'" font-size="12.1467">2</text>
		<text transform="matrix(1 0 0 1 990.3922 456.8061)" fill="#FFE000" font-family="'TitilliumText25L-800wt'" font-size="12.1467">3</text>
		<rect x="783.069" y="430.644" width="8.097" height="8.097"/>
		<rect x="911.161" y="430.644" width="8.098" height="8.097"/>
		<rect x="1044.462" y="430.644" width="8.098" height="8.097"/>
		<rect x="911.161" y="403.251" width="8.098" height="8.097"/>
	</g>
</g>
<polyline fill="none" stroke="#000000" stroke-width="2" stroke-miterlimit="10" points="575.945,543.634 575.945,473.457 
	716.886,473.457 "/>
<polyline fill="none" stroke="#000000" stroke-width="2" stroke-miterlimit="10" points="899.385,486.194 899.385,590.88 
	1074.731,590.88 "/>
<polyline fill="none" stroke="#000000" stroke-width="2" stroke-miterlimit="10" points="989.656,486.194 989.656,514.795 
	1180.934,514.795 "/>
<rect x="895.337" y="482.145" width="8.098" height="8.098"/>
<rect x="899.385" y="350.182" width="8.098" height="8.098"/>
<rect x="899.385" y="215.181" width="8.098" height="8.098"/>
<rect x="659.914" y="305.583" width="8.098" height="8.098"/>
<rect x="712.837" y="469.409" width="8.098" height="8.098"/>
<rect x="712.837" y="362.968" width="8.098" height="8.098"/>
<rect x="712.837" y="386.615" width="8.098" height="8.098"/>
<rect x="712.837" y="421.645" width="8.098" height="8.098"/>
<rect x="753.714" y="482.145" width="8.098" height="8.098"/>
<rect x="985.606" y="482.145" width="8.098" height="8.098"/>
<line fill="none" stroke="#000000" stroke-width="2" stroke-miterlimit="10" x1="903.434" y1="223.279" x2="903.434" y2="352.181"/>
<polyline fill="none" stroke="#000000" stroke-width="2" stroke-miterlimit="10" points="663.963,310.511 663.963,367.017 
	716.886,367.017 "/>
<polyline fill="none" stroke="#000000" stroke-width="2" stroke-miterlimit="10" points="385.951,570.689 385.951,425.694 
	716.886,425.694 "/>
<polyline fill="none" stroke="#000000" stroke-width="2" stroke-miterlimit="10" points="1074.731,648.05 1074.731,732.382 
	385.951,732.382 385.951,678.681 "/>
<polyline fill="none" stroke="#000000" stroke-width="2" stroke-miterlimit="10" points="1184.983,570.689 1184.983,757.681 
	385.951,757.681 385.951,732.382 "/>
<g>
	<g>
		<path opacity="0.8" fill="#828282" d="M472.332,610.385v30.653h-76.563h-10.121v-30.653v-25.228h10.121v25.228l12.76-11.001
			l12.761,11.001l12.76-11.001l12.76,11.001l12.761-11.001L472.332,610.385z"/>
		<polygon points="438.376,614.04 422.365,627.843 406.353,614.04 390.342,627.843 374.33,614.04 358.318,627.843 358.318,596.189 
			345.62,596.189 345.62,627.843 345.62,666.308 358.318,666.308 454.388,666.308 454.388,627.843 		"/>
		<g>
			
				<text transform="matrix(1 0 0 1 351.6652 657.4741)" fill="#FFFFFF" font-family="'TitilliumText25L-800wt'" font-size="12.1467">Chemical Industry</text>
		</g>
	</g>
	<polygon points="321.408,658.465 321.408,644.495 315.982,644.495 315.982,657.426 315.982,658.465 309.037,666.307 
		315.982,666.307 321.408,666.307 328.353,666.307 	"/>
	<rect x="330.498" y="644.495" width="5.051" height="21.813"/>
</g>
<polyline fill="none" stroke="#000000" stroke-width="2" stroke-miterlimit="10" points="160.16,390.664 385.951,390.664 
	716.886,390.664 "/>
<path fill="#EF0039" d="M748.846,486.194c0,2.625-2.127,4.753-4.752,4.753l0,0c-2.625,0-4.752-2.128-4.752-4.753l0,0
	c0-2.624,2.128-4.752,4.752-4.752l0,0C746.719,481.442,748.846,483.57,748.846,486.194L748.846,486.194z"/>
<path fill="#EF0039" d="M721.638,460.947c0,2.625-2.127,4.753-4.752,4.753l0,0c-2.625,0-4.752-2.128-4.752-4.753l0,0
	c0-2.624,2.128-4.752,4.752-4.752l0,0C719.511,456.195,721.638,458.323,721.638,460.947L721.638,460.947z"/>
<polyline fill="none" stroke="#EF0039" stroke-width="2" stroke-linecap="round" stroke-linejoin="round" stroke-miterlimit="10" points="
	716.886,460.948 560.082,460.948 560.082,543.634 "/>
<polyline fill="none" stroke="#EF0039" stroke-width="2" stroke-linecap="round" stroke-linejoin="round" stroke-miterlimit="10" points="
	1074.731,574.869 915.21,574.869 915.21,486.194 "/>
<path fill="#EF0039" d="M919.962,486.194c0,2.625-2.127,4.753-4.752,4.753l0,0c-2.625,0-4.752-2.128-4.752-4.753l0,0
	c0-2.624,2.127-4.752,4.752-4.752l0,0C917.835,481.442,919.962,483.57,919.962,486.194L919.962,486.194z"/>
<path fill="#EF0039" d="M1006.37,486.194c0,2.625-2.127,4.753-4.752,4.753l0,0c-2.625,0-4.754-2.128-4.754-4.753l0,0
	c0-2.624,2.129-4.752,4.754-4.752l0,0C1004.243,481.442,1006.37,483.57,1006.37,486.194L1006.37,486.194z"/>
<path fill="#EF0039" d="M1189.737,500.494c0,2.625-2.127,4.753-4.752,4.753l0,0c-2.625,0-4.754-2.128-4.754-4.753l0,0
	c0-2.624,2.129-4.752,4.754-4.752l0,0C1187.61,495.742,1189.737,497.87,1189.737,500.494L1189.737,500.494z"/>
<polyline fill="none" stroke="#EF0039" stroke-width="2" stroke-linecap="round" stroke-linejoin="round" stroke-miterlimit="10" points="
	1001.617,486.194 1001.617,500.495 1184.983,500.495 "/>
<line fill="none" stroke="#EF0039" stroke-width="2" stroke-linecap="round" stroke-linejoin="round" stroke-miterlimit="10" x1="725.687" y1="663.076" x2="1232.003" y2="663.076"/>
<polyline fill="none" stroke="#EF0039" stroke-width="2" stroke-linecap="round" stroke-linejoin="round" stroke-miterlimit="10" points="
	681.989,298.45 681.989,354.231 716.886,354.231 "/>
<path fill="#EF0039" d="M721.638,354.23c0,2.625-2.127,4.753-4.752,4.753l0,0c-2.625,0-4.753-2.128-4.753-4.753l0,0
	c0-2.624,2.128-4.752,4.753-4.752l0,0C719.511,349.478,721.638,351.606,721.638,354.23L721.638,354.23z"/>
<path fill="#EF0039" d="M721.638,413.459c0,2.625-2.127,4.753-4.752,4.753l0,0c-2.625,0-4.753-2.128-4.753-4.753l0,0
	c0-2.624,2.128-4.752,4.753-4.752l0,0C719.511,408.707,721.638,410.835,721.638,413.459L721.638,413.459z"/>
<polyline fill="none" stroke="#EF0039" stroke-width="2" stroke-linecap="round" stroke-linejoin="round" stroke-miterlimit="10" points="
	368.924,571.339 368.924,413.46 716.886,413.46 "/>
<polyline fill="none" stroke="#EF0039" stroke-width="2" stroke-linecap="round" stroke-linejoin="round" stroke-miterlimit="10" points="
	368.925,575.442 368.925,298.45 681.989,298.45 1193.342,298.708 1193.342,219.23 1232.003,219.23 1232.003,678.681 
	560.082,678.681 "/>
<polyline fill="none" stroke="#000000" stroke-width="2" stroke-miterlimit="10" points="683.729,544.339 757.762,544.339 
	757.762,486.194 "/>
<polyline fill="none" stroke="#EF0039" stroke-width="2" stroke-linecap="round" stroke-linejoin="round" stroke-miterlimit="10" points="
	684.137,530.88 744.094,530.88 744.094,486.194 "/>
</svg>
