<?xml version="1.0" encoding="utf-8"?>
<!-- Generator: Adobe Illustrator 16.0.2, SVG Export Plug-In . SVG Version: 6.00 Build 0)  -->
<!DOCTYPE svg PUBLIC "-//W3C//DTD SVG 1.1//EN" "http://www.w3.org/Graphics/SVG/1.1/DTD/svg11.dtd">
<svg version="1.1"
	 id="svg10067" inkscape:export-ydpi="200" inkscape:export-xdpi="200" inkscape:export-filename="../03.design_system_map.png" sodipodi:docname="03.design_system_map.svg" inkscape:version="0.48.2 r9819" xmlns:rdf="http://www.w3.org/1999/02/22-rdf-syntax-ns#" xmlns:dc="http://purl.org/dc/elements/1.1/" xmlns:cc="http://creativecommons.org/ns#" xmlns:sodipodi="http://sodipodi.sourceforge.net/DTD/sodipodi-0.dtd" xmlns:inkscape="http://www.inkscape.org/namespaces/inkscape" xmlns:svg="http://www.w3.org/2000/svg"
	 xmlns="http://www.w3.org/2000/svg" xmlns:xlink="http://www.w3.org/1999/xlink" x="0px" y="0px" width="1488.188px"
	 height="1052.361px" viewBox="0 0 1488.188 1052.361" enable-background="new 0 0 1488.188 1052.361" xml:space="preserve">
<sodipodi:namedview  units="mm" inkscape:guide-bbox="true" inkscape:window-maximized="1" inkscape:window-y="0" inkscape:window-x="0" inkscape:window-height="795" inkscape:document-units="mm" inkscape:pageshadow="2" inkscape:pageopacity="1" inkscape:current-layer="layer1" inkscape:window-width="1440" inkscape:cy="526.18109" inkscape:cx="744.09448" borderopacity="1.0" inkscape:zoom="0.45991771" pagecolor="#ffffff" bordercolor="#666666" id="base" showgrid="true" showguides="false">
	<sodipodi:guide  orientation="0,1" id="guide24376" position="478.34646,974.40945"></sodipodi:guide>
	<sodipodi:guide  orientation="1,0" id="guide24416" position="35.433071,938.97638"></sodipodi:guide>
	<sodipodi:guide  orientation="1,0" id="guide24418" position="1452.7559,921.25984"></sodipodi:guide>
	<sodipodi:guide  orientation="0,1" id="guide24420" position="974.40945,106.29921"></sodipodi:guide>
	<sodipodi:guide  orientation="0,1" id="guide24422" position="389.76378,938.97638"></sodipodi:guide>
	<sodipodi:guide  orientation="0,1" id="guide24424" position="701.5748,1009.8425"></sodipodi:guide>
	<sodipodi:guide  orientation="0,1" id="guide25257" position="230.31496,921.25984"></sodipodi:guide>
</sodipodi:namedview>
<a id="a24212" xlink:href="http://creativecommons.org/licenses/by-sa/3.0/"  transform="matrix(0.56208624,0,0,0.56208624,1028.2309,500.82271)" xlink:title="CC BY-SA">
	<text transform="matrix(1.7791 0 0 1.7791 -406.8828 834.9493)" font-family="'TitilliumText25L-250wt'" font-size="9">This work is licensed under the Creative Commons Attribution-Share Alike 3.0 Unported License.</text>
	<text transform="matrix(1.7791 0 0 1.7791 255.3025 834.9493)" font-family="'TitilliumText25L-250wt'" font-size="10"> </text>
	<text transform="matrix(1.7791 0 0 1.7791 -406.8828 854.9623)" font-family="'TitilliumText25L-250wt'" font-size="9">To view a copy of this license, visit http://creativecommons.org/licenses/by-sa/3.0/</text>
	<text transform="matrix(1.7791 0 0 1.7791 178.4161 854.9623)" font-family="'TitilliumText25L-250wt'" font-size="10"> </text>
	<text transform="matrix(1.7791 0 0 1.7791 -406.8828 874.9771)" font-family="'TitilliumText25L-250wt'" font-size="9">or send a letter to Creative Commons, 171 Second Street, Suite 300, San Francisco, California, 94105, USA.</text>
</a>
<g id="g25400" transform="matrix(0.83432244,0,0,0.83432244,242.1812,154.35087)">
	<g id="g9971" transform="matrix(0.7026078,0,0,-0.7026078,-2047.1135,1073.3221)">
		<g>
			<defs>
				<rect id="SVGID_1_" x="4923.748" y="96.97" width="45.846" height="45.847"/>
			</defs>
			<clipPath id="SVGID_2_">
				<use xlink:href="#SVGID_1_"  overflow="visible"/>
			</clipPath>
			<g id="g9973" clip-path="url(#SVGID_2_)">
				<g id="g9975" transform="translate(4946.6187,152.9518)">
					<path id="path9977" inkscape:connector-curvature="0" d="M0.001-0.001c9.146,0,16.859-3.14,23.14-9.419
						c6.317-6.319,9.476-14.032,9.476-23.14c0-9.149-3.099-16.764-9.302-22.85c-6.59-6.474-14.36-9.709-23.313-9.709
						c-8.799,0-16.436,3.197-22.906,9.594c-6.397,6.394-9.596,14.049-9.596,22.965c0,8.914,3.199,16.628,9.596,23.14
						C-16.628-3.141-8.992-0.001,0.001-0.001 M0.117-5.873c-7.403,0-13.664-2.597-18.781-7.791
						c-5.311-5.426-7.963-11.725-7.963-18.895c0-7.21,2.632-13.452,7.906-18.722c5.271-5.273,11.551-7.906,18.838-7.906
						c7.247,0,13.564,2.654,18.952,7.965c5.118,4.921,7.677,11.143,7.677,18.663c0,7.403-2.599,13.702-7.79,18.895
						C13.758-8.47,7.481-5.873,0.117-5.873 M8.837-24.48v-13.314H5.115v-15.813H-5v15.813h-3.722v13.314
						c0,0.583,0.203,1.076,0.613,1.484c0.406,0.406,0.9,0.61,1.483,0.61H6.744c0.543,0,1.026-0.203,1.453-0.61
						C8.624-23.403,8.837-23.896,8.837-24.48 M-4.477-16.105c0,3.06,1.513,4.593,4.535,4.593c3.025,0,4.535-1.533,4.535-4.593
						c0-3.024-1.509-4.536-4.535-4.536C-2.965-20.641-4.477-19.129-4.477-16.105"/>
				</g>
				<g id="g9979" transform="translate(4896.9019,80.7901)">
					<path id="path9981" inkscape:connector-curvature="0" fill="none" stroke="#000000" stroke-width="0.592" d="M0-0.001h-31.996
						 M10.665-10.665v-31.996 M0,78.21h-31.996 M10.665,88.874v31.996 M99.538,78.21h31.996 M88.877,88.874v31.996 M99.538-0.001
						h31.996 M88.877-10.665v-31.996"/>
				</g>
			</g>
		</g>
	</g>
	<g id="g9983" transform="matrix(0.7026078,0,0,-0.7026078,-2047.1135,1073.3221)">
		<g>
			<defs>
				<rect id="SVGID_3_" x="4577.391" y="96.97" width="45.846" height="45.847"/>
			</defs>
			<clipPath id="SVGID_4_">
				<use xlink:href="#SVGID_3_"  overflow="visible"/>
			</clipPath>
			<g id="g9985" clip-path="url(#SVGID_4_)">
				<g id="g9987" transform="translate(4600.2598,152.9518)">
					<path id="path9989" inkscape:connector-curvature="0" d="M-0.001-0.001c9.109,0,16.862-3.179,23.256-9.536
						c3.062-3.062,5.388-6.56,6.977-10.495c1.589-3.933,2.386-8.11,2.386-12.528c0-4.458-0.786-8.634-2.356-12.529
						c-1.569-3.897-3.888-7.337-6.947-10.32c-3.179-3.14-6.784-5.544-10.815-7.208c-4.031-1.668-8.196-2.501-12.501-2.501
						c-4.301,0-8.42,0.823-12.354,2.471c-3.935,1.646-7.46,4.03-10.582,7.152c-3.122,3.119-5.494,6.637-7.12,10.552
						c-1.629,3.915-2.442,8.043-2.442,12.384c0,4.301,0.823,8.44,2.472,12.413c1.646,3.973,4.038,7.528,7.177,10.669
						C-16.647-3.161-9.03-0.001-0.001-0.001 M0.116-5.873c-7.44,0-13.7-2.597-18.778-7.791c-2.559-2.597-4.525-5.514-5.901-8.751
						c-1.376-3.235-2.066-6.617-2.066-10.144c0-3.49,0.69-6.852,2.066-10.087c1.376-3.237,3.342-6.126,5.901-8.663
						c2.559-2.541,5.444-4.478,8.663-5.814c3.215-1.338,6.587-2.006,10.115-2.006c3.489,0,6.87,0.678,10.146,2.034
						s6.23,3.314,8.866,5.872c5.078,4.961,7.62,11.182,7.62,18.663c0,3.605-0.663,7.015-1.979,10.232
						c-1.316,3.217-3.235,6.084-5.754,8.606C13.78-8.49,7.479-5.873,0.116-5.873 M-0.291-27.153l-4.361-2.266
						c-0.463,0.968-1.036,1.646-1.716,2.034c-0.676,0.386-1.306,0.581-1.889,0.581c-2.905,0-4.358-1.919-4.358-5.756
						c0-1.744,0.366-3.14,1.103-4.186c0.736-1.048,1.823-1.569,3.255-1.569c1.899,0,3.239,0.93,4.015,2.79l4.012-2.036
						c-0.853-1.589-2.036-2.839-3.548-3.75c-1.513-0.911-3.178-1.366-4.998-1.366c-2.909,0-5.254,0.891-7.037,2.674
						c-1.782,1.784-2.675,4.265-2.675,7.443c0,3.1,0.903,5.561,2.705,7.383c1.802,1.823,4.078,2.732,6.83,2.732
						C-4.922-22.444-2.033-24.013-0.291-27.153 M18.488-27.153l-4.301-2.266c-0.463,0.968-1.036,1.646-1.716,2.034
						c-0.676,0.386-1.326,0.581-1.946,0.581c-2.909,0-4.361-1.919-4.361-5.756c0-1.744,0.37-3.14,1.103-4.186
						c0.736-1.048,1.823-1.569,3.259-1.569c1.899,0,3.235,0.93,4.012,2.79l4.068-2.036c-0.893-1.589-2.092-2.839-3.605-3.75
						c-1.509-0.911-3.159-1.366-4.941-1.366c-2.945,0-5.301,0.891-7.063,2.674c-1.763,1.784-2.646,4.265-2.646,7.443
						c0,3.1,0.903,5.561,2.702,7.383c1.802,1.823,4.081,2.732,6.834,2.732C13.916-22.444,16.785-24.013,18.488-27.153"/>
				</g>
				<g id="g9991" transform="translate(4550.543,80.7901)">
					<path id="path9993" inkscape:connector-curvature="0" fill="none" stroke="#000000" stroke-width="0.592" d="M0.002-0.001
						h-31.996 M10.667-10.665v-31.996 M0.002,78.21h-31.996 M10.667,88.874v31.996 M99.54,78.21h31.996 M88.875,88.874v31.996
						 M99.54-0.001h31.996 M88.875-10.665v-31.996"/>
				</g>
			</g>
		</g>
	</g>
	<g id="g9995" transform="matrix(0.7026078,0,0,-0.7026078,-2047.1135,1073.3221)">
		<g>
			<defs>
				<rect id="SVGID_5_" x="4745.999" y="96.97" width="45.848" height="45.847"/>
			</defs>
			<clipPath id="SVGID_6_">
				<use xlink:href="#SVGID_5_"  overflow="visible"/>
			</clipPath>
			<g id="g9997" clip-path="url(#SVGID_6_)">
				<g id="g9999" transform="translate(4768.8687,152.8934)">
					<path id="path10001" inkscape:connector-curvature="0" d="M0.001,0c9.106,0,16.819-3.159,23.14-9.477
						c6.317-6.279,9.476-13.974,9.476-23.081c0-9.109-3.099-16.744-9.302-22.908c-6.55-6.434-14.32-9.651-23.313-9.651
						c-8.799,0-16.436,3.197-22.906,9.592c-6.397,6.395-9.596,14.05-9.596,22.966c0,8.876,3.199,16.569,9.596,23.081
						C-16.588-3.159-8.955,0,0.001,0 M0.118-5.873c-7.407,0-13.664-2.615-18.781-7.848c-5.311-5.389-7.963-11.668-7.963-18.838
						c0-7.248,2.632-13.489,7.906-18.722c5.271-5.273,11.551-7.906,18.838-7.906c7.247,0,13.564,2.654,18.952,7.965
						c5.118,4.961,7.677,11.183,7.677,18.663c0,7.442-2.599,13.722-7.79,18.838C13.798-8.488,7.518-5.873,0.118-5.873
						 M-14.419-27.966c0.62,3.992,2.229,7.083,4.828,9.274c2.596,2.189,5.754,3.285,9.476,3.285c5.114,0,9.186-1.649,12.208-4.943
						c3.025-3.295,4.535-7.52,4.535-12.674c0-5.001-1.569-9.158-4.708-12.471c-3.139-3.315-7.21-4.971-12.211-4.971
						c-3.682,0-6.86,1.104-9.532,3.314c-2.676,2.209-4.285,5.349-4.828,9.419h8.2c0.193-3.955,2.575-5.931,7.15-5.931
						c2.286,0,4.128,0.988,5.524,2.965c1.396,1.977,2.092,4.613,2.092,7.906c0,3.45-0.64,6.076-1.919,7.878
						c-1.279,1.803-3.119,2.704-5.524,2.704c-4.338,0-6.78-1.917-7.323-5.756h2.382l-6.454-6.454l-6.454,6.454H-14.419z"/>
				</g>
				<g id="g10003" transform="translate(4719.1519,80.7901)">
					<path id="path10005" inkscape:connector-curvature="0" fill="none" stroke="#000000" stroke-width="0.592" d="M0-0.001h-31.996
						 M10.665-10.665v-31.996 M0,78.21h-31.996 M10.665,88.874v31.996 M99.539,78.21h31.996 M88.877,88.874v31.996 M99.539-0.001
						h31.996 M88.877-10.665v-31.996"/>
				</g>
			</g>
		</g>
	</g>
	<g id="g10007" transform="matrix(0.7026078,0,0,-0.7026078,-2047.1135,1073.3221)">
		<g>
			<defs>
				<rect id="SVGID_7_" x="4830.304" y="96.97" width="45.846" height="45.847"/>
			</defs>
			<clipPath id="SVGID_8_">
				<use xlink:href="#SVGID_7_"  overflow="visible"/>
			</clipPath>
			<g id="g10009" clip-path="url(#SVGID_8_)">
				<g id="g10011" transform="translate(4853.1729,152.8934)">
					<path id="path10013" inkscape:connector-curvature="0" d="M0.002,0c9.106,0,16.819-3.159,23.14-9.477
						c6.317-6.279,9.476-13.974,9.476-23.081c0-9.109-3.102-16.744-9.302-22.908c-6.55-6.434-14.323-9.651-23.313-9.651
						c-8.803,0-16.436,3.197-22.91,9.592c-6.394,6.395-9.592,14.05-9.592,22.966c0,8.876,3.198,16.569,9.592,23.081
						C-16.59-3.159-8.954,0,0.002,0 M0.116-5.873c-7.403,0-13.661-2.615-18.778-7.848c-5.311-5.389-7.963-11.668-7.963-18.838
						c0-7.248,2.632-13.489,7.903-18.722c5.271-5.273,11.552-7.906,18.838-7.906c7.25,0,13.567,2.654,18.955,7.965
						c5.118,4.961,7.677,11.183,7.677,18.663c0,7.442-2.599,13.722-7.793,18.838C13.799-8.488,7.519-5.873,0.116-5.873
						 M21.339-33.141l0.64-0.292v-9.186l-0.583-0.292l-7.906-3.372l-0.35-0.115l-0.406,0.115l-17.036,7.035l-0.58,0.233l-8.43-3.488
						l-8.316,3.605v8.371l7.793,3.257l-0.06,0.058v9.186l8.836,3.895l19.944-8.256v-8.081L21.339-33.141z M12.094-43.839v5.756
						h-0.057v0.233l-14.943,6.106v-5.931l14.943-6.164v0.058L12.094-43.839z M13.083-36.281l5.231,2.152l-4.825,2.034l-5.118-2.151
						L13.083-36.281z M19.943-41.28v5.639l-5.814-2.442v-5.697L19.943-41.28z"/>
				</g>
				<g id="g10015" transform="translate(4803.4561,80.7901)">
					<path id="path10017" inkscape:connector-curvature="0" fill="none" stroke="#000000" stroke-width="0.592" d="M0.001-0.001
						h-31.996 M10.667-10.665v-31.996 M0.001,78.21h-31.996 M10.667,88.874v31.996 M99.54,78.21h31.995 M88.875,88.874v31.996
						 M99.54-0.001h31.995 M88.875-10.665v-31.996"/>
				</g>
			</g>
		</g>
	</g>
	<g id="g10019" transform="matrix(0.7026078,0,0,-0.7026078,-2047.1135,1073.3221)">
		<g>
			<defs>
				<rect id="SVGID_9_" x="4661.696" y="96.97" width="45.846" height="45.847"/>
			</defs>
			<clipPath id="SVGID_10_">
				<use xlink:href="#SVGID_9_"  overflow="visible"/>
			</clipPath>
			<g id="g10021" clip-path="url(#SVGID_10_)">
				<g id="g10023" transform="translate(4684.5645,152.8934)">
					<path id="path10025" inkscape:connector-curvature="0" d="M0,0c9.109,0,16.822-3.159,23.14-9.477
						c6.317-6.279,9.479-13.974,9.479-23.081c0-9.109-3.102-16.744-9.302-22.908C16.766-61.901,8.993-65.118,0-65.118
						c-8.799,0-16.436,3.197-22.906,9.592c-6.397,6.395-9.596,14.05-9.596,22.966c0,8.876,3.199,16.569,9.596,23.081
						C-16.589-3.159-8.953,0,0,0 M0.116-5.873c-7.403,0-13.664-2.615-18.778-7.848c-5.314-5.389-7.966-11.668-7.966-18.838
						c0-7.248,2.635-13.489,7.906-18.722c5.271-5.273,11.551-7.906,18.838-7.906c7.247,0,13.567,2.654,18.955,7.965
						c5.118,4.961,7.673,11.183,7.673,18.663c0,7.442-2.595,13.722-7.79,18.838C13.797-8.488,7.52-5.873,0.116-5.873 M13.374-23.257
						c0.503,0,0.93-0.173,1.276-0.523c0.35-0.348,0.526-0.776,0.526-1.279v-23.954c0-0.505-0.177-0.93-0.526-1.278
						c-0.346-0.35-0.773-0.525-1.276-0.525H-4.358c-0.506,0-0.933,0.175-1.283,0.525c-0.347,0.348-0.523,0.773-0.523,1.278v7.093
						h-7.09c-0.506,0-0.933,0.175-1.279,0.523c-0.35,0.35-0.526,0.775-0.526,1.279v23.954c0,0.465,0.157,0.861,0.467,1.191
						c0.31,0.33,0.696,0.533,1.163,0.61h0.177H4.478c0.503,0,0.93-0.173,1.279-0.523c0.346-0.348,0.523-0.775,0.523-1.278v-7.093
						H13.374z M-11.512-38.373h5.348v13.314c0,0.465,0.157,0.863,0.467,1.191c0.31,0.33,0.676,0.533,1.106,0.611h0.233h7.09v5.291
						h-14.244V-38.373z M11.628-26.803H-2.616v-20.407h14.244V-26.803z"/>
				</g>
				<g id="g10027" transform="translate(4634.8477,80.7901)">
					<path id="path10029" inkscape:connector-curvature="0" fill="none" stroke="#000000" stroke-width="0.592" d="M-0.001-0.001
						h-31.992 M10.664-10.665v-31.996 M-0.001,78.21h-31.992 M10.664,88.874v31.996 M99.541,78.21h31.996 M88.876,88.874v31.996
						 M99.541-0.001h31.996 M88.876-10.665v-31.996"/>
				</g>
			</g>
		</g>
	</g>
</g>
<g id="text2993" transform="translate(-54.489215,-280.29548)" inkscape:export-ydpi="100.01622" inkscape:export-xdpi="100.01622" inkscape:export-filename="/Users/massimomenichinelli/Dropbox/openp2pdesign.org/2013/Cava dei Tirreni/toolkit/logo.png">
	<path id="path2998" inkscape:connector-curvature="0" d="M102.586,358.348c-1.68,0-3.264-0.312-4.752-0.936
		c-1.44-0.624-2.712-1.488-3.816-2.592c-1.104-1.104-1.968-2.376-2.592-3.816c-0.624-1.488-0.936-3.072-0.936-4.752v-24.48
		c0-1.68,0.312-3.239,0.936-4.68c0.624-1.488,1.488-2.784,2.592-3.888c1.104-1.104,2.376-1.968,3.816-2.593
		c1.488-0.623,3.072-0.936,4.752-0.936c1.68,0,3.24,0.313,4.68,0.936c1.488,0.625,2.784,1.488,3.888,2.593
		c1.104,1.104,1.968,2.399,2.592,3.888c0.624,1.44,0.936,3,0.936,4.68v24.48c0,1.68-0.312,3.264-0.936,4.752
		c-0.624,1.439-1.488,2.712-2.592,3.816c-1.104,1.104-2.4,1.968-3.888,2.592C105.825,358.036,104.265,358.348,102.586,358.348
		 M102.586,316.588c-1.44,0-2.664,0.504-3.672,1.512c-1.008,1.008-1.512,2.232-1.512,3.672v24.48c0,1.439,0.504,2.664,1.512,3.672
		c1.008,1.008,2.232,1.512,3.672,1.512c1.44,0,2.664-0.504,3.672-1.512c1.008-1.008,1.512-2.232,1.512-3.672v-24.48
		c0-1.439-0.504-2.664-1.512-3.672C105.249,317.092,104.025,316.588,102.586,316.588"/>
	<path id="path3000" inkscape:connector-curvature="0" d="M124.622,372.532c-0.912,0-1.68-0.313-2.304-0.937
		s-0.936-1.392-0.936-2.304V326.38c0-0.912,0.312-1.68,0.936-2.304s1.392-0.937,2.304-0.937h7.2c1.44,0,2.784,0.288,4.032,0.864
		c1.296,0.528,2.4,1.272,3.312,2.232c0.96,0.911,1.704,2.016,2.232,3.312c0.576,1.248,0.864,2.592,0.864,4.032v13.824
		c0,1.439-0.288,2.808-0.864,4.104c-0.528,1.248-1.272,2.353-2.232,3.313c-0.912,0.911-2.016,1.632-3.312,2.159
		c-1.248,0.576-2.592,0.864-4.032,0.864h-3.96v11.448c0,0.912-0.312,1.68-0.936,2.304S125.534,372.532,124.622,372.532
		 M135.782,333.58c0-1.104-0.384-2.04-1.152-2.809c-0.768-0.768-1.704-1.151-2.808-1.151h-3.96v21.744h3.96
		c1.104,0,2.04-0.385,2.808-1.152s1.152-1.704,1.152-2.808V333.58"/>
	<path id="path3002" inkscape:connector-curvature="0" d="M154.982,357.34c-2.016-0.816-3.6-2.088-4.752-3.816
		c-1.152-1.728-1.728-3.672-1.728-5.832v-14.399c0-1.44,0.264-2.784,0.792-4.032c0.576-1.296,1.32-2.399,2.232-3.312
		c0.96-0.96,2.064-1.704,3.312-2.232c1.296-0.576,2.664-0.864,4.104-0.864c1.44,0,2.784,0.288,4.032,0.864
		c1.296,0.528,2.4,1.272,3.312,2.232c0.96,0.911,1.704,2.016,2.232,3.312c0.576,1.248,0.864,2.592,0.864,4.032v7.2
		c0,0.912-0.312,1.68-0.936,2.304s-1.392,0.936-2.304,0.936h-11.16v3.96c0,0.816,0.216,1.561,0.648,2.232
		c0.432,0.624,1.032,1.104,1.8,1.44c0.768,0.288,1.536,0.359,2.304,0.216c0.768-0.145,1.44-0.504,2.016-1.08
		c0.624-0.672,1.368-1.008,2.232-1.008c0.912,0,1.704,0.336,2.376,1.008c0.624,0.672,0.936,1.439,0.936,2.304
		s-0.312,1.632-0.936,2.304c-1.536,1.488-3.336,2.425-5.4,2.809C158.942,358.348,156.95,358.156,154.982,357.34 M158.942,329.332
		c-1.104,0-2.04,0.384-2.808,1.151c-0.768,0.769-1.152,1.704-1.152,2.809v3.96h7.92v-3.96c0-1.104-0.384-2.04-1.152-2.809
		C160.982,329.716,160.046,329.332,158.942,329.332"/>
	<path id="path3004" inkscape:connector-curvature="0" d="M179.044,358.132c-0.912,0-1.68-0.312-2.304-0.936
		s-0.936-1.393-0.936-2.305V326.38c0-0.912,0.312-1.68,0.936-2.304s1.392-0.937,2.304-0.937h7.2c1.44,0,2.784,0.288,4.032,0.864
		c1.296,0.528,2.4,1.272,3.312,2.232c0.96,0.911,1.704,2.016,2.232,3.312c0.576,1.248,0.864,2.592,0.864,4.032v21.312
		c0,0.912-0.336,1.681-1.008,2.305c-0.624,0.624-1.368,0.936-2.232,0.936c-0.912,0-1.68-0.312-2.304-0.936s-0.936-1.393-0.936-2.305
		V333.58c0-1.104-0.384-2.04-1.152-2.809c-0.768-0.768-1.704-1.151-2.808-1.151h-3.96v25.271c0,0.912-0.336,1.681-1.008,2.305
		C180.652,357.82,179.908,358.132,179.044,358.132"/>
	<path id="path3006" inkscape:connector-curvature="0" d="M221.09,358.348c-0.96,0-1.776-0.336-2.448-1.008
		s-1.008-1.488-1.008-2.448v-41.76c0-0.816,0.24-1.536,0.72-2.16s1.128-1.032,1.944-1.224c0.816-0.192,1.584-0.097,2.304,0.288
		c0.72,0.336,1.248,0.888,1.584,1.655c0.96,2.112,1.944,4.2,2.952,6.265c0.816,1.824,1.728,3.768,2.736,5.832
		c1.008,2.016,1.92,3.912,2.736,5.688c0.816-1.775,1.704-3.672,2.664-5.688c1.008-2.064,1.92-4.008,2.736-5.832
		c0.96-2.064,1.944-4.152,2.952-6.265c0.384-0.768,0.912-1.319,1.584-1.655c0.72-0.384,1.488-0.48,2.304-0.288
		c0.816,0.191,1.464,0.6,1.944,1.224c0.528,0.624,0.792,1.344,0.792,2.16v41.76c0,0.96-0.336,1.776-1.008,2.448
		c-0.672,0.672-1.488,1.008-2.448,1.008s-1.776-0.336-2.448-1.008c-0.672-0.672-1.008-1.488-1.008-2.448v-26.279
		c-0.624,1.296-1.224,2.567-1.8,3.815s-1.104,2.353-1.584,3.313c-0.528,1.151-1.056,2.256-1.584,3.312
		c-0.288,0.624-0.72,1.128-1.296,1.512c-0.528,0.337-1.128,0.505-1.8,0.505c-1.488,0-2.544-0.673-3.168-2.017
		c-0.528-1.056-1.056-2.16-1.584-3.312c-0.48-0.96-1.008-2.064-1.584-3.313s-1.152-2.52-1.728-3.815v26.279
		c0,0.96-0.336,1.776-1.008,2.448S222.05,358.348,221.09,358.348"/>
	<path id="path3008" inkscape:connector-curvature="0" d="M260.873,357.34c-2.016-0.816-3.6-2.088-4.752-3.816
		c-1.152-1.728-1.728-3.672-1.728-5.832v-14.399c0-1.44,0.264-2.784,0.792-4.032c0.576-1.296,1.32-2.399,2.232-3.312
		c0.96-0.96,2.064-1.704,3.312-2.232c1.296-0.576,2.664-0.864,4.104-0.864c1.44,0,2.784,0.288,4.032,0.864
		c1.296,0.528,2.4,1.272,3.312,2.232c0.96,0.911,1.704,2.016,2.232,3.312c0.576,1.248,0.864,2.592,0.864,4.032v7.2
		c0,0.912-0.312,1.68-0.936,2.304s-1.392,0.936-2.304,0.936h-11.16v3.96c0,0.816,0.216,1.561,0.648,2.232
		c0.432,0.624,1.032,1.104,1.8,1.44c0.768,0.288,1.536,0.359,2.304,0.216c0.768-0.145,1.44-0.504,2.016-1.08
		c0.624-0.672,1.368-1.008,2.232-1.008c0.912,0,1.704,0.336,2.376,1.008c0.624,0.672,0.936,1.439,0.936,2.304
		s-0.312,1.632-0.936,2.304c-1.536,1.488-3.336,2.425-5.4,2.809C264.833,358.348,262.841,358.156,260.873,357.34 M264.833,329.332
		c-1.104,0-2.04,0.384-2.808,1.151c-0.768,0.769-1.152,1.704-1.152,2.809v3.96h7.92v-3.96c0-1.104-0.384-2.04-1.152-2.809
		C266.873,329.716,265.937,329.332,264.833,329.332"/>
	<path id="path3010" inkscape:connector-curvature="0" d="M281.766,329.62c-0.912,0-1.68-0.313-2.304-0.937
		s-0.936-1.392-0.936-2.304s0.312-1.68,0.936-2.304s1.392-0.937,2.304-0.937h2.52v-11.448c0-0.911,0.312-1.68,0.936-2.304
		s1.392-0.936,2.304-0.936c0.912,0,1.68,0.312,2.304,0.936s0.936,1.393,0.936,2.304v11.448h3.96c0.912,0,1.68,0.313,2.304,0.937
		s0.936,1.392,0.936,2.304s-0.312,1.68-0.936,2.304s-1.392,0.937-2.304,0.937h-3.96v18.071c0,1.104,0.384,2.04,1.152,2.809
		c0.768,0.768,1.704,1.152,2.808,1.152c0.912,0,1.68,0.312,2.304,0.936s0.936,1.392,0.936,2.304s-0.312,1.681-0.936,2.305
		s-1.392,0.936-2.304,0.936c-1.44,0-2.808-0.288-4.104-0.864c-1.248-0.527-2.352-1.248-3.312-2.16
		c-0.912-0.96-1.656-2.063-2.232-3.312c-0.528-1.296-0.792-2.664-0.792-4.104V329.62H281.766L281.766,329.62"/>
	<path id="path3012" inkscape:connector-curvature="0" d="M314.589,336.964v-3.816c0-0.768-0.216-1.464-0.648-2.088
		c-0.432-0.672-1.008-1.151-1.728-1.439c-0.72-0.288-1.464-0.36-2.232-0.216c-0.768,0.144-1.416,0.504-1.944,1.079
		c-0.624,0.624-1.392,0.937-2.304,0.937c-0.864,0-1.608-0.313-2.232-0.937c-0.672-0.672-1.008-1.439-1.008-2.304
		s0.336-1.632,1.008-2.304c1.488-1.488,3.24-2.424,5.256-2.809c2.016-0.432,3.984-0.239,5.904,0.576
		c1.968,0.816,3.528,2.088,4.68,3.816c1.152,1.68,1.728,3.576,1.728,5.688v21.456c0,0.912-0.312,1.681-0.936,2.305
		s-1.392,0.936-2.304,0.936h-7.2c-1.44,0-2.808-0.288-4.104-0.864c-1.248-0.527-2.352-1.248-3.312-2.16
		c-0.912-0.96-1.656-2.063-2.232-3.312c-0.528-1.296-0.792-2.664-0.792-4.104c0-1.439,0.264-2.783,0.792-4.031
		c0.576-1.296,1.32-2.4,2.232-3.313c0.96-0.96,2.064-1.704,3.312-2.231c1.296-0.576,2.664-0.864,4.104-0.864H314.589
		 M310.629,343.443c-1.104,0-2.04,0.385-2.808,1.152s-1.152,1.704-1.152,2.808c0,1.104,0.384,2.04,1.152,2.809
		c0.768,0.768,1.704,1.152,2.808,1.152h3.96v-7.921H310.629"/>
	<path id="path3014" inkscape:connector-curvature="0" d="M340.262,309.964c1.68,0,3.24,0.313,4.68,0.936
		c1.488,0.624,2.784,1.488,3.888,2.593c1.104,1.104,1.968,2.399,2.592,3.888c0.624,1.44,0.936,3,0.936,4.68v23.904
		c0,1.68-0.312,3.264-0.936,4.752c-0.624,1.44-1.488,2.712-2.592,3.816c-1.104,1.104-2.4,1.968-3.888,2.592
		c-1.44,0.624-3,0.936-4.68,0.936h-8.64c-0.96,0-1.776-0.336-2.448-1.008s-1.008-1.488-1.008-2.448V313.42
		c0-0.96,0.336-1.776,1.008-2.448s1.488-1.008,2.448-1.008H340.262 M345.446,322.06c0-1.439-0.504-2.664-1.512-3.672
		c-1.008-1.008-2.232-1.512-3.672-1.512h-5.184v34.271h5.184c1.44,0,2.664-0.504,3.672-1.512c1.008-1.008,1.512-2.231,1.512-3.672
		V322.06"/>
	<path id="path3016" inkscape:connector-curvature="0" d="M364.795,357.34c-2.017-0.816-3.601-2.088-4.752-3.816
		c-1.152-1.728-1.729-3.672-1.729-5.832v-14.399c0-1.44,0.264-2.784,0.792-4.032c0.576-1.296,1.32-2.399,2.232-3.312
		c0.96-0.96,2.063-1.704,3.312-2.232c1.296-0.576,2.664-0.864,4.104-0.864c1.439,0,2.784,0.288,4.032,0.864
		c1.296,0.528,2.399,1.272,3.312,2.232c0.96,0.911,1.704,2.016,2.232,3.312c0.575,1.248,0.863,2.592,0.863,4.032v7.2
		c0,0.912-0.312,1.68-0.936,2.304s-1.393,0.936-2.304,0.936h-11.16v3.96c0,0.816,0.216,1.561,0.647,2.232
		c0.433,0.624,1.032,1.104,1.8,1.44c0.769,0.288,1.536,0.359,2.305,0.216c0.768-0.145,1.439-0.504,2.016-1.08
		c0.624-0.672,1.368-1.008,2.232-1.008c0.912,0,1.704,0.336,2.376,1.008c0.624,0.672,0.936,1.439,0.936,2.304
		s-0.312,1.632-0.936,2.304c-1.536,1.488-3.336,2.425-5.4,2.809C368.755,358.348,366.763,358.156,364.795,357.34 M368.755,329.332
		c-1.104,0-2.04,0.384-2.809,1.151c-0.768,0.769-1.151,1.704-1.151,2.809v3.96h7.92v-3.96c0-1.104-0.385-2.04-1.152-2.809
		C370.795,329.716,369.858,329.332,368.755,329.332"/>
	<path id="path3018" inkscape:connector-curvature="0" d="M395.408,350.716c0.864-0.72,1.248-1.656,1.152-2.808
		c-0.097-1.2-0.576-2.088-1.44-2.664l-6.768-4.681c-1.2-0.863-2.16-1.92-2.881-3.168c-0.72-1.296-1.128-2.688-1.224-4.176
		s0.12-2.904,0.648-4.248c0.575-1.392,1.416-2.592,2.52-3.6c1.104-0.96,2.353-1.656,3.744-2.088c1.392-0.433,2.832-0.528,4.32-0.288
		c1.439,0.24,2.76,0.768,3.96,1.584c1.199,0.815,2.184,1.872,2.952,3.168c0.432,0.768,0.527,1.584,0.287,2.448
		c-0.191,0.863-0.695,1.512-1.512,1.943c-0.768,0.433-1.584,0.552-2.448,0.36c-0.863-0.24-1.512-0.744-1.943-1.512
		c-0.528-0.912-1.296-1.44-2.305-1.584c-0.96-0.192-1.848,0.071-2.663,0.792c-0.816,0.672-1.177,1.535-1.08,2.592
		c0.096,1.008,0.552,1.824,1.367,2.447l6.696,4.681c1.248,0.912,2.232,2.016,2.952,3.312c0.768,1.296,1.2,2.712,1.296,4.248
		s-0.144,3-0.72,4.393c-0.528,1.392-1.368,2.615-2.521,3.672c-1.104,1.008-2.376,1.728-3.815,2.16
		c-1.44,0.432-2.929,0.527-4.464,0.288c-1.536-0.24-2.929-0.769-4.177-1.585c-1.199-0.863-2.184-1.968-2.951-3.312
		c-0.433-0.768-0.553-1.584-0.36-2.448c0.24-0.863,0.744-1.512,1.512-1.943c0.816-0.433,1.656-0.528,2.521-0.288
		c0.863,0.191,1.512,0.672,1.943,1.439c0.528,1.008,1.368,1.584,2.521,1.729C393.584,351.771,394.544,351.483,395.408,350.716"/>
	<path id="path3020" inkscape:connector-curvature="0" d="M412.482,319.252c-1.104,0-2.04-0.384-2.809-1.152
		c-0.768-0.768-1.151-1.704-1.151-2.808c0-1.104,0.384-2.04,1.151-2.809c0.769-0.768,1.704-1.151,2.809-1.151
		c1.104,0,2.04,0.384,2.808,1.151c0.768,0.769,1.152,1.704,1.152,2.809c0,1.104-0.385,2.04-1.152,2.808
		C414.522,318.868,413.585,319.252,412.482,319.252 M415.721,354.892c0,0.912-0.312,1.681-0.936,2.305s-1.392,0.936-2.304,0.936
		s-1.681-0.312-2.305-0.936s-0.936-1.393-0.936-2.305v-28.8c0-0.912,0.312-1.68,0.936-2.304s1.393-0.937,2.305-0.937
		s1.68,0.313,2.304,0.937s0.936,1.392,0.936,2.304V354.892"/>
	<path id="path3022" inkscape:connector-curvature="0" d="M433.161,357.844c-1.44,0-2.809-0.288-4.104-0.864
		c-1.248-0.527-2.352-1.248-3.312-2.159c-0.912-0.961-1.656-2.064-2.232-3.313c-0.528-1.296-0.792-2.664-0.792-4.104V333.58
		c0-1.44,0.264-2.784,0.792-4.032c0.576-1.296,1.32-2.4,2.232-3.313c0.96-0.96,2.063-1.703,3.312-2.231
		c1.296-0.576,2.664-0.864,4.104-0.864h7.2c0.911,0,1.68,0.313,2.304,0.937s0.936,1.392,0.936,2.304v35.712
		c0,2.16-0.576,4.104-1.728,5.832c-1.152,1.728-2.712,3-4.68,3.816c-2.017,0.815-4.057,1.008-6.12,0.575
		c-2.017-0.384-3.769-1.319-5.257-2.808c-0.672-0.672-1.008-1.44-1.008-2.304c0-0.864,0.336-1.632,1.008-2.305
		c0.624-0.672,1.368-1.008,2.232-1.008c0.912,0,1.68,0.336,2.304,1.008c0.576,0.576,1.248,0.937,2.017,1.08
		c0.815,0.145,1.584,0.072,2.304-0.216c0.768-0.336,1.368-0.84,1.8-1.512c0.432-0.624,0.648-1.344,0.648-2.16v-4.248H433.161
		 M433.161,329.62c-1.104,0-2.04,0.384-2.809,1.151c-0.768,0.769-1.151,1.704-1.151,2.809v13.824c0,1.104,0.384,2.039,1.151,2.808
		c0.769,0.768,1.704,1.152,2.809,1.152h3.96V329.62H433.161"/>
	<path id="path3024" inkscape:connector-curvature="0" d="M454.388,358.132c-0.912,0-1.681-0.312-2.305-0.936
		s-0.936-1.393-0.936-2.305V326.38c0-0.912,0.312-1.68,0.936-2.304s1.393-0.937,2.305-0.937h7.199c1.44,0,2.784,0.288,4.032,0.864
		c1.296,0.528,2.4,1.272,3.313,2.232c0.96,0.911,1.704,2.016,2.231,3.312c0.576,1.248,0.864,2.592,0.864,4.032v21.312
		c0,0.912-0.336,1.681-1.008,2.305c-0.624,0.624-1.368,0.936-2.232,0.936c-0.912,0-1.68-0.312-2.304-0.936s-0.936-1.393-0.936-2.305
		V333.58c0-1.104-0.385-2.04-1.152-2.809c-0.769-0.768-1.704-1.151-2.808-1.151h-3.961v25.271c0,0.912-0.336,1.681-1.008,2.305
		C455.995,357.82,455.251,358.132,454.388,358.132"/>
</g>
<text transform="matrix(1 0 0 1 494.0226 77.9526)" font-family="'TitilliumText25L-600wt'" font-size="40">System Map</text>
<text transform="matrix(1 0 0 1 425.1964 77.9526)" font-family="'TitilliumText25L-600wt'" font-size="20">0.1</text>
<rect id="rect25259" x="35.433" y="113.386" fill="#F6F6F6" stroke="#000000" stroke-width="1.7908" stroke-linejoin="round" width="1417.323" height="832.677"/>
<text transform="matrix(1 0 0 1 35.4327 1008.9291)" font-family="'TitilliumText25L-600wt'" font-size="14">Designed by:</text>
<text transform="matrix(1 0 0 1 36.7628 973.4955)" font-family="'TitilliumText25L-600wt'" font-size="14">Project:</text>
<text transform="matrix(1 0 0 1 407.4801 973.4955)" font-family="'TitilliumText25L-600wt'" font-size="14">Link:</text>
<text transform="matrix(1 0 0 1 406.6769 1008.9291)" font-family="'TitilliumText25L-600wt'" font-size="14">Designed for:</text>
<path id="path25277" sodipodi:nodetypes="cc" inkscape:connector-curvature="0" fill="none" stroke="#CFCFCF" stroke-width="1.4127" stroke-dasharray="1.4127,4.238" d="
	M90.619,973.496c246.404,0,299.145,0,299.145,0"/>
<path id="path25279" sodipodi:nodetypes="cc" inkscape:connector-curvature="0" fill="none" stroke="#CFCFCF" stroke-width="1.5027" stroke-dasharray="1.5027,4.508" d="
	M442.865,973.496c298.713,0,318.946,0,318.946,0"/>
<path id="path25281" sodipodi:nodetypes="cc" inkscape:connector-curvature="0" fill="none" stroke="#CFCFCF" stroke-width="1.3717" stroke-dasharray="1.3717,4.1152" d="
	M121.692,1008.929c232.333,0,268.072,0,268.072,0"/>
<path id="path25301" sodipodi:nodetypes="cc" inkscape:connector-curvature="0" fill="none" stroke="#CFCFCF" stroke-width="1.3717" stroke-dasharray="1.3717,4.1152" d="
	M495.239,1008.929c232.333,0,267.929,0,267.929,0"/>
<a id="layer1" xlink:href="http://creativecommons.org/licenses/by-sa/3.0/"  transform="translate(0,2.988066e-5)" inkscape:groupmode="layer" xlink:title="CC BY-SA" inkscape:label="Layout">
	
		<a id="a3150" xlink:href="http://www.mepss.nl/index.php?p=tool&amp;l4=W21"  xlink:title="http://www.mepss.nl/index.php?p=tool&amp;l4=W21">
		<text transform="matrix(1.7791 0 0 1.7791 -406.8826 834.9479)" font-family="'TitilliumText25L-250wt'" font-size="9">Original development of the System Map: http://www.mepss.nl/index.php?p=tool&amp;l4=W21</text>
	</a>
	<text transform="matrix(1.7791 0 0 1.7791 -14.9239 -532.6959)" font-family="'TitilliumText25L-800wt'" font-size="15">Boundaries of the Activity</text>
</a>
<rect id="rect5744" x="48.536" y="715.747" opacity="0.5" fill="#FFFFFF" stroke="#797979" stroke-width="4.0422" stroke-dasharray="4.0422,8.0843" enable-background="new    " width="363.794" height="215.582"/>
<rect id="rect3155" x="425.197" y="255.119" fill="#FFFFFF" stroke="#000000" stroke-width="7.0866" width="761.811" height="442.913"/>
<path fill="none" d=""/>
<path id="path4266" stroke="#000000" d="M137.461,803.39l-18.39,10.63v-21.26L137.461,803.39z"/>
<path id="path4112" inkscape:connector-curvature="0" stroke="#000000" d="M125.194,803.39"/>
<path fill="none" d=""/>
<path id="path4266_1_" fill="#828282" d="M137.461,881.972l-18.39,10.63v-21.26L137.461,881.972z"/>
<path id="path4932" inkscape:connector-curvature="0" opacity="0.5" stroke="#000000" enable-background="new    " d="
	M125.194,881.972"/>
<text transform="matrix(1 0 0 1 69.9547 748.4272)" font-family="'TitilliumText25L-800wt'" font-size="11">Material flow</text>
<path fill="none" d=""/>
<path id="path4203" stroke="#000000" d="M256.018,797.343l-5.011,5.012l5.011,5.011l5.011-5.011L256.018,797.343z"/>
<path id="path4934" inkscape:connector-curvature="0" stroke="#000000" d="M256.018,802.355"/>
<path fill="none" d=""/>
<path id="path4203_1_" fill="#828282" d="M256.018,875.926l-5.011,5.011l5.011,5.012l5.011-5.012L256.018,875.926z"/>
<path id="path4936" inkscape:connector-curvature="0" opacity="0.5" stroke="#000000" enable-background="new    " d="
	M256.018,880.937"/>
<text transform="matrix(1 0 0 1 191.0577 748.4272)" font-family="'TitilliumText25L-800wt'" font-size="11">Information flow</text>
<path fill="none" d=""/>
<path id="path4185" stroke="#000000" d="M389.984,802.283c0,2.934-2.381,5.314-5.314,5.314s-5.315-2.381-5.315-5.314
	s2.382-5.315,5.315-5.315S389.984,799.349,389.984,802.283z"/>
<path id="path4938" inkscape:connector-curvature="0" stroke="#000000" d="M384.776,802.283"/>
<path fill="none" d=""/>
<path id="path4185_1_" fill="#828282" d="M389.984,880.865c0,2.935-2.381,5.315-5.314,5.315s-5.315-2.381-5.315-5.315
	c0-2.934,2.382-5.314,5.315-5.314S389.984,877.931,389.984,880.865z"/>
<path id="path4940" inkscape:connector-curvature="0" opacity="0.5" stroke="#000000" enable-background="new    " d="
	M384.776,880.865"/>
<text transform="matrix(1 0 0 1 326.2316 748.4272)" font-family="'TitilliumText25L-800wt'" font-size="11">Financial flow</text>
<text transform="matrix(1 0 0 1 81.713 826.4272)" font-family="'TitilliumText25L-400wt'" font-size="10">Core flow</text>
<text transform="matrix(1 0 0 1 211.0656 826.4272)" font-family="'TitilliumText25L-400wt'" font-size="10">Core flow</text>
<text transform="matrix(1 0 0 1 339.5905 826.4272)" font-family="'TitilliumText25L-400wt'" font-size="10">Core flow</text>
<text transform="matrix(1 0 0 1 66.7037 906.4272)" font-family="'TitilliumText25L-400wt'" font-size="10">Back-office flow</text>
<text transform="matrix(1 0 0 1 196.0563 906.4272)" font-family="'TitilliumText25L-400wt'" font-size="10">Back-office flow</text>
<text transform="matrix(1 0 0 1 324.5807 906.4272)" font-family="'TitilliumText25L-400wt'" font-size="10">Back-office flow</text>
<g id="layer2" inkscape:groupmode="layer" inkscape:label="Editable text">
	<text transform="matrix(1 0 0 1 119.67 1008.9291)" enable-background="new    "><tspan x="0" y="0" font-family="'TitilliumText25L-250wt'" font-size="14">Chao Zhuang</tspan><tspan x="79.491" y="0" font-family="'AdobeSongStd-Light-GBpc-EUC-H'" font-size="14">,</tspan><tspan x="82.822" y="0" font-family="'TitilliumText25L-250wt'" font-size="14">Tomi Koponen, </tspan><tspan x="0" y="16.8" font-family="'TitilliumText25L-250wt'" font-size="14">Katariina Kunnaton, Andreas Ahlbäck</tspan></text>
	<text transform="matrix(1 0 0 1 88.5822 973.4955)" font-family="'TitilliumText25L-250wt'" font-size="14">Why is Chemistry _______?</text>
	<text transform="matrix(1 0 0 1 440.8927 973.4955)" font-family="'TitilliumText25L-250wt'" font-size="14">http://www.google.com</text>
	<text transform="matrix(1 0 0 1 493.8112 1008.9291)" font-family="'TitilliumText25L-250wt'" font-size="14">Organization</text>
</g>
<polyline fill="none" stroke="#000000" stroke-width="9" stroke-miterlimit="10" points="88.582,774.789 88.582,803.39 
	125.194,803.39 "/>
<g>
	<g>
		
			<line fill="none" stroke="#000000" stroke-width="2" stroke-miterlimit="10" x1="219.406" y1="773.753" x2="219.406" y2="774.753"/>
		
			<line fill="none" stroke="#000000" stroke-width="2" stroke-miterlimit="10" stroke-dasharray="2.0463,2.0463" x1="219.406" y1="776.799" x2="219.406" y2="800.331"/>
		<polyline fill="none" stroke="#000000" stroke-width="2" stroke-miterlimit="10" points="219.406,801.355 219.406,802.355 
			220.406,802.355 		"/>
		
			<line fill="none" stroke="#000000" stroke-width="2" stroke-miterlimit="10" stroke-dasharray="2.036,2.036" x1="222.442" y1="802.355" x2="254" y2="802.355"/>
		
			<line fill="none" stroke="#000000" stroke-width="2" stroke-miterlimit="10" x1="255.018" y1="802.355" x2="256.018" y2="802.355"/>
	</g>
</g>
<g>
	<g>
		
			<line fill="none" stroke="#000000" stroke-width="2" stroke-linecap="round" stroke-linejoin="round" x1="348.057" y1="773.753" x2="348.057" y2="774.253"/>
		
			<line fill="none" stroke="#000000" stroke-width="2" stroke-linecap="round" stroke-linejoin="round" stroke-dasharray="0.9518,3.8071" x1="348.057" y1="778.06" x2="348.057" y2="799.952"/>
		<polyline fill="none" stroke="#000000" stroke-width="2" stroke-linecap="round" stroke-linejoin="round" points="
			348.057,801.855 348.057,802.355 348.557,802.355 		"/>
		
			<line fill="none" stroke="#000000" stroke-width="2" stroke-linecap="round" stroke-linejoin="round" stroke-dasharray="1.0474,4.1897" x1="352.747" y1="802.355" x2="382.075" y2="802.355"/>
		
			<line fill="none" stroke="#000000" stroke-width="2" stroke-linecap="round" stroke-linejoin="round" x1="384.17" y1="802.355" x2="384.67" y2="802.355"/>
	</g>
</g>
<polyline fill="none" stroke="#828282" stroke-width="9" stroke-miterlimit="10" points="88.582,853.371 88.582,881.972 
	125.194,881.972 "/>
<g>
	<g>
		
			<line fill="none" stroke="#828282" stroke-width="2" stroke-miterlimit="10" x1="219.406" y1="852.335" x2="219.406" y2="853.335"/>
		
			<line fill="none" stroke="#828282" stroke-width="2" stroke-miterlimit="10" stroke-dasharray="2.0463,2.0463" x1="219.406" y1="855.381" x2="219.406" y2="878.914"/>
		<polyline fill="none" stroke="#828282" stroke-width="2" stroke-miterlimit="10" points="219.406,879.937 219.406,880.937 
			220.406,880.937 		"/>
		
			<line fill="none" stroke="#828282" stroke-width="2" stroke-miterlimit="10" stroke-dasharray="2.036,2.036" x1="222.442" y1="880.937" x2="254" y2="880.937"/>
		
			<line fill="none" stroke="#828282" stroke-width="2" stroke-miterlimit="10" x1="255.018" y1="880.937" x2="256.018" y2="880.937"/>
	</g>
</g>
<g>
	<g>
		
			<line fill="none" stroke="#828282" stroke-width="2" stroke-linecap="round" stroke-linejoin="round" x1="348.057" y1="852.335" x2="348.057" y2="852.835"/>
		
			<line fill="none" stroke="#828282" stroke-width="2" stroke-linecap="round" stroke-linejoin="round" stroke-dasharray="0.9518,3.8071" x1="348.057" y1="856.642" x2="348.057" y2="878.534"/>
		<polyline fill="none" stroke="#828282" stroke-width="2" stroke-linecap="round" stroke-linejoin="round" points="
			348.057,880.437 348.057,880.937 348.557,880.937 		"/>
		
			<line fill="none" stroke="#828282" stroke-width="2" stroke-linecap="round" stroke-linejoin="round" stroke-dasharray="1.0474,4.1897" x1="352.747" y1="880.937" x2="382.075" y2="880.937"/>
		
			<line fill="none" stroke="#828282" stroke-width="2" stroke-linecap="round" stroke-linejoin="round" x1="384.17" y1="880.937" x2="384.67" y2="880.937"/>
	</g>
</g>
</svg>
