<?xml version="1.0" encoding="utf-8"?>
<!-- Generator: Adobe Illustrator 14.0.0, SVG Export Plug-In . SVG Version: 6.00 Build 43363)  -->
<!DOCTYPE svg PUBLIC "-//W3C//DTD SVG 1.1//EN" "http://www.w3.org/Graphics/SVG/1.1/DTD/svg11.dtd">
<svg version="1.1" id="Layer_1" xmlns="http://www.w3.org/2000/svg" xmlns:xlink="http://www.w3.org/1999/xlink" x="0px" y="0px"
	 width="1488.19px" height="1052.36px" viewBox="0 0 1488.19 1052.36" enable-background="new 0 0 1488.19 1052.36"
	 xml:space="preserve">
<g>
	<defs>
		<rect id="SVGID_1_" y="0" width="1488.19" height="1052.36"/>
	</defs>
	<clipPath id="SVGID_2_">
		<use xlink:href="#SVGID_1_"  overflow="visible"/>
	</clipPath>
	<g clip-path="url(#SVGID_2_)">
		<defs>
			<rect id="SVGID_3_" y="0" width="1488.188" height="1052.361"/>
		</defs>
		<clipPath id="SVGID_4_">
			<use xlink:href="#SVGID_3_"  overflow="visible"/>
		</clipPath>
		<g clip-path="url(#SVGID_4_)" enable-background="new    ">
			<g>
				<defs>
					<rect id="SVGID_5_" x="799.5" y="961.648" width="404.95" height="33.487"/>
				</defs>
				<clipPath id="SVGID_6_">
					<use xlink:href="#SVGID_5_"  overflow="visible"/>
				</clipPath>
				<g clip-path="url(#SVGID_6_)" enable-background="new    ">
					<g>
						<defs>
							<rect id="SVGID_7_" x="799.5" y="962.498" width="372.23" height="10.139"/>
						</defs>
						<clipPath id="SVGID_8_">
							<use xlink:href="#SVGID_7_"  overflow="visible"/>
						</clipPath>
						<g clip-path="url(#SVGID_8_)">
							<text transform="matrix(1 0 0 1 799.5269 970.1338)" font-family="'TitilliumText25L-250wt'" font-size="9">This work is licensed under the Creative Commons Attribution-Share Alike 3.0 Unported License.</text>
						</g>
					</g>
				</g>
				<g clip-path="url(#SVGID_6_)">
					<text transform="matrix(1 0 0 1 1171.7339 970.1338)" font-family="'TitilliumText25L-250wt'" font-size="10"> </text>
				</g>
				<g clip-path="url(#SVGID_6_)" enable-background="new    ">
					<g>
						<defs>
							<rect id="SVGID_9_" x="799.5" y="973.747" width="329.021" height="10.139"/>
						</defs>
						<clipPath id="SVGID_10_">
							<use xlink:href="#SVGID_9_"  overflow="visible"/>
						</clipPath>
						<g clip-path="url(#SVGID_10_)">
							<text transform="matrix(1 0 0 1 799.5269 981.3838)" font-family="'TitilliumText25L-250wt'" font-size="9">To view a copy of this license, visit http://creativecommons.org/licenses/by-sa/3.0/</text>
						</g>
					</g>
				</g>
				<g clip-path="url(#SVGID_6_)">
					<text transform="matrix(1 0 0 1 1128.5161 981.3838)" font-family="'TitilliumText25L-250wt'" font-size="10"> </text>
				</g>
				<g clip-path="url(#SVGID_6_)" enable-background="new    ">
					<g>
						<defs>
							<rect id="SVGID_11_" x="799.528" y="984.997" width="404.922" height="10.139"/>
						</defs>
						<clipPath id="SVGID_12_">
							<use xlink:href="#SVGID_11_"  overflow="visible"/>
						</clipPath>
						<g clip-path="url(#SVGID_12_)">
							<text transform="matrix(1 0 0 1 799.5269 992.6338)" font-family="'TitilliumText25L-250wt'" font-size="9">or send a letter to Creative Commons, 171 Second Street, Suite 300, San Francisco, California, 94105, USA.</text>
						</g>
					</g>
				</g>
			</g>
		</g>
	</g>
	<g clip-path="url(#SVGID_2_)">
		<defs>
			<rect id="SVGID_13_" x="1411.052" y="956.641" width="45.845" height="45.847"/>
		</defs>
		<clipPath id="SVGID_14_">
			<use xlink:href="#SVGID_13_"  overflow="visible"/>
		</clipPath>
		<path clip-path="url(#SVGID_14_)" d="M1433.944,960.186c5.361,0,9.883,1.841,13.563,5.521c3.704,3.704,5.556,8.226,5.556,13.564
			c0,5.363-1.816,9.827-5.453,13.395c-3.863,3.795-8.418,5.691-13.666,5.691c-5.158,0-9.635-1.874-13.428-5.624
			c-3.75-3.748-5.625-8.235-5.625-13.462c0-5.226,1.875-9.747,5.625-13.564C1424.196,962.026,1428.672,960.186,1433.944,960.186
			 M1434.012,963.628c-4.34,0-8.01,1.522-11.01,4.567c-3.113,3.181-4.668,6.873-4.668,11.076c0,4.227,1.543,7.886,4.634,10.975
			c3.091,3.091,6.772,4.635,11.044,4.635c4.247,0,7.951-1.556,11.109-4.669c3-2.885,4.5-6.532,4.5-10.94
			c0-4.34-1.523-8.032-4.566-11.076C1442.007,965.15,1438.329,963.628,1434.012,963.628 M1439.124,974.535v7.805h-2.182v9.27h-5.93
			v-9.27h-2.182v-7.805c0-0.342,0.119-0.631,0.359-0.87c0.237-0.238,0.526-0.357,0.869-0.357h7.838c0.317,0,0.602,0.119,0.852,0.357
			C1438.999,973.904,1439.124,974.193,1439.124,974.535 M1431.319,969.626c0-1.794,0.887-2.692,2.658-2.692
			c1.773,0,2.657,0.898,2.657,2.692c0,1.772-0.884,2.659-2.657,2.659C1432.206,972.285,1431.319,971.398,1431.319,969.626"/>
		<path clip-path="url(#SVGID_14_)" fill="none" stroke="#000000" stroke-width="0.592" d="M1404.798,1002.487h-18.755
			 M1411.051,1008.738v18.756 M1404.798,956.64h-18.755 M1411.051,950.389v-18.756 M1463.149,956.64h18.756 M1456.899,950.389
			v-18.756 M1463.149,1002.487h18.756 M1456.899,1008.738v18.756"/>
	</g>
	<g clip-path="url(#SVGID_2_)">
		<defs>
			<rect id="SVGID_15_" x="1208.016" y="956.641" width="45.846" height="45.847"/>
		</defs>
		<clipPath id="SVGID_16_">
			<use xlink:href="#SVGID_15_"  overflow="visible"/>
		</clipPath>
		<path clip-path="url(#SVGID_16_)" d="M1230.907,960.186c5.34,0,9.885,1.863,13.633,5.59c1.795,1.795,3.158,3.846,4.09,6.152
			c0.931,2.306,1.398,4.754,1.398,7.344c0,2.613-0.461,5.062-1.381,7.345c-0.921,2.284-2.279,4.301-4.072,6.05
			c-1.863,1.841-3.977,3.25-6.34,4.226c-2.363,0.978-4.805,1.466-7.328,1.466c-2.521,0-4.936-0.482-7.242-1.448
			c-2.307-0.965-4.373-2.362-6.203-4.192c-1.83-1.828-3.221-3.891-4.174-6.186c-0.955-2.295-1.432-4.715-1.432-7.26
			c0-2.521,0.482-4.947,1.449-7.276c0.964-2.329,2.367-4.413,4.207-6.254C1221.149,962.038,1225.614,960.186,1230.907,960.186
			 M1230.974,963.628c-4.36,0-8.03,1.522-11.007,4.567c-1.5,1.522-2.652,3.232-3.459,5.13c-0.807,1.896-1.211,3.879-1.211,5.946
			c0,2.046,0.404,4.017,1.211,5.913c0.807,1.897,1.959,3.591,3.459,5.078c1.5,1.489,3.191,2.625,5.078,3.408
			c1.885,0.784,3.861,1.176,5.929,1.176c2.045,0,4.028-0.397,5.948-1.192s3.652-1.942,5.197-3.442
			c2.977-2.908,4.467-6.555,4.467-10.94c0-2.113-0.389-4.112-1.16-5.998s-1.896-3.566-3.373-5.045
			C1238.985,965.162,1235.292,963.628,1230.974,963.628 M1230.737,976.103l-2.557,1.328c-0.271-0.567-0.607-0.965-1.006-1.192
			c-0.396-0.227-0.766-0.341-1.107-0.341c-1.703,0-2.555,1.125-2.555,3.374c0,1.022,0.214,1.841,0.646,2.454
			c0.432,0.614,1.067,0.92,1.908,0.92c1.113,0,1.898-0.545,2.354-1.636l2.352,1.193c-0.5,0.932-1.193,1.664-2.08,2.198
			s-1.863,0.801-2.93,0.801c-1.704,0-3.079-0.522-4.125-1.567c-1.045-1.046-1.568-2.5-1.568-4.363c0-1.817,0.529-3.26,1.586-4.328
			s2.391-1.602,4.004-1.602C1228.022,973.342,1229.715,974.262,1230.737,976.103 M1241.745,976.103l-2.521,1.328
			c-0.271-0.567-0.607-0.965-1.006-1.192c-0.396-0.227-0.777-0.341-1.141-0.341c-1.705,0-2.558,1.125-2.558,3.374
			c0,1.022,0.218,1.841,0.647,2.454c0.432,0.614,1.068,0.92,1.91,0.92c1.113,0,1.896-0.545,2.352-1.636l2.385,1.193
			c-0.523,0.932-1.227,1.664-2.113,2.198c-0.885,0.534-1.852,0.801-2.896,0.801c-1.727,0-3.107-0.522-4.141-1.567
			c-1.033-1.046-1.551-2.5-1.551-4.363c0-1.817,0.528-3.26,1.584-4.328c1.057-1.068,2.393-1.602,4.006-1.602
			C1239.065,973.342,1240.747,974.262,1241.745,976.103"/>
		<path clip-path="url(#SVGID_16_)" fill="none" stroke="#000000" stroke-width="0.592" d="M1201.764,1002.487h-18.757
			 M1208.016,1008.738v18.756 M1201.764,956.64h-18.757 M1208.016,950.389v-18.756 M1260.114,956.64h18.756 M1253.862,950.389
			v-18.756 M1260.114,1002.487h18.756 M1253.862,1008.738v18.756"/>
	</g>
	<g clip-path="url(#SVGID_2_)">
		<defs>
			<rect id="SVGID_17_" x="1306.854" y="956.641" width="45.848" height="45.847"/>
		</defs>
		<clipPath id="SVGID_18_">
			<use xlink:href="#SVGID_17_"  overflow="visible"/>
		</clipPath>
		<path clip-path="url(#SVGID_18_)" d="M1329.747,960.22c5.338,0,9.858,1.852,13.564,5.556c3.703,3.681,5.555,8.191,5.555,13.53
			c0,5.34-1.816,9.815-5.453,13.429c-3.84,3.771-8.395,5.657-13.666,5.657c-5.158,0-9.635-1.874-13.429-5.623
			c-3.75-3.749-5.625-8.236-5.625-13.463c0-5.203,1.875-9.714,5.625-13.53C1320.022,962.071,1324.497,960.22,1329.747,960.22
			 M1329.814,963.662c-4.341,0-8.009,1.533-11.009,4.601c-3.114,3.159-4.668,6.84-4.668,11.043c0,4.249,1.543,7.907,4.635,10.975
			c3.09,3.091,6.771,4.635,11.042,4.635c4.249,0,7.952-1.556,11.11-4.669c3-2.908,4.5-6.556,4.5-10.94
			c0-4.362-1.524-8.044-4.567-11.043C1337.834,965.195,1334.152,963.662,1329.814,963.662 M1321.293,976.613
			c0.363-2.34,1.307-4.152,2.83-5.438c1.521-1.282,3.373-1.925,5.555-1.925c2.998,0,5.385,0.966,7.156,2.897
			c1.772,1.932,2.658,4.408,2.658,7.43c0,2.931-0.92,5.368-2.761,7.311c-1.839,1.943-4.226,2.914-7.157,2.914
			c-2.158,0-4.021-0.647-5.588-1.942c-1.568-1.295-2.512-3.136-2.83-5.521h4.807c0.113,2.318,1.51,3.477,4.191,3.477
			c1.34,0,2.42-0.579,3.238-1.738s1.227-2.704,1.227-4.635c0-2.022-0.375-3.562-1.125-4.618s-1.828-1.585-3.238-1.585
			c-2.543,0-3.975,1.124-4.293,3.374h1.396l-3.782,3.783l-3.783-3.783H1321.293z"/>
		<path clip-path="url(#SVGID_18_)" fill="none" stroke="#000000" stroke-width="0.592" d="M1300.601,1002.487h-18.755
			 M1306.854,1008.738v18.756 M1300.601,956.64h-18.755 M1306.854,950.389v-18.756 M1358.952,956.64h18.756 M1352.702,950.389
			v-18.756 M1358.952,1002.487h18.756 M1352.702,1008.738v18.756"/>
	</g>
	<g clip-path="url(#SVGID_2_)">
		<defs>
			<rect id="SVGID_19_" x="1356.274" y="956.641" width="45.846" height="45.847"/>
		</defs>
		<clipPath id="SVGID_20_">
			<use xlink:href="#SVGID_19_"  overflow="visible"/>
		</clipPath>
		<path clip-path="url(#SVGID_20_)" d="M1379.167,960.22c5.337,0,9.859,1.852,13.564,5.556c3.703,3.681,5.555,8.191,5.555,13.53
			c0,5.34-1.818,9.815-5.453,13.429c-3.84,3.771-8.396,5.657-13.666,5.657c-5.161,0-9.635-1.874-13.43-5.623
			c-3.748-3.749-5.623-8.236-5.623-13.463c0-5.203,1.875-9.713,5.623-13.53C1369.44,962.071,1373.917,960.22,1379.167,960.22
			 M1379.233,963.662c-4.34,0-8.008,1.533-11.008,4.601c-3.113,3.159-4.668,6.84-4.668,11.043c0,4.249,1.543,7.907,4.633,10.975
			c3.09,3.091,6.771,4.635,11.043,4.635c4.25,0,7.953-1.556,11.111-4.669c3-2.908,4.5-6.556,4.5-10.94
			c0-4.362-1.523-8.044-4.568-11.043C1387.253,965.195,1383.573,963.662,1379.233,963.662 M1391.674,979.646l0.375,0.171v5.385
			l-0.342,0.171l-4.635,1.977l-0.205,0.067l-0.239-0.067l-9.985-4.124l-0.34-0.137l-4.941,2.045l-4.875-2.113v-4.907l4.568-1.909
			l-0.035-0.034v-5.385l5.18-2.283l11.691,4.84v4.737L1391.674,979.646z M1386.253,985.918v-3.374h-0.032v-0.137l-8.761-3.579v3.477
			l8.761,3.613v-0.034L1386.253,985.918z M1386.834,981.487l3.066-1.262l-2.828-1.192l-3,1.261L1386.834,981.487z M1390.856,984.418
			v-3.306l-3.408,1.432v3.34L1390.856,984.418z"/>
		<path clip-path="url(#SVGID_20_)" fill="none" stroke="#000000" stroke-width="0.592" d="M1350.022,1002.487h-18.757
			 M1356.274,1008.738v18.756 M1350.022,956.64h-18.757 M1356.274,950.389v-18.756 M1408.372,956.64h18.756 M1402.12,950.389
			v-18.756 M1408.372,1002.487h18.756 M1402.12,1008.738v18.756"/>
	</g>
	<g clip-path="url(#SVGID_2_)">
		<defs>
			<rect id="SVGID_21_" x="1257.436" y="956.641" width="45.846" height="45.847"/>
		</defs>
		<clipPath id="SVGID_22_">
			<use xlink:href="#SVGID_21_"  overflow="visible"/>
		</clipPath>
		<path clip-path="url(#SVGID_22_)" d="M1280.327,960.22c5.341,0,9.861,1.852,13.564,5.556c3.703,3.681,5.557,8.191,5.557,13.53
			c0,5.34-1.818,9.815-5.453,13.429c-3.84,3.772-8.396,5.657-13.668,5.657c-5.159,0-9.635-1.874-13.428-5.623
			c-3.75-3.749-5.625-8.236-5.625-13.463c0-5.203,1.875-9.713,5.625-13.53C1270.602,962.071,1275.079,960.22,1280.327,960.22
			 M1280.395,963.662c-4.34,0-8.01,1.533-11.008,4.601c-3.115,3.159-4.67,6.84-4.67,11.043c0,4.249,1.545,7.907,4.635,10.975
			c3.09,3.091,6.772,4.635,11.043,4.635c4.248,0,7.953-1.556,11.111-4.669c3-2.908,4.498-6.556,4.498-10.94
			c0-4.362-1.521-8.044-4.566-11.043C1288.416,965.195,1284.735,963.662,1280.395,963.662 M1288.167,973.853
			c0.294,0,0.544,0.102,0.748,0.307c0.204,0.204,0.308,0.455,0.308,0.75v14.042c0,0.296-0.104,0.545-0.308,0.749
			c-0.204,0.205-0.454,0.308-0.748,0.308h-10.396c-0.297,0-0.547-0.103-0.752-0.308c-0.203-0.204-0.307-0.453-0.307-0.749v-4.158
			h-4.156c-0.297,0-0.547-0.103-0.75-0.307c-0.205-0.205-0.308-0.454-0.308-0.75v-14.042c0-0.272,0.091-0.505,0.272-0.698
			s0.408-0.313,0.682-0.357h0.104h10.395c0.295,0,0.545,0.102,0.75,0.307c0.203,0.204,0.307,0.454,0.307,0.749v4.158H1288.167z
			 M1273.579,982.714h3.135v-7.805c0-0.272,0.092-0.506,0.273-0.698c0.181-0.193,0.396-0.313,0.648-0.358h0.137h4.156v-3.102h-8.35
			V982.714z M1287.143,975.932h-8.351v11.963h8.351V975.932z"/>
		<path clip-path="url(#SVGID_22_)" fill="none" stroke="#000000" stroke-width="0.592" d="M1251.181,1002.487h-18.754
			 M1257.434,1008.738v18.756 M1251.181,956.64h-18.754 M1257.434,950.389v-18.756 M1309.534,956.64h18.756 M1303.282,950.389
			v-18.756 M1309.534,1002.487h18.756 M1303.282,1008.738v18.756"/>
	</g>
	<g clip-path="url(#SVGID_2_)">
		<defs>
			<rect id="SVGID_23_" y="0" width="1488.188" height="1052.361"/>
		</defs>
		<clipPath id="SVGID_24_">
			<use xlink:href="#SVGID_23_"  overflow="visible"/>
		</clipPath>
		<path clip-path="url(#SVGID_24_)" d="M48.096,78.051c-1.68,0-3.264-0.312-4.752-0.936c-1.44-0.624-2.712-1.488-3.816-2.592
			s-1.968-2.376-2.592-3.816C36.312,69.219,36,67.635,36,65.955v-24.48c0-1.68,0.312-3.24,0.936-4.68
			c0.624-1.488,1.488-2.784,2.592-3.888s2.376-1.968,3.816-2.593c1.488-0.623,3.072-0.935,4.752-0.935s3.24,0.312,4.68,0.935
			c1.488,0.625,2.784,1.489,3.888,2.593s1.968,2.4,2.592,3.888c0.624,1.44,0.936,3,0.936,4.68v24.48c0,1.68-0.312,3.264-0.936,4.752
			c-0.624,1.439-1.488,2.712-2.592,3.816s-2.4,1.968-3.888,2.592C51.336,77.739,49.776,78.051,48.096,78.051 M48.096,36.291
			c-1.44,0-2.664,0.504-3.672,1.512c-1.008,1.008-1.512,2.232-1.512,3.672v24.48c0,1.44,0.504,2.664,1.512,3.672
			c1.008,1.008,2.232,1.512,3.672,1.512s2.664-0.504,3.672-1.512c1.008-1.008,1.512-2.232,1.512-3.672v-24.48
			c0-1.44-0.504-2.664-1.512-3.672C50.76,36.795,49.536,36.291,48.096,36.291"/>
		<path clip-path="url(#SVGID_24_)" d="M70.132,92.235c-0.912,0-1.68-0.312-2.304-0.936s-0.936-1.392-0.936-2.304V46.083
			c0-0.912,0.312-1.68,0.936-2.304s1.392-0.936,2.304-0.936h7.2c1.44,0,2.784,0.288,4.032,0.864c1.296,0.528,2.4,1.272,3.312,2.232
			c0.96,0.911,1.704,2.016,2.232,3.312c0.576,1.248,0.864,2.592,0.864,4.032v13.824c0,1.44-0.288,2.808-0.864,4.104
			c-0.528,1.248-1.272,2.352-2.232,3.312c-0.912,0.911-2.016,1.632-3.312,2.159c-1.248,0.577-2.592,0.865-4.032,0.865h-3.96v11.448
			c0,0.912-0.312,1.68-0.936,2.304S71.044,92.235,70.132,92.235 M81.292,53.283c0-1.104-0.384-2.04-1.152-2.809
			c-0.768-0.767-1.704-1.151-2.808-1.151h-3.96v21.744h3.96c1.104,0,2.04-0.385,2.808-1.152c0.768-0.768,1.152-1.704,1.152-2.808
			V53.283"/>
		<path clip-path="url(#SVGID_24_)" d="M100.493,77.043c-2.016-0.817-3.6-2.088-4.752-3.817c-1.152-1.727-1.728-3.671-1.728-5.832
			V52.995c0-1.44,0.264-2.784,0.792-4.032c0.576-1.296,1.32-2.4,2.232-3.312c0.96-0.96,2.064-1.704,3.312-2.232
			c1.296-0.576,2.664-0.864,4.104-0.864s2.784,0.288,4.032,0.864c1.296,0.528,2.4,1.272,3.312,2.232
			c0.96,0.911,1.704,2.016,2.232,3.312c0.576,1.248,0.864,2.592,0.864,4.032v7.2c0,0.912-0.312,1.68-0.936,2.304
			s-1.392,0.935-2.304,0.935h-11.16v3.96c0,0.817,0.216,1.561,0.647,2.233c0.433,0.624,1.033,1.104,1.801,1.44
			c0.768,0.288,1.536,0.36,2.304,0.216s1.44-0.504,2.016-1.08c0.624-0.672,1.368-1.008,2.232-1.008c0.912,0,1.704,0.336,2.376,1.008
			c0.624,0.672,0.936,1.439,0.936,2.304c0,0.864-0.312,1.632-0.936,2.303c-1.536,1.489-3.336,2.425-5.4,2.809
			C104.453,78.051,102.461,77.859,100.493,77.043 M104.453,49.035c-1.104,0-2.04,0.384-2.808,1.151
			c-0.768,0.769-1.152,1.704-1.152,2.809v3.96h7.92v-3.96c0-1.105-0.384-2.04-1.152-2.809
			C106.493,49.419,105.557,49.035,104.453,49.035"/>
		<path clip-path="url(#SVGID_24_)" d="M124.554,77.835c-0.912,0-1.68-0.312-2.304-0.936s-0.936-1.392-0.936-2.304V46.083
			c0-0.912,0.312-1.68,0.936-2.304s1.392-0.936,2.304-0.936h7.2c1.44,0,2.784,0.288,4.032,0.864c1.296,0.528,2.4,1.273,3.312,2.232
			c0.96,0.912,1.704,2.016,2.232,3.312c0.576,1.248,0.864,2.592,0.864,4.032v21.312c0,0.912-0.336,1.68-1.008,2.304
			c-0.624,0.624-1.368,0.936-2.232,0.936c-0.912,0-1.68-0.312-2.304-0.936s-0.936-1.392-0.936-2.304V53.283
			c0-1.104-0.384-2.04-1.152-2.808c-0.768-0.768-1.704-1.152-2.808-1.152h-3.96v25.271c0,0.912-0.336,1.68-1.008,2.304
			C126.162,77.523,125.418,77.835,124.554,77.835"/>
		<path clip-path="url(#SVGID_24_)" d="M166.601,78.051c-0.96,0-1.776-0.336-2.448-1.008c-0.672-0.672-1.008-1.488-1.008-2.448
			v-41.76c0-0.816,0.24-1.536,0.72-2.16s1.128-1.032,1.944-1.224s1.584-0.096,2.304,0.288c0.72,0.336,1.248,0.888,1.584,1.656
			c0.96,2.112,1.944,4.2,2.952,6.264c0.816,1.825,1.728,3.768,2.736,5.832c1.008,2.016,1.92,3.913,2.736,5.688
			c0.816-1.775,1.704-3.672,2.664-5.688c1.008-2.064,1.92-4.007,2.736-5.832c0.96-2.064,1.944-4.152,2.952-6.264
			c0.384-0.768,0.912-1.32,1.584-1.656c0.72-0.383,1.488-0.48,2.304-0.288c0.816,0.192,1.464,0.6,1.944,1.224
			c0.528,0.624,0.792,1.344,0.792,2.16v41.76c0,0.96-0.336,1.776-1.008,2.448c-0.672,0.672-1.488,1.008-2.448,1.008
			s-1.776-0.336-2.448-1.008c-0.672-0.672-1.008-1.488-1.008-2.448V48.316c-0.624,1.296-1.224,2.567-1.8,3.815
			c-0.576,1.248-1.104,2.353-1.584,3.313c-0.528,1.151-1.056,2.255-1.584,3.311c-0.288,0.624-0.72,1.128-1.296,1.512
			c-0.528,0.337-1.128,0.505-1.8,0.505c-1.488,0-2.544-0.673-3.168-2.017c-0.528-1.056-1.056-2.16-1.584-3.311
			c-0.48-0.96-1.008-2.065-1.584-3.313s-1.152-2.519-1.728-3.815v26.279c0,0.96-0.336,1.776-1.008,2.448
			C168.377,77.715,167.561,78.051,166.601,78.051"/>
		<path clip-path="url(#SVGID_24_)" d="M206.384,77.043c-2.016-0.817-3.6-2.088-4.752-3.817c-1.152-1.727-1.728-3.671-1.728-5.832
			V52.995c0-1.44,0.264-2.784,0.792-4.032c0.576-1.296,1.32-2.4,2.232-3.312c0.96-0.96,2.064-1.704,3.312-2.232
			c1.296-0.576,2.664-0.864,4.104-0.864s2.784,0.288,4.032,0.864c1.296,0.528,2.4,1.272,3.312,2.232
			c0.96,0.911,1.704,2.016,2.232,3.312c0.576,1.248,0.864,2.592,0.864,4.032v7.2c0,0.912-0.312,1.68-0.936,2.304
			s-1.392,0.935-2.304,0.935h-11.16v3.96c0,0.817,0.216,1.561,0.648,2.233c0.432,0.624,1.032,1.104,1.8,1.44
			c0.768,0.288,1.536,0.36,2.304,0.216s1.44-0.504,2.016-1.08c0.624-0.672,1.368-1.008,2.232-1.008c0.912,0,1.704,0.336,2.376,1.008
			c0.624,0.672,0.936,1.439,0.936,2.304c0,0.864-0.312,1.632-0.936,2.303c-1.536,1.489-3.336,2.425-5.4,2.809
			C210.344,78.051,208.352,77.859,206.384,77.043 M210.344,49.035c-1.104,0-2.04,0.384-2.808,1.151
			c-0.768,0.769-1.152,1.704-1.152,2.809v3.96h7.92v-3.96c0-1.105-0.384-2.04-1.152-2.809
			C212.384,49.419,211.448,49.035,210.344,49.035"/>
		<path clip-path="url(#SVGID_24_)" d="M227.277,49.323c-0.912,0-1.68-0.312-2.304-0.937c-0.624-0.624-0.936-1.391-0.936-2.303
			c0-0.912,0.312-1.68,0.936-2.304c0.624-0.624,1.392-0.936,2.304-0.936h2.52V31.395c0-0.911,0.312-1.679,0.936-2.303
			s1.392-0.936,2.304-0.936c0.912,0,1.68,0.312,2.304,0.936s0.936,1.392,0.936,2.303v11.449h3.96c0.912,0,1.68,0.312,2.304,0.936
			s0.936,1.392,0.936,2.304c0,0.912-0.312,1.679-0.936,2.303c-0.624,0.625-1.392,0.937-2.304,0.937h-3.96v18.071
			c0,1.104,0.384,2.04,1.152,2.809c0.768,0.767,1.704,1.152,2.808,1.152c0.912,0,1.68,0.312,2.304,0.936
			c0.624,0.624,0.936,1.391,0.936,2.303c0,0.913-0.312,1.681-0.936,2.305s-1.392,0.936-2.304,0.936c-1.44,0-2.808-0.288-4.104-0.865
			c-1.248-0.527-2.352-1.248-3.312-2.16c-0.912-0.96-1.656-2.063-2.232-3.311c-0.528-1.296-0.792-2.664-0.792-4.104V49.323H227.277"
			/>
		<path clip-path="url(#SVGID_24_)" d="M260.1,56.667v-3.817c0-0.767-0.216-1.464-0.648-2.088c-0.432-0.672-1.008-1.151-1.728-1.439
			c-0.72-0.288-1.464-0.361-2.232-0.216c-0.768,0.143-1.416,0.504-1.944,1.079c-0.624,0.624-1.392,0.937-2.304,0.937
			c-0.864,0-1.608-0.313-2.232-0.937c-0.672-0.672-1.008-1.439-1.008-2.304c0-0.864,0.336-1.632,1.008-2.303
			c1.488-1.489,3.24-2.424,5.256-2.809c2.016-0.432,3.984-0.239,5.904,0.576c1.968,0.817,3.528,2.088,4.68,3.817
			c1.152,1.679,1.728,3.576,1.728,5.687v21.456c0,0.912-0.312,1.681-0.936,2.305s-1.392,0.935-2.304,0.935h-7.2
			c-1.44,0-2.808-0.288-4.104-0.864c-1.248-0.527-2.352-1.248-3.312-2.16c-0.912-0.96-1.656-2.063-2.232-3.312
			c-0.528-1.295-0.792-2.664-0.792-4.104c0-1.439,0.264-2.783,0.792-4.031c0.576-1.296,1.32-2.401,2.232-3.313
			c0.96-0.96,2.064-1.704,3.312-2.231c1.296-0.576,2.664-0.864,4.104-0.864H260.1 M256.14,63.146c-1.104,0-2.04,0.385-2.808,1.152
			c-0.768,0.768-1.152,1.704-1.152,2.808s0.384,2.04,1.152,2.809c0.768,0.767,1.704,1.152,2.808,1.152h3.96v-7.921H256.14"/>
		<path clip-path="url(#SVGID_24_)" d="M285.772,29.667c1.68,0,3.24,0.313,4.68,0.936c1.488,0.624,2.784,1.488,3.888,2.593
			c1.104,1.103,1.968,2.399,2.592,3.887c0.624,1.441,0.936,3,0.936,4.68v23.904c0,1.68-0.312,3.264-0.936,4.752
			c-0.624,1.441-1.488,2.712-2.592,3.817c-1.104,1.103-2.4,1.967-3.888,2.591c-1.44,0.624-3,0.936-4.68,0.936h-8.64
			c-0.96,0-1.776-0.336-2.448-1.008c-0.672-0.672-1.008-1.488-1.008-2.448V33.123c0-0.96,0.336-1.776,1.008-2.448
			s1.488-1.008,2.448-1.008H285.772 M290.957,41.763c0-1.439-0.504-2.664-1.512-3.672c-1.008-1.008-2.232-1.512-3.672-1.512h-5.184
			v34.272h5.184c1.44,0,2.664-0.504,3.672-1.512c1.008-1.008,1.512-2.231,1.512-3.672V41.763"/>
		<path clip-path="url(#SVGID_24_)" d="M310.306,77.043c-2.017-0.817-3.601-2.088-4.752-3.817c-1.152-1.727-1.728-3.671-1.728-5.832
			V52.995c0-1.44,0.263-2.784,0.792-4.032c0.576-1.296,1.32-2.4,2.232-3.312c0.96-0.96,2.063-1.704,3.312-2.232
			c1.295-0.576,2.664-0.864,4.104-0.864c1.439,0,2.784,0.288,4.032,0.864c1.296,0.528,2.4,1.272,3.312,2.232
			c0.96,0.911,1.704,2.016,2.232,3.312c0.575,1.248,0.863,2.592,0.863,4.032v7.2c0,0.912-0.311,1.68-0.935,2.304
			s-1.393,0.935-2.304,0.935h-11.16v3.96c0,0.817,0.216,1.561,0.647,2.233c0.433,0.624,1.033,1.104,1.8,1.44
			c0.769,0.288,1.536,0.36,2.305,0.216c0.768-0.144,1.439-0.504,2.016-1.08c0.624-0.672,1.368-1.008,2.232-1.008
			c0.912,0,1.704,0.336,2.376,1.008c0.624,0.672,0.936,1.439,0.936,2.304c0,0.864-0.312,1.632-0.936,2.303
			c-1.536,1.489-3.336,2.425-5.4,2.809C314.266,78.051,312.273,77.859,310.306,77.043 M314.266,49.035
			c-1.104,0-2.04,0.384-2.809,1.151c-0.767,0.769-1.151,1.704-1.151,2.809v3.96h7.92v-3.96c0-1.105-0.385-2.04-1.152-2.809
			C316.306,49.419,315.37,49.035,314.266,49.035"/>
		<path clip-path="url(#SVGID_24_)" d="M340.919,70.419c0.864-0.72,1.248-1.656,1.152-2.808c-0.096-1.2-0.576-2.088-1.44-2.664
			l-6.768-4.68c-1.2-0.864-2.16-1.92-2.881-3.168c-0.719-1.296-1.127-2.688-1.223-4.176c-0.096-1.488,0.12-2.904,0.648-4.248
			c0.575-1.392,1.416-2.592,2.52-3.6c1.104-0.96,2.352-1.656,3.744-2.088c1.392-0.432,2.832-0.528,4.32-0.288
			c1.44,0.241,2.76,0.768,3.96,1.584c1.199,0.816,2.184,1.872,2.952,3.168c0.432,0.768,0.528,1.584,0.287,2.448
			c-0.191,0.864-0.695,1.512-1.511,1.944c-0.768,0.432-1.584,0.552-2.448,0.36c-0.864-0.24-1.512-0.744-1.944-1.512
			c-0.528-0.912-1.296-1.44-2.305-1.584c-0.959-0.192-1.847,0.072-2.663,0.792c-0.816,0.672-1.176,1.536-1.08,2.592
			c0.096,1.008,0.552,1.824,1.367,2.448l6.697,4.68c1.248,0.912,2.232,2.016,2.952,3.312c0.768,1.296,1.2,2.712,1.296,4.248
			c0.096,1.536-0.144,3-0.72,4.392c-0.528,1.392-1.368,2.616-2.52,3.672c-1.104,1.008-2.376,1.728-3.816,2.16
			c-1.44,0.432-2.929,0.528-4.464,0.288c-1.536-0.24-2.928-0.768-4.176-1.585c-1.2-0.863-2.184-1.967-2.952-3.311
			c-0.432-0.768-0.552-1.584-0.36-2.448c0.24-0.864,0.744-1.512,1.512-1.944c0.816-0.432,1.656-0.528,2.52-0.288
			c0.864,0.192,1.512,0.672,1.944,1.44c0.528,1.008,1.368,1.584,2.52,1.728C339.095,71.475,340.055,71.187,340.919,70.419"/>
		<path clip-path="url(#SVGID_24_)" d="M357.992,38.955c-1.105,0-2.04-0.383-2.809-1.152c-0.767-0.768-1.151-1.704-1.151-2.808
			s0.384-2.04,1.151-2.808c0.769-0.768,1.704-1.152,2.809-1.152c1.103,0,2.04,0.384,2.807,1.152
			c0.768,0.768,1.153,1.704,1.153,2.808s-0.385,2.04-1.153,2.808C360.032,38.572,359.095,38.955,357.992,38.955 M361.231,74.595
			c0,0.912-0.312,1.681-0.936,2.305s-1.391,0.935-2.303,0.935c-0.912,0-1.681-0.311-2.305-0.935s-0.935-1.393-0.935-2.305v-28.8
			c0-0.912,0.311-1.679,0.935-2.304c0.624-0.624,1.393-0.936,2.305-0.936c0.912,0,1.679,0.312,2.303,0.936
			c0.624,0.625,0.936,1.392,0.936,2.304V74.595"/>
		<path clip-path="url(#SVGID_24_)" d="M378.672,77.547c-1.44,0-2.809-0.288-4.104-0.865c-1.249-0.527-2.352-1.248-3.312-2.159
			c-0.912-0.961-1.656-2.064-2.232-3.312c-0.529-1.296-0.792-2.664-0.792-4.104V53.283c0-1.44,0.263-2.784,0.792-4.032
			c0.576-1.296,1.32-2.401,2.232-3.313c0.96-0.96,2.063-1.703,3.312-2.231c1.295-0.576,2.664-0.864,4.104-0.864h7.2
			c0.911,0,1.68,0.312,2.304,0.936s0.935,1.392,0.935,2.304v35.712c0,2.16-0.576,4.103-1.727,5.832c-1.152,1.727-2.712,3-4.68,3.816
			c-2.016,0.816-4.056,1.008-6.12,0.575c-2.016-0.383-3.768-1.319-5.257-2.807c-0.672-0.672-1.008-1.441-1.008-2.304
			c0-0.864,0.336-1.632,1.008-2.305c0.624-0.672,1.368-1.008,2.233-1.008c0.912,0,1.679,0.336,2.303,1.008
			c0.577,0.576,1.248,0.937,2.017,1.08c0.815,0.145,1.584,0.073,2.304-0.215c0.767-0.336,1.368-0.84,1.8-1.512
			c0.431-0.624,0.648-1.344,0.648-2.16v-4.248H378.672 M378.672,49.323c-1.104,0-2.04,0.384-2.809,1.151
			c-0.767,0.769-1.151,1.704-1.151,2.809v13.824c0,1.104,0.384,2.039,1.151,2.808c0.769,0.767,1.705,1.152,2.809,1.152h3.96V49.323
			H378.672"/>
		<path clip-path="url(#SVGID_24_)" d="M399.898,77.835c-0.912,0-1.681-0.312-2.305-0.936s-0.935-1.392-0.935-2.304V46.083
			c0-0.912,0.311-1.68,0.935-2.304s1.393-0.936,2.305-0.936h7.199c1.441,0,2.784,0.288,4.032,0.864
			c1.296,0.528,2.401,1.273,3.313,2.232c0.96,0.912,1.704,2.016,2.231,3.312c0.577,1.248,0.865,2.592,0.865,4.032v21.312
			c0,0.912-0.336,1.68-1.008,2.304c-0.624,0.624-1.368,0.936-2.233,0.936c-0.912,0-1.679-0.312-2.303-0.936
			c-0.624-0.624-0.936-1.392-0.936-2.304V53.283c0-1.104-0.385-2.04-1.152-2.808c-0.769-0.768-1.704-1.152-2.808-1.152h-3.961
			v25.271c0,0.912-0.336,1.68-1.008,2.304C401.505,77.523,400.761,77.835,399.898,77.835"/>
		<g clip-path="url(#SVGID_24_)" enable-background="new    ">
			<g>
				<defs>
					<rect id="SVGID_25_" x="494.022" y="44.07" width="215.277" height="45.601"/>
				</defs>
				<clipPath id="SVGID_26_">
					<use xlink:href="#SVGID_25_"  overflow="visible"/>
				</clipPath>
				<g clip-path="url(#SVGID_26_)" enable-background="new    ">
					<g>
						<defs>
							<rect id="SVGID_27_" x="494.022" y="44.07" width="215.277" height="45.601"/>
						</defs>
						<clipPath id="SVGID_28_">
							<use xlink:href="#SVGID_27_"  overflow="visible"/>
						</clipPath>
						<g clip-path="url(#SVGID_28_)">
							<text transform="matrix(1 0 0 1 494.0225 77.9512)" font-family="'TitilliumText25L-600wt'" font-size="40">System Map</text>
						</g>
					</g>
				</g>
			</g>
		</g>
		<g clip-path="url(#SVGID_24_)" enable-background="new    ">
			<g>
				<defs>
					<rect id="SVGID_29_" x="425.196" y="61.01" width="26.16" height="22.801"/>
				</defs>
				<clipPath id="SVGID_30_">
					<use xlink:href="#SVGID_29_"  overflow="visible"/>
				</clipPath>
				<g clip-path="url(#SVGID_30_)" enable-background="new    ">
					<g>
						<defs>
							<rect id="SVGID_31_" x="425.196" y="61.01" width="26.16" height="22.801"/>
						</defs>
						<clipPath id="SVGID_32_">
							<use xlink:href="#SVGID_31_"  overflow="visible"/>
						</clipPath>
						<g clip-path="url(#SVGID_32_)">
							<text transform="matrix(1 0 0 1 425.1963 77.9512)" font-family="'TitilliumText25L-600wt'" font-size="20">0.1</text>
						</g>
					</g>
				</g>
			</g>
		</g>
		<rect x="35.433" y="113.384" clip-path="url(#SVGID_24_)" fill="#F6F6F6" width="1417.323" height="832.677"/>
		
			<rect x="35.433" y="113.384" clip-path="url(#SVGID_24_)" fill="none" stroke="#000000" stroke-width="1.791" stroke-linejoin="round" width="1417.323" height="832.677"/>
		<g clip-path="url(#SVGID_24_)" enable-background="new    ">
			<g>
				<defs>
					<rect id="SVGID_33_" x="35.433" y="997.069" width="76.718" height="15.96"/>
				</defs>
				<clipPath id="SVGID_34_">
					<use xlink:href="#SVGID_33_"  overflow="visible"/>
				</clipPath>
				<g clip-path="url(#SVGID_34_)" enable-background="new    ">
					<g>
						<defs>
							<rect id="SVGID_35_" x="35.433" y="997.069" width="76.718" height="15.96"/>
						</defs>
						<clipPath id="SVGID_36_">
							<use xlink:href="#SVGID_35_"  overflow="visible"/>
						</clipPath>
						<g clip-path="url(#SVGID_36_)">
							<text transform="matrix(1 0 0 1 35.4326 1008.9277)" font-family="'TitilliumText25L-600wt'" font-size="14">Designed by:</text>
						</g>
					</g>
				</g>
			</g>
		</g>
		<g clip-path="url(#SVGID_24_)" enable-background="new    ">
			<g>
				<defs>
					<rect id="SVGID_37_" x="36.763" y="961.636" width="45.345" height="15.96"/>
				</defs>
				<clipPath id="SVGID_38_">
					<use xlink:href="#SVGID_37_"  overflow="visible"/>
				</clipPath>
				<g clip-path="url(#SVGID_38_)" enable-background="new    ">
					<g>
						<defs>
							<rect id="SVGID_39_" x="36.763" y="961.636" width="45.345" height="15.96"/>
						</defs>
						<clipPath id="SVGID_40_">
							<use xlink:href="#SVGID_39_"  overflow="visible"/>
						</clipPath>
						<g clip-path="url(#SVGID_40_)">
							<text transform="matrix(1 0 0 1 36.7627 973.4941)" font-family="'TitilliumText25L-600wt'" font-size="14">Project:</text>
						</g>
					</g>
				</g>
			</g>
		</g>
		<g clip-path="url(#SVGID_24_)" enable-background="new    ">
			<g>
				<defs>
					<rect id="SVGID_41_" x="407.48" y="961.636" width="28.209" height="15.96"/>
				</defs>
				<clipPath id="SVGID_42_">
					<use xlink:href="#SVGID_41_"  overflow="visible"/>
				</clipPath>
				<g clip-path="url(#SVGID_42_)" enable-background="new    ">
					<g>
						<defs>
							<rect id="SVGID_43_" x="407.48" y="961.636" width="28.209" height="15.96"/>
						</defs>
						<clipPath id="SVGID_44_">
							<use xlink:href="#SVGID_43_"  overflow="visible"/>
						</clipPath>
						<g clip-path="url(#SVGID_44_)">
							<text transform="matrix(1 0 0 1 407.48 973.4941)" font-family="'TitilliumText25L-600wt'" font-size="14">Link:</text>
						</g>
					</g>
				</g>
			</g>
		</g>
		<g clip-path="url(#SVGID_24_)" enable-background="new    ">
			<g>
				<defs>
					<rect id="SVGID_45_" x="406.677" y="997.069" width="79.476" height="15.96"/>
				</defs>
				<clipPath id="SVGID_46_">
					<use xlink:href="#SVGID_45_"  overflow="visible"/>
				</clipPath>
				<g clip-path="url(#SVGID_46_)" enable-background="new    ">
					<g>
						<defs>
							<rect id="SVGID_47_" x="406.677" y="997.069" width="79.476" height="15.96"/>
						</defs>
						<clipPath id="SVGID_48_">
							<use xlink:href="#SVGID_47_"  overflow="visible"/>
						</clipPath>
						<g clip-path="url(#SVGID_48_)">
							<text transform="matrix(1 0 0 1 406.6768 1008.9277)" font-family="'TitilliumText25L-600wt'" font-size="14">Designed for:</text>
						</g>
					</g>
				</g>
			</g>
		</g>
		
			<line clip-path="url(#SVGID_24_)" fill="none" stroke="#CFCFCF" stroke-width="1.413" stroke-dasharray="1.413,4.238" x1="90.619" y1="973.494" x2="389.764" y2="973.494"/>
		
			<line clip-path="url(#SVGID_24_)" fill="none" stroke="#CFCFCF" stroke-width="1.503" stroke-dasharray="1.503,4.508" x1="442.865" y1="973.494" x2="761.811" y2="973.494"/>
		
			<line clip-path="url(#SVGID_24_)" fill="none" stroke="#CFCFCF" stroke-width="1.372" stroke-dasharray="1.372,4.115" x1="121.691" y1="1008.928" x2="389.763" y2="1008.928"/>
		
			<line clip-path="url(#SVGID_24_)" fill="none" stroke="#CFCFCF" stroke-width="1.372" stroke-dasharray="1.372,4.115" x1="495.239" y1="1008.928" x2="763.168" y2="1008.928"/>
		<g clip-path="url(#SVGID_24_)" enable-background="new    ">
			<g>
				<defs>
					<rect id="SVGID_49_" x="799.528" y="1002.497" width="353.592" height="10.139"/>
				</defs>
				<clipPath id="SVGID_50_">
					<use xlink:href="#SVGID_49_"  overflow="visible"/>
				</clipPath>
				<g clip-path="url(#SVGID_50_)" enable-background="new    ">
					<g>
						<defs>
							<rect id="SVGID_51_" x="799.528" y="1002.497" width="353.592" height="10.139"/>
						</defs>
						<clipPath id="SVGID_52_">
							<use xlink:href="#SVGID_51_"  overflow="visible"/>
						</clipPath>
						<g clip-path="url(#SVGID_52_)">
							<text transform="matrix(1 0 0 1 799.5269 1010.1338)" font-family="'TitilliumText25L-250wt'" font-size="9">Original development of the System Map: http://www.mepss.nl/index.php?p=tool&amp;l4=W21</text>
						</g>
					</g>
				</g>
			</g>
		</g>
		<g clip-path="url(#SVGID_24_)" enable-background="new    ">
			<g>
				<defs>
					<rect id="SVGID_53_" x="1060.72" y="705.711" width="167.68" height="17.22"/>
				</defs>
				<clipPath id="SVGID_54_">
					<use xlink:href="#SVGID_53_"  overflow="visible"/>
				</clipPath>
				<g clip-path="url(#SVGID_54_)" enable-background="new    ">
					<g>
						<defs>
							<rect id="SVGID_55_" x="1060.72" y="705.711" width="167.68" height="17.22"/>
						</defs>
						<clipPath id="SVGID_56_">
							<use xlink:href="#SVGID_55_"  overflow="visible"/>
						</clipPath>
						<g clip-path="url(#SVGID_56_)">
							<text transform="matrix(1 0 0 1 1060.7231 718.4004)" font-family="'TitilliumText25L-800wt'" font-size="15">Boundaries of the Activity</text>
						</g>
					</g>
				</g>
			</g>
		</g>
		<rect x="381.857" y="255.117" clip-path="url(#SVGID_24_)" fill="#FFFFFF" width="842.414" height="442.913"/>
		
			<rect x="381.857" y="255.117" clip-path="url(#SVGID_24_)" fill="none" stroke="#000000" stroke-width="7.087" width="842.414" height="442.913"/>
		<g clip-path="url(#SVGID_24_)" enable-background="new    ">
			<g>
				<defs>
					<rect id="SVGID_57_" x="119.67" y="996.607" width="224.472" height="33.012"/>
				</defs>
				<clipPath id="SVGID_58_">
					<use xlink:href="#SVGID_57_"  overflow="visible"/>
				</clipPath>
				<g clip-path="url(#SVGID_58_)" enable-background="new    ">
					<g>
						<defs>
							<rect id="SVGID_59_" x="119.67" y="996.607" width="224.472" height="33.012"/>
						</defs>
						<clipPath id="SVGID_60_">
							<use xlink:href="#SVGID_59_"  overflow="visible"/>
						</clipPath>
						<g clip-path="url(#SVGID_60_)">
							<text transform="matrix(1 0 0 1 119.6699 1008.9277)" font-family="'TitilliumText25L-250wt'" font-size="14">Chao Zhuang</text>
						</g>
						<g clip-path="url(#SVGID_60_)">
							<text transform="matrix(1 0 0 1 199.1621 1008.9277)" font-family="'AdobeSongStd-Light-GBpc-EUC-H'" font-size="14">,</text>
						</g>
						<g clip-path="url(#SVGID_60_)">
							<text transform="matrix(1 0 0 1 202.4941 1008.9277)" font-family="'TitilliumText25L-250wt'" font-size="14">Tomi Koponen, </text>
						</g>
						<g clip-path="url(#SVGID_60_)">
							<text transform="matrix(1 0 0 1 119.6699 1025.7275)" font-family="'TitilliumText25L-250wt'" font-size="14">Katariina Kunnaton, Andreas Ahlbäck</text>
						</g>
					</g>
				</g>
			</g>
		</g>
		<g clip-path="url(#SVGID_24_)" enable-background="new    ">
			<g>
				<defs>
					<rect id="SVGID_61_" x="88.582" y="961.615" width="164.805" height="15.771"/>
				</defs>
				<clipPath id="SVGID_62_">
					<use xlink:href="#SVGID_61_"  overflow="visible"/>
				</clipPath>
				<g clip-path="url(#SVGID_62_)" enable-background="new    ">
					<g>
						<defs>
							<rect id="SVGID_63_" x="88.582" y="961.615" width="164.805" height="15.771"/>
						</defs>
						<clipPath id="SVGID_64_">
							<use xlink:href="#SVGID_63_"  overflow="visible"/>
						</clipPath>
						<g clip-path="url(#SVGID_64_)">
							<text transform="matrix(1 0 0 1 88.582 973.4941)" font-family="'TitilliumText25L-250wt'" font-size="14">Why is Chemistry _______?</text>
						</g>
					</g>
				</g>
			</g>
		</g>
		<g clip-path="url(#SVGID_24_)" enable-background="new    ">
			<g>
				<defs>
					<rect id="SVGID_65_" x="440.893" y="961.615" width="146.774" height="15.771"/>
				</defs>
				<clipPath id="SVGID_66_">
					<use xlink:href="#SVGID_65_"  overflow="visible"/>
				</clipPath>
				<g clip-path="url(#SVGID_66_)" enable-background="new    ">
					<g>
						<defs>
							<rect id="SVGID_67_" x="440.893" y="961.615" width="146.774" height="15.771"/>
						</defs>
						<clipPath id="SVGID_68_">
							<use xlink:href="#SVGID_67_"  overflow="visible"/>
						</clipPath>
						<g clip-path="url(#SVGID_68_)">
							<text transform="matrix(1 0 0 1 440.8926 973.4941)" font-family="'TitilliumText25L-250wt'" font-size="14">http://www.google.com</text>
						</g>
					</g>
				</g>
			</g>
		</g>
		<g clip-path="url(#SVGID_24_)" enable-background="new    ">
			<g>
				<defs>
					<rect id="SVGID_69_" x="493.811" y="997.049" width="77.405" height="15.771"/>
				</defs>
				<clipPath id="SVGID_70_">
					<use xlink:href="#SVGID_69_"  overflow="visible"/>
				</clipPath>
				<g clip-path="url(#SVGID_70_)" enable-background="new    ">
					<g>
						<defs>
							<rect id="SVGID_71_" x="493.811" y="997.049" width="77.405" height="15.771"/>
						</defs>
						<clipPath id="SVGID_72_">
							<use xlink:href="#SVGID_71_"  overflow="visible"/>
						</clipPath>
						<g clip-path="url(#SVGID_72_)">
							<text transform="matrix(1 0 0 1 493.811 1008.9277)" font-family="'TitilliumText25L-250wt'" font-size="14">Organization</text>
						</g>
					</g>
				</g>
			</g>
		</g>
		
			<rect x="311.921" y="853.432" transform="matrix(0.707 -0.7072 0.7072 0.707 -513.6129 474.15)" clip-path="url(#SVGID_24_)" width="7.087" height="7.086"/>
		
			<rect x="311.921" y="853.432" transform="matrix(0.707 -0.7072 0.7072 0.707 -513.6129 474.15)" clip-path="url(#SVGID_24_)" fill="none" stroke="#000000" width="7.087" height="7.086"/>
		<g clip-path="url(#SVGID_24_)" enable-background="new    ">
			<g>
				<defs>
					<rect id="SVGID_73_" x="250.504" y="793.742" width="79.814" height="12.628"/>
				</defs>
				<clipPath id="SVGID_74_">
					<use xlink:href="#SVGID_73_"  overflow="visible"/>
				</clipPath>
				<g clip-path="url(#SVGID_74_)" enable-background="new    ">
					<g>
						<defs>
							<rect id="SVGID_75_" x="250.504" y="793.742" width="79.814" height="12.628"/>
						</defs>
						<clipPath id="SVGID_76_">
							<use xlink:href="#SVGID_75_"  overflow="visible"/>
						</clipPath>
						<g clip-path="url(#SVGID_76_)">
							<text transform="matrix(1 0 0 1 250.5039 803.0479)" font-family="'TitilliumText25L-800wt'" font-size="11">Information flow</text>
						</g>
					</g>
				</g>
			</g>
		</g>
		<path clip-path="url(#SVGID_24_)" fill="#EF0039" d="M449.431,856.903c0,2.934-2.381,5.314-5.314,5.314
			c-2.934,0-5.316-2.381-5.316-5.314s2.382-5.315,5.316-5.315C447.05,851.588,449.431,853.97,449.431,856.903"/>
		<g clip-path="url(#SVGID_24_)" enable-background="new    ">
			<g>
				<defs>
					<rect id="SVGID_77_" x="385.678" y="793.742" width="66.493" height="12.628"/>
				</defs>
				<clipPath id="SVGID_78_">
					<use xlink:href="#SVGID_77_"  overflow="visible"/>
				</clipPath>
				<g clip-path="url(#SVGID_78_)" enable-background="new    ">
					<g>
						<defs>
							<rect id="SVGID_79_" x="385.678" y="793.742" width="66.493" height="12.628"/>
						</defs>
						<clipPath id="SVGID_80_">
							<use xlink:href="#SVGID_79_"  overflow="visible"/>
						</clipPath>
						<g clip-path="url(#SVGID_80_)">
							<text transform="matrix(1 0 0 1 385.6777 803.0479)" font-family="'TitilliumText25L-800wt'" font-size="11">Financial flow</text>
						</g>
					</g>
				</g>
			</g>
		</g>
		<g clip-path="url(#SVGID_24_)" enable-background="new    ">
			<g>
				<defs>
					<rect id="SVGID_81_" x="531.897" y="793.742" width="79.814" height="12.628"/>
				</defs>
				<clipPath id="SVGID_82_">
					<use xlink:href="#SVGID_81_"  overflow="visible"/>
				</clipPath>
				<g clip-path="url(#SVGID_82_)" enable-background="new    ">
					<g>
						<defs>
							<rect id="SVGID_83_" x="531.897" y="793.742" width="79.814" height="12.628"/>
						</defs>
						<clipPath id="SVGID_84_">
							<use xlink:href="#SVGID_83_"  overflow="visible"/>
						</clipPath>
						<g clip-path="url(#SVGID_84_)">
						</g>
					</g>
				</g>
			</g>
		</g>
		<g clip-path="url(#SVGID_24_)" enable-background="new    ">
			<g>
				<defs>
					<rect id="SVGID_85_" x="667.071" y="793.742" width="66.493" height="12.628"/>
				</defs>
				<clipPath id="SVGID_86_">
					<use xlink:href="#SVGID_85_"  overflow="visible"/>
				</clipPath>
				<g clip-path="url(#SVGID_86_)" enable-background="new    ">
					<g>
						<defs>
							<rect id="SVGID_87_" x="667.071" y="793.742" width="66.493" height="12.628"/>
						</defs>
						<clipPath id="SVGID_88_">
							<use xlink:href="#SVGID_87_"  overflow="visible"/>
						</clipPath>
						<g clip-path="url(#SVGID_88_)">
						</g>
					</g>
				</g>
			</g>
		</g>
		<g clip-path="url(#SVGID_24_)" enable-background="new    ">
			<g>
				<defs>
					<rect id="SVGID_89_" x="270.512" y="872.568" width="40.229" height="11.329"/>
				</defs>
				<clipPath id="SVGID_90_">
					<use xlink:href="#SVGID_89_"  overflow="visible"/>
				</clipPath>
				<g clip-path="url(#SVGID_90_)" enable-background="new    ">
					<g>
						<defs>
							<rect id="SVGID_91_" x="270.512" y="872.568" width="40.229" height="11.329"/>
						</defs>
						<clipPath id="SVGID_92_">
							<use xlink:href="#SVGID_91_"  overflow="visible"/>
						</clipPath>
						<g clip-path="url(#SVGID_92_)">
							<text transform="matrix(1 0 0 1 270.5117 881.0479)" font-family="'TitilliumText25L-400wt'" font-size="10">Core flow</text>
						</g>
					</g>
				</g>
			</g>
		</g>
		<g clip-path="url(#SVGID_24_)" enable-background="new    ">
			<g>
				<defs>
					<rect id="SVGID_93_" x="399.037" y="872.568" width="40.229" height="11.329"/>
				</defs>
				<clipPath id="SVGID_94_">
					<use xlink:href="#SVGID_93_"  overflow="visible"/>
				</clipPath>
				<g clip-path="url(#SVGID_94_)" enable-background="new    ">
					<g>
						<defs>
							<rect id="SVGID_95_" x="399.037" y="872.568" width="40.229" height="11.329"/>
						</defs>
						<clipPath id="SVGID_96_">
							<use xlink:href="#SVGID_95_"  overflow="visible"/>
						</clipPath>
						<g clip-path="url(#SVGID_96_)">
							<text transform="matrix(1 0 0 1 399.0366 881.0479)" font-family="'TitilliumText25L-400wt'" font-size="10">Core flow</text>
						</g>
					</g>
				</g>
			</g>
		</g>
		
			<line clip-path="url(#SVGID_24_)" fill="none" stroke="#000000" stroke-width="2" stroke-miterlimit="10" x1="278.852" y1="828.374" x2="278.852" y2="829.374"/>
		
			<line clip-path="url(#SVGID_24_)" fill="none" stroke="#000000" stroke-width="2" stroke-miterlimit="10" stroke-dasharray="2.046,2.046" x1="278.852" y1="831.42" x2="278.852" y2="854.952"/>
		<polyline clip-path="url(#SVGID_24_)" fill="none" stroke="#000000" stroke-width="2" stroke-miterlimit="10" points="
			278.852,855.976 278.852,856.976 279.852,856.976 		"/>
		
			<line clip-path="url(#SVGID_24_)" fill="none" stroke="#000000" stroke-width="2" stroke-miterlimit="10" stroke-dasharray="2.036,2.036" x1="281.888" y1="856.976" x2="313.446" y2="856.976"/>
		
			<line clip-path="url(#SVGID_24_)" fill="none" stroke="#000000" stroke-width="2" stroke-miterlimit="10" x1="314.464" y1="856.976" x2="315.464" y2="856.976"/>
		
			<polyline clip-path="url(#SVGID_24_)" fill="none" stroke="#EF0039" stroke-width="2" stroke-linecap="round" stroke-linejoin="round" stroke-miterlimit="10" points="
			407.503,828.374 407.503,856.976 444.115,856.976 		"/>
		<g opacity="0.5" clip-path="url(#SVGID_24_)" enable-background="new    ">
			<g>
				<defs>
					<path id="SVGID_97_" d="M728.242,856.779L728.242,856.779z"/>
				</defs>
				<clipPath id="SVGID_98_">
					<use xlink:href="#SVGID_97_"  overflow="visible"/>
				</clipPath>
			</g>
		</g>
		<g clip-path="url(#SVGID_24_)" enable-background="new    ">
			<g>
				<defs>
					<rect id="SVGID_99_" x="539.521" y="873.862" width="69.859" height="11.329"/>
				</defs>
				<clipPath id="SVGID_100_">
					<use xlink:href="#SVGID_99_"  overflow="visible"/>
				</clipPath>
				<g clip-path="url(#SVGID_100_)" enable-background="new    ">
					<g>
						<defs>
							<rect id="SVGID_101_" x="539.521" y="873.862" width="69.859" height="11.329"/>
						</defs>
						<clipPath id="SVGID_102_">
							<use xlink:href="#SVGID_101_"  overflow="visible"/>
						</clipPath>
						<g clip-path="url(#SVGID_102_)">
						</g>
					</g>
				</g>
			</g>
		</g>
		<g clip-path="url(#SVGID_24_)" enable-background="new    ">
			<g>
				<defs>
					<rect id="SVGID_103_" x="668.046" y="873.862" width="69.859" height="11.329"/>
				</defs>
				<clipPath id="SVGID_104_">
					<use xlink:href="#SVGID_103_"  overflow="visible"/>
				</clipPath>
				<g clip-path="url(#SVGID_104_)" enable-background="new    ">
					<g>
						<defs>
							<rect id="SVGID_105_" x="668.046" y="873.862" width="69.859" height="11.329"/>
						</defs>
						<clipPath id="SVGID_106_">
							<use xlink:href="#SVGID_105_"  overflow="visible"/>
						</clipPath>
						<g clip-path="url(#SVGID_106_)">
						</g>
					</g>
				</g>
			</g>
		</g>
		
			<path clip-path="url(#SVGID_24_)" fill="none" stroke="#828282" stroke-width="2" stroke-miterlimit="10" stroke-dasharray="2.046,2.046" d="
			M562.871,854.828"/>
		<path clip-path="url(#SVGID_24_)" fill="none" stroke="#828282" stroke-width="2" stroke-miterlimit="10" d="M563.871,856.852"/>
		
			<path clip-path="url(#SVGID_24_)" fill="none" stroke="#828282" stroke-width="2" stroke-miterlimit="10" stroke-dasharray="2.036,2.036" d="
			M597.465,856.852"/>
		
			<path clip-path="url(#SVGID_24_)" fill="none" stroke="#828282" stroke-width="2" stroke-miterlimit="10" stroke-dasharray="2.036,2.036" d="
			M565.907,856.852"/>
		
			<path clip-path="url(#SVGID_24_)" fill="none" stroke="#EF0039" stroke-width="2" stroke-linecap="round" stroke-linejoin="round" stroke-miterlimit="10" stroke-dasharray="2,4" d="
			M728.134,856.852"/>
		
			<path clip-path="url(#SVGID_24_)" fill="none" stroke="#EF0039" stroke-width="2" stroke-linecap="round" stroke-linejoin="round" stroke-miterlimit="10" stroke-dasharray="2,4" d="
			M691.522,828.25"/>
		<rect x="488.091" y="629.392" clip-path="url(#SVGID_24_)" width="80.977" height="39.477"/>
		<polyline clip-path="url(#SVGID_24_)" points="488.091,629.392 528.579,615.221 569.068,629.392 		"/>
	</g>
	<g clip-path="url(#SVGID_2_)">
		<text transform="matrix(1 0 0 1 503.5508 653.8428)" fill="#FFFFFF" font-family="'TitilliumText25L-800wt'" font-size="12.1467">University</text>
	</g>
	<g clip-path="url(#SVGID_2_)">
		<defs>
			<rect id="SVGID_107_" y="0" width="1488.188" height="1052.361"/>
		</defs>
		<clipPath id="SVGID_108_">
			<use xlink:href="#SVGID_107_"  overflow="visible"/>
		</clipPath>
		<rect x="701.889" y="636.25" clip-path="url(#SVGID_108_)" width="48.908" height="32.764"/>
		<polyline clip-path="url(#SVGID_108_)" points="701.889,636.251 726.343,627.091 750.797,636.251 		"/>
	</g>
	<g clip-path="url(#SVGID_2_)">
		<text transform="matrix(1 0 0 1 709.0586 653.8701)" fill="#FFFFFF" font-family="'TitilliumText25L-800wt'" font-size="12.1467">School</text>
	</g>
	<g clip-path="url(#SVGID_2_)">
		<text transform="matrix(1 0 0 1 815.814 286.062)" font-family="'TitilliumText25L-800wt'" font-size="14.0485">Enhance Chemistry</text>
	</g>
	<g clip-path="url(#SVGID_2_)">
		<text transform="matrix(1 0 0 1 815.814 302.9204)" font-family="'TitilliumText25L-800wt'" font-size="14.0485">Project</text>
	</g>
	<g clip-path="url(#SVGID_2_)">
		<text transform="matrix(1 0 0 1 717.166 356.4312)" font-family="'TitilliumText25L-800wt'" font-size="12.1467">Entertainment</text>
	</g>
	<g clip-path="url(#SVGID_2_)">
		<text transform="matrix(1 0 0 1 717.166 371.0073)" font-family="'TitilliumText25L-800wt'" font-size="12.1467">Development</text>
	</g>
	<g clip-path="url(#SVGID_2_)">
		<text transform="matrix(1 0 0 1 840.103 356.4312)" font-family="'TitilliumText25L-800wt'" font-size="12.1467">Print Media</text>
	</g>
	<g clip-path="url(#SVGID_2_)">
		<text transform="matrix(1 0 0 1 840.103 371.0073)" font-family="'TitilliumText25L-800wt'" font-size="12.1467">Development</text>
	</g>
	<g clip-path="url(#SVGID_2_)">
		<text transform="matrix(1 0 0 1 962.6753 356.4312)" font-family="'TitilliumText25L-800wt'" font-size="12.1467">New Ideas</text>
	</g>
	<g clip-path="url(#SVGID_2_)">
		<text transform="matrix(1 0 0 1 962.6753 371.0073)" font-family="'TitilliumText25L-800wt'" font-size="12.1467">Generation</text>
	</g>
	<g clip-path="url(#SVGID_2_)">
		<text transform="matrix(1 0 0 1 566.5713 171.291)" font-family="'TitilliumText25L-800wt'" font-size="12.1467">CHEMICAL INDUSTRY </text>
	</g>
	<g clip-path="url(#SVGID_2_)">
		<text transform="matrix(1 0 0 1 566.5713 185.8672)" font-family="'TitilliumText25L-800wt'" font-size="12.1467">FEDERATION OF FINLAND</text>
	</g>
	<g clip-path="url(#SVGID_2_)">
		<text transform="matrix(1 0 0 1 1071.9468 170.4893)" font-family="'TitilliumText25L-800wt'" font-size="12.1467">Government </text>
	</g>
	<g clip-path="url(#SVGID_2_)">
		<text transform="matrix(1 0 0 1 1071.9468 185.0654)" font-family="'TitilliumText25L-800wt'" font-size="12.1467">Departments</text>
	</g>
	<g clip-path="url(#SVGID_2_)">
		<text transform="matrix(1 0 0 1 517.2271 185.8247)" font-family="'TitilliumText25L-800wt'" font-size="33.1274">CIF</text>
	</g>
	<g clip-path="url(#SVGID_2_)">
		<defs>
			<rect id="SVGID_109_" y="0" width="1488.188" height="1052.361"/>
		</defs>
		<clipPath id="SVGID_110_">
			<use xlink:href="#SVGID_109_"  overflow="visible"/>
		</clipPath>
		<rect x="784.333" y="278.173" clip-path="url(#SVGID_110_)" width="6.727" height="6.725"/>
		<rect x="792.476" y="278.173" clip-path="url(#SVGID_110_)" width="6.727" height="6.725"/>
		<rect x="800.618" y="278.173" clip-path="url(#SVGID_110_)" width="6.727" height="6.725"/>
		<rect x="784.333" y="286.137" clip-path="url(#SVGID_110_)" width="6.727" height="6.726"/>
		<rect x="792.477" y="286.137" clip-path="url(#SVGID_110_)" width="6.725" height="6.726"/>
		<rect x="800.618" y="286.137" clip-path="url(#SVGID_110_)" width="6.727" height="6.726"/>
		<rect x="784.333" y="294.104" clip-path="url(#SVGID_110_)" width="6.727" height="6.725"/>
		<rect x="792.476" y="294.104" clip-path="url(#SVGID_110_)" width="6.727" height="6.725"/>
		<rect x="800.618" y="294.104" clip-path="url(#SVGID_110_)" width="6.727" height="6.725"/>
	</g>
	<g clip-path="url(#SVGID_2_)">
		<text transform="matrix(1 0 0 1 978.5601 605.9902)" font-family="'TitilliumText25L-800wt'" font-size="12.1467">Professionals, Designers</text>
	</g>
	<g clip-path="url(#SVGID_2_)">
		<defs>
			<rect id="SVGID_111_" y="0" width="1488.188" height="1052.361"/>
		</defs>
		<clipPath id="SVGID_112_">
			<use xlink:href="#SVGID_111_"  overflow="visible"/>
		</clipPath>
		<path clip-path="url(#SVGID_112_)" fill="#686868" d="M1019.646,586.83c-2.309,0-4.18,1.871-4.18,4.18h8.359
			C1023.826,588.701,1021.954,586.83,1019.646,586.83"/>
		<path clip-path="url(#SVGID_112_)" fill="#686868" d="M1022.398,583.722c0,1.47-1.19,2.661-2.661,2.661
			c-1.47,0-2.661-1.191-2.661-2.661c0-1.472,1.191-2.662,2.661-2.662C1021.208,581.06,1022.398,582.25,1022.398,583.722"/>
		<path clip-path="url(#SVGID_112_)" d="M1011.338,586.57c-3.461,0-6.269,2.807-6.269,6.27h12.536
			C1017.606,589.377,1014.799,586.57,1011.338,586.57"/>
		<path clip-path="url(#SVGID_112_)" d="M1015.466,581.907c0,2.206-1.787,3.992-3.992,3.992c-2.204,0-3.99-1.786-3.99-3.992
			c0-2.204,1.786-3.989,3.99-3.989C1013.679,577.918,1015.466,579.703,1015.466,581.907"/>
		
			<polyline clip-path="url(#SVGID_112_)" fill="none" stroke="#000000" stroke-width="2" stroke-miterlimit="10" stroke-dasharray="2,2" points="
			743.298,341.496 871.39,314.102 871.39,340.711 		"/>
		
			<line clip-path="url(#SVGID_112_)" fill="none" stroke="#000000" stroke-width="2" stroke-miterlimit="10" stroke-dasharray="2,2" x1="1005.068" y1="341.496" x2="871.39" y2="314.102"/>
		<polygon clip-path="url(#SVGID_112_)" points="481.579,162.711 481.579,186.879 486.486,186.879 486.486,174.795 491.564,174.795 
			491.564,186.879 506.025,186.879 506.025,162.711 		"/>
		<g opacity="0.8" clip-path="url(#SVGID_112_)">
			<g>
				<defs>
					<rect id="SVGID_113_" x="227.829" y="205.433" width="86.683" height="55.881"/>
				</defs>
				<clipPath id="SVGID_114_">
					<use xlink:href="#SVGID_113_"  overflow="visible"/>
				</clipPath>
				<polygon clip-path="url(#SVGID_114_)" fill="#828282" points="314.512,230.66 314.512,261.313 237.949,261.313 227.829,261.313 
					227.829,230.66 227.829,205.432 237.949,205.432 237.949,230.66 250.709,219.66 263.47,230.66 276.23,219.66 288.991,230.66 
					301.751,219.66 				"/>
			</g>
		</g>
		<polygon clip-path="url(#SVGID_112_)" points="280.556,234.314 264.545,248.118 248.533,234.314 232.522,248.118 216.51,234.314 
			200.498,248.118 200.498,216.462 187.8,216.462 187.8,248.118 187.8,286.583 200.498,286.583 296.568,286.583 296.568,248.118 		
			"/>
	</g>
	<g clip-path="url(#SVGID_2_)">
		<text transform="matrix(1 0 0 1 193.8452 277.748)" fill="#FFFFFF" font-family="'TitilliumText25L-800wt'" font-size="12.1467">Chemical Industry</text>
	</g>
	<g clip-path="url(#SVGID_2_)">
		<defs>
			<rect id="SVGID_115_" y="0" width="1488.188" height="1052.361"/>
		</defs>
		<clipPath id="SVGID_116_">
			<use xlink:href="#SVGID_115_"  overflow="visible"/>
		</clipPath>
		<g opacity="0.8" clip-path="url(#SVGID_116_)">
			<g>
				<defs>
					<rect id="SVGID_117_" x="227.829" y="433.644" width="86.683" height="55.882"/>
				</defs>
				<clipPath id="SVGID_118_">
					<use xlink:href="#SVGID_117_"  overflow="visible"/>
				</clipPath>
				<polygon clip-path="url(#SVGID_118_)" fill="#828282" points="301.751,447.87 288.991,458.87 276.23,447.87 263.471,458.87 
					250.709,447.87 237.95,458.87 237.95,433.643 227.829,433.643 227.829,458.87 227.829,489.525 237.95,489.525 314.511,489.525 
					314.511,458.87 				"/>
			</g>
		</g>
		<polygon clip-path="url(#SVGID_116_)" points="280.556,462.525 264.545,476.328 248.533,462.525 232.522,476.328 216.51,462.525 
			200.498,476.328 200.498,444.674 187.8,444.674 187.8,476.328 187.8,514.794 200.498,514.794 296.568,514.794 296.568,476.328 		
			"/>
	</g>
	<g clip-path="url(#SVGID_2_)">
		<text transform="matrix(1 0 0 1 198.6294 507.3779)" fill="#FFFFFF" font-family="'TitilliumText25L-800wt'" font-size="12.1467">Other Industries</text>
	</g>
	<g clip-path="url(#SVGID_2_)">
		<defs>
			<rect id="SVGID_119_" y="0" width="1488.188" height="1052.361"/>
		</defs>
		<clipPath id="SVGID_120_">
			<use xlink:href="#SVGID_119_"  overflow="visible"/>
		</clipPath>
		<polygon clip-path="url(#SVGID_120_)" points="1052.417,170.695 1040.847,170.695 1052.417,162.389 1063.987,170.695 		"/>
		<rect x="1043.961" y="172.031" clip-path="url(#SVGID_120_)" width="2.226" height="9.295"/>
		<rect x="1048.805" y="172.031" clip-path="url(#SVGID_120_)" width="2.226" height="9.295"/>
		<rect x="1053.651" y="172.031" clip-path="url(#SVGID_120_)" width="2.226" height="9.295"/>
		<rect x="1041.708" y="182.687" clip-path="url(#SVGID_120_)" width="21.412" height="2.225"/>
		<rect x="1058.498" y="172.031" clip-path="url(#SVGID_120_)" width="2.226" height="9.295"/>
	</g>
	<g clip-path="url(#SVGID_2_)">
		<text transform="matrix(1 0 0 1 561.3628 479.5591)" font-family="'TitilliumText25L-800wt'" font-size="12.1467">University</text>
	</g>
	<g clip-path="url(#SVGID_2_)">
		<text transform="matrix(1 0 0 1 567.3149 494.1353)" font-family="'TitilliumText25L-800wt'" font-size="12.1467">Student</text>
	</g>
	<g clip-path="url(#SVGID_2_)">
		<defs>
			<rect id="SVGID_121_" y="0" width="1488.188" height="1052.361"/>
		</defs>
		<clipPath id="SVGID_122_">
			<use xlink:href="#SVGID_121_"  overflow="visible"/>
		</clipPath>
		<path clip-path="url(#SVGID_122_)" fill="#686868" d="M593.529,460.552c-2.309,0-4.18,1.871-4.18,4.18h8.36
			C597.709,462.423,595.837,460.552,593.529,460.552"/>
		<path clip-path="url(#SVGID_122_)" fill="#686868" d="M596.281,457.443c0,1.47-1.19,2.661-2.661,2.661
			c-1.47,0-2.662-1.191-2.662-2.661c0-1.471,1.192-2.662,2.662-2.662C595.091,454.781,596.281,455.973,596.281,457.443"/>
		<path clip-path="url(#SVGID_122_)" d="M585.221,460.292c-3.461,0-6.269,2.807-6.269,6.269h12.537
			C591.489,463.1,588.681,460.292,585.221,460.292"/>
		<path clip-path="url(#SVGID_122_)" d="M589.349,455.629c0,2.206-1.787,3.992-3.992,3.992c-2.204,0-3.991-1.786-3.991-3.992
			c0-2.204,1.787-3.99,3.991-3.99C587.562,451.639,589.349,453.425,589.349,455.629"/>
		<rect x="579.336" y="454.033" clip-path="url(#SVGID_122_)" width="8.73" height="1.104"/>
		<rect x="591.916" y="456.276" clip-path="url(#SVGID_122_)" fill="#686868" width="5.792" height="0.552"/>
	</g>
	<g clip-path="url(#SVGID_2_)">
		<text transform="matrix(1 0 0 1 817.4556 593.0234)" font-family="'TitilliumText25L-800wt'" font-size="12.1467">Children</text>
	</g>
	<g clip-path="url(#SVGID_2_)">
		<defs>
			<rect id="SVGID_123_" y="0" width="1488.188" height="1052.361"/>
		</defs>
		<clipPath id="SVGID_124_">
			<use xlink:href="#SVGID_123_"  overflow="visible"/>
		</clipPath>
		<path clip-path="url(#SVGID_124_)" fill="#686868" d="M843.979,575.734c-1.721,0-3.114,1.393-3.114,3.114h6.227
			C847.091,577.127,845.698,575.734,843.979,575.734"/>
		<path clip-path="url(#SVGID_124_)" fill="#686868" d="M846.029,573.418c0,1.096-0.887,1.981-1.982,1.981s-1.983-0.886-1.983-1.981
			s0.888-1.982,1.983-1.982S846.029,572.322,846.029,573.418"/>
		<path clip-path="url(#SVGID_124_)" d="M837.79,575.54c-2.578,0-4.669,2.092-4.669,4.669h9.338
			C842.458,577.632,840.368,575.54,837.79,575.54"/>
		<path clip-path="url(#SVGID_124_)" d="M840.865,572.067c0,1.642-1.331,2.975-2.975,2.975c-1.641,0-2.972-1.333-2.972-2.975
			c0-1.644,1.331-2.972,2.972-2.972C839.534,569.096,840.865,570.424,840.865,572.067"/>
		<rect x="833.407" y="570.879" clip-path="url(#SVGID_124_)" width="6.503" height="0.822"/>
		<rect x="842.777" y="572.55" clip-path="url(#SVGID_124_)" fill="#686868" width="4.314" height="0.41"/>
		
			<path clip-path="url(#SVGID_124_)" fill="none" stroke="#EF0039" stroke-width="2" stroke-linecap="round" stroke-linejoin="round" stroke-miterlimit="10" stroke-dasharray="2,4" d="
			M326.497,233.373"/>
		<path clip-path="url(#SVGID_124_)" d="M709.895,359.744c0,4.421-3.584,8.006-8.005,8.006c-4.422,0-8.006-3.585-8.006-8.006
			s3.584-8.006,8.006-8.006C706.311,351.738,709.895,355.323,709.895,359.744"/>
		<path clip-path="url(#SVGID_124_)" d="M836.331,359.744c0,4.421-3.584,8.006-8.006,8.006c-4.421,0-8.006-3.585-8.006-8.006
			s3.585-8.006,8.006-8.006C832.747,351.738,836.331,355.323,836.331,359.744"/>
		<path clip-path="url(#SVGID_124_)" d="M957.797,359.744c0,4.421-3.584,8.006-8.005,8.006c-4.422,0-8.006-3.585-8.006-8.006
			s3.584-8.006,8.006-8.006C954.213,351.738,957.797,355.323,957.797,359.744"/>
	</g>
	<g clip-path="url(#SVGID_2_)">
		<text transform="matrix(1 0 0 1 698.6699 363.6084)" fill="#FFFFFF" font-family="'TitilliumText25L-800wt'" font-size="12.1467">1</text>
	</g>
	<g clip-path="url(#SVGID_2_)">
		<text transform="matrix(1 0 0 1 825.105 363.6084)" fill="#FFFFFF" font-family="'TitilliumText25L-800wt'" font-size="12.1467">2</text>
	</g>
	<g clip-path="url(#SVGID_2_)">
		<text transform="matrix(1 0 0 1 946.5718 363.6084)" fill="#FFFFFF" font-family="'TitilliumText25L-800wt'" font-size="12.1467">3</text>
	</g>
	<g clip-path="url(#SVGID_2_)">
		<defs>
			<rect id="SVGID_125_" y="0" width="1488.188" height="1052.361"/>
		</defs>
		<clipPath id="SVGID_126_">
			<use xlink:href="#SVGID_125_"  overflow="visible"/>
		</clipPath>
		<rect x="739.249" y="376.307" clip-path="url(#SVGID_126_)" width="8.097" height="8.098"/>
		<rect x="739.249" y="337.447" clip-path="url(#SVGID_126_)" width="8.097" height="8.097"/>
		<rect x="867.341" y="376.307" clip-path="url(#SVGID_126_)" width="8.098" height="8.098"/>
		<rect x="998.229" y="563.292" clip-path="url(#SVGID_126_)" width="8.098" height="8.099"/>
		<rect x="867.341" y="337.447" clip-path="url(#SVGID_126_)" width="8.098" height="8.097"/>
		<rect x="1000.642" y="376.307" clip-path="url(#SVGID_126_)" width="8.098" height="8.098"/>
		<rect x="1000.642" y="337.447" clip-path="url(#SVGID_126_)" width="8.098" height="8.097"/>
		<rect x="867.341" y="310.054" clip-path="url(#SVGID_126_)" width="8.098" height="8.097"/>
	</g>
</g>
</svg>
